<svg width="200" height="200" viewBox="0 0 200 200" fill="none" xmlns="http://www.w3.org/2000/svg">
<rect width="200" height="200" rx="75" fill="url(#paint0_linear_2157_3)"/>
<rect x="4" y="4" width="192" height="192" rx="71" stroke="white" stroke-opacity="0.3" stroke-width="8"/>
<path d="M80.6 124C69.7752 124 61 115.174 61 104.286C61 93.3978 69.7752 84.5714 80.6 84.5714C82.3845 84.5714 84.1134 84.8113 85.7564 85.2608C87.8338 68.2068 102.284 55 119.8 55C138.743 55 154.1 70.4462 154.1 89.5C154.1 90.0697 154.086 90.6362 154.059 91.1992C157.133 94.6802 159 99.2636 159 104.286C159 115.174 150.225 124 139.4 124H80.6Z" fill="#D0DBFF" fill-opacity="0.9"/>
<path d="M142.28 143.999C154.85 143.869 165 133.666 165 121.098C165 108.45 154.72 98.1964 142.039 98.1964C141.25 98.1964 140.471 98.2361 139.703 98.3135C136.83 89.8355 128.789 83.7321 119.319 83.7321C116.907 83.7321 114.588 84.1282 112.423 84.8586C110.316 72.45 99.4887 63 86.4483 63C71.8984 63 60.1033 74.7645 60.1033 89.2768C60.1033 90.172 60.1482 91.0567 60.2358 91.9289C60.1917 91.9287 60.1475 91.9286 60.1033 91.9286C45.6869 91.9286 34 103.585 34 117.964C34 132.343 45.6869 144 60.1033 144H142.28V143.999Z" fill="white"/>
<defs>
<linearGradient id="paint0_linear_2157_3" x1="100" y1="0" x2="100" y2="200" gradientUnits="userSpaceOnUse">
<stop stop-color="#4E95FF"/>
<stop offset="1" stop-color="#1573FF"/>
</linearGradient>
</defs>
</svg>
