<?xml version="1.0" encoding="UTF-8"?>
<svg id="frontron" data-name="frontron" xmlns="http://www.w3.org/2000/svg" viewBox="0 0 1115.6 1206.39">
  <defs>
    <style>
      .cls-1 {
        fill: #3063be;
      }

      .cls-1, .cls-2, .cls-3 {
        stroke-width: 0px;
      }

      .cls-2 {
        fill: #fdfdfd;
      }

      .cls-3 {
        fill: #060708;
      }
    </style>
  </defs>
  <g id="frontron" data-name="frontron">
    <g>
      <path class="cls-1" d="M815.68,207.09c-.04.05-.13.14-.29.29,0,0-.04-.04-.04-.04.17-.14.29-.23.33-.25Z"/>
      <path class="cls-2" d="M795.74,191.56s.06-.01.09-.01c.08-.01.15-.01.2.02.08.06.1.19.15.29-.2-.01-.4-.01-.6-.01.05-.1.11-.2.16-.29Z"/>
      <path class="cls-2" d="M778.93,952.04c1.08.63,1.23,1.86.77,2.92-1.43,3.27-4.96,5.09-7.74,7.03-3.23,2.26-6.13,5.01-9.25,7.43-3.27,2.53-6.6,4.99-9.94,7.43-3.29,2.42-6.57,4.85-9.72,7.46-1.26,1.03-2.52,2.09-3.64,3.27-.81.84-1.88,1.96-1.9,3.2-.06,2.74-4.32,2.74-4.27,0,.03-1.14.34-2.18.84-3.16,1.2-2.35,3.48-4.26,5.42-5.88,6.5-5.44,13.53-10.18,20.23-15.36,3.27-2.54,6.34-5.36,9.69-7.79,2.24-1.62,5.25-3,6.5-5.61.03-.06.07-.11.1-.17.46-1.06,2.01-1.3,2.91-.77Z"/>
      <path class="cls-1" d="M397.39,930.26c.22.11.44.2.66.31-.22.18-.37.26-.47.26-.04,0-.08,0-.1-.04-.08-.08-.1-.24-.1-.44,0-.03,0-.06.01-.09Z"/>
      <path class="cls-1" d="M397.48,930.79s.06.04.1.04c-.04,0-.08,0-.1-.04Z"/>
      <path class="cls-1" d="M397.38,930.26s-.05-.03-.08-.04l.09-.08v.12h-.01Z"/>
      <path class="cls-1" d="M397.39,930.14l-.09.08s-.01-.03-.01-.05c.03,0,.07-.02.1-.03Z"/>
      <path class="cls-1" d="M397.18,929.76c-.04-.13-.09-.25-.14-.37.06.12.11.24.14.37Z"/>
      <path class="cls-1" d="M397.04,929.39c-.16-.35-.36-.64-.59-.9.24.26.44.55.59.9Z"/>
      <path class="cls-1" d="M396.39,930.4c.29-.04.59-.12.89-.23-.03-.14-.06-.28-.1-.41.05.13.08.27.11.41-.31.12-.61.2-.9.23Z"/>
      <path class="cls-1" d="M396.18,930.43l.21-.03c-.07.02-.14.03-.21.03Z"/>
      <path class="cls-1" d="M782.64,639.75c1.27,17.4-2.48,33.33-11.5,48.13-2.34,3.84-3.22,8.29-5.34,12.29-2.27,4.26-.02,6.51,4.75,7.06,18.03,2.06,31.67-6.23,44.21-17.83,16.25-15.01,26.35-33.59,31.57-54.74,2.32-9.42,5.68-18.84,4.78-28.88-.15-1.64.15-3.76,2-4.13,2.23-.44,2.99,1.71,3.63,3.41,1.54,4.09,3.98,7.68,6.9,10.78,5.57,5.92,13.95,4.3,17.78-2.83,7.41-13.81,4.93-27.85.85-41.74-3.5-11.91-11.22-21.7-19.68-30.2-16.19-16.28-21.53-36.1-22.36-58.01-.56-14.67-.13-29.3,2.11-43.79,1.57-10.14,4.22-20.11,5.12-30.37.69-7.93,1.18-15.88,1.78-23.82.11-1.39-.59-3.56,1.4-3.73,2.14-.18,2.44,2.04,2.49,3.65.44,15.49,1.97,31.15-.88,46.38-1.94,10.34-2.65,20.41-.81,30.51,2.29,12.54,6.32,24.46,15.6,33.68.62.62,1.26,1.22,1.93,1.81.75.66,1.45,1.39,2.26,1.97,4.04,2.89,12.98,4.2,15.67,1.78,4.5-4.04,1.15-9.01.89-13.59-.05-.77-.69-1.5-1.02-2.26-.41-.94-.82-2.18.23-2.69,1.42-.69,2.03.63,2.47,1.73,11.26,28.6,27.48,54.97,37.88,83.95,4.21,11.73,7.25,23.73,9.22,36.13,1.59,9.99,1.78,19.81,1.16,29.78-.15,2.26.09,4.57,2.77,5.19,2.46.58,5.09-.26,5.99-2.52,1.78-4.47,6.37-7.36,6.72-12.57.08-1.19.84-2.29,2.3-2.06,1.4.22,1.84,1.42,1.78,2.63-.77,16.86,7,32.41,7.47,49.08.14,4.81,3.31,9.13,2.54,14.11-2,12.96-3.16,26.06-7.08,38.69-4.44,14.32-11.62,27.35-18.68,40.41-4.11,7.63-7.9,15.42-11.9,23.09-4.45,8.51-1.96,21.63,4.79,28.31,2.66,2.63,5.7,2.43,8.76,2.6,5.22.29,10.62,1.31,15.18-2.57.74-.64,1.96-1.08,2.65-.02,1.05,1.61-.39,2.69-1.14,3.95-6.08,10.18-15.16,17.29-24.32,24.46-9.01,7.05-16.96,15.61-26.47,21.83-10.92,7.14-19.61,16.73-29.92,24.52-10.11,7.64-19.25,16.71-26.57,27.41-4.28,6.26-10.31,11.2-13.61,18.35-2.61,5.68-6.15,10.94-8.5,16.79-1.32,3.27-3.24,6.06-6.77,7.32-.43-3.44-2.54-1.65-4.02-1.17-6.9,2.22-13.97,3.15-21.18,2.92-11.47-.36-18.36-11.87-12.86-21.82,3.59-6.5,8.02-12.43,13.14-17.91,5.91-6.31,11.52-13.01,14.77-21.19,2.36-5.94,1.76-6.41-4.49-6.16-14.65.6-28.82-1.81-42.45-7.27-1.39-.55-2.75-1.23-3.99-2.05-.79-.52-1.54-1.05-2.23-1.58-10.14-7.76-9.69-16.69,1.27-25.09,8.53-6.54,17.17-12.97,25.88-19.29,5.55-4.02,11.07-8.16,17.02-11.5,7.01-3.94,11.64-9.87,15.57-16.45,3.7-6.2,2.34-9.05-4.76-10.53-13.53-2.81-26.83-1.28-39.93,2.61-3.05.91-6.04,1.88-9.25,1.94-2.58.04-6.05,1.5-7.36-1.25-1.6-3.33-2.31-7.32.12-10.96,2.34-3.51,5.38-6.33,8.68-8.89,1.45-1.13,3.02-2.08,4.48-3.19,1.36-1.05,2.5-2.29,2.14-4.21-.39-2.05-2.14-2.32-3.75-2.72-18.21-4.52-35.96-2.88-53.38,3.85-15.73,6.08-29.49,15.28-41.55,26.88-7.25,6.98-11.89,16.02-16.75,24.75-13.53,24.3-30.69,45.39-55.42,58.88-13.11,7.15-25.23,15.91-38.69,22.44-4.12,2-7.41,5.57-11.75,7.35-1.29.53-2.46,1.77-4.28.84,2.48-3.99,6.5-6.13,9.93-8.86,17.58-14.01,31.01-31.06,39.06-52.23,1.28-3.37,2.72-6.65,3.81-10.12,4.11-13.17.37-24.16-8.54-34.04-7.65-8.47-16.85-14.81-26.21-21.25-16.55-11.39-35.73-18.15-51.63-30.59-24.77-19.37-39.52-44.51-44.69-75.48-5.01-30.01-2.3-59.41,6.58-88.33,6.44-20.97,15.99-40.55,27.15-59.38,2.73-4.61,6.19-8.64,9.99-12.41,1.1-1.1,2.85-1.88,2.54-4.52-4.96,1.07-9.49,3.04-13.91,5.1-16.93,7.89-31.31,19.51-45.47,31.44-42.58,35.89-72.38,81.02-94.07,131.73-13.12,30.65-18.68,63.06-19.25,96.36-.42,24.94,1.79,49.6,8.25,73.73,4.41,16.48,11.02,32.01,21.3,45.83,5.29,7.12,12.46,11.92,19.55,16.9.2.14.4.26.61.38.63.37,1.3.7,1.9,1.1.01,0,.01.01.02.01.19.14.38.28.55.44.1.08.19.17.28.27.23.26.43.55.59.9.05.12.1.24.14.37s.07.27.1.41c-.3.11-.6.19-.89.23l-.21.03c-.5.05-.98.01-1.46-.1-.35-.09-.69-.2-1.02-.32-.17-.06-.34-.13-.51-.21-.33-.15-.66-.3-1-.46-.17-.08-.33-.15-.5-.23-12-5.42-23.73-11.4-34.99-18.21-11.74-7.12-20.3-17.68-28.8-28.16-23.26-28.68-34.66-62-37.76-98.45-1.64-19.36-.87-38.58,3.27-57.63,1.77-8.09,4.31-15.91,7.97-24.23-6.27,1.42-10.57,4.64-14.88,7.94-25.71,19.74-44.36,45.12-58.35,74.01-4.78,9.87-7.18,20.64-7.79,31.72-1.6,28.86,5.82,55.66,18.42,81.29,17.6,35.79,44.05,64.3,74.2,89.7,3.66,3.09,7.89,5.5,11.85,8.22-4.24,2.29-8.42,5.79-13.54,3.21-4.78-2.41-9.92-4.26-14.14-7.76-14.45-11.97-29.75-22.95-43.25-36.05-14.58-14.14-29.11-28.42-41.96-44.14-11.78-14.41-21.58-30.33-31.17-46.3-4.71-7.83-9.56-15.66-13.33-23.96-4.8-10.55-8.64-21.54-12.75-32.4-5.77-15.26-9.52-31.05-12.89-47.01-2.66-12.61-2.72-25.25-1.62-37.74,1.01-11.44,4.38-22.67,8.5-33.6,7.1-18.8,15.9-36.68,28.3-52.52,16.66-21.3,36.06-39.91,56.58-57.55,15.77-13.55,31.97-26.56,48.01-39.74,15.66-12.87,32.68-24.01,49.28-35.68,10.74-7.55,21.74-14.83,32.92-21.48,2.34-1.39,4.71-2.74,7.1-4.07,2.38-1.33,4.78-2.65,7.17-3.99,4.78-2.68,9.51-5.43,14.03-8.51,19.51-13.32,38.77-27.05,54.96-44.48,15.62-16.82,31.59-33.26,44.6-52.39,11.48-16.87,21.79-34.24,29.15-53.28,4.79-12.37,6.86-25.32,7.48-38.52.12-2.53.71-4.85,1.99-7.19,2.48,2.31,3.3,5.03,4.07,8.21,1.88,7.87,4.39,15.59,5.7,23.61,2.93,17.98,3.88,35.83.12,53.97-4,19.34-16.07,33.18-28.93,46.77-3.66,3.87-7.28,7.78-11.01,11.58-1.95,1.98-2.43,3.9-.44,6.08.23.25.43.51.66.76,1.53,1.69.23,5.26,3.2,5.73,3.31.51,6.61-.56,9.68-1.85,18.09-7.55,31.56-20.81,43.36-35.89,7.17-9.17,13.48-19.01,18.88-29.34,4.38-8.4,7.67-17.26,10.65-26.29,5.29-16.08,7.92-32.62,9.66-49.34.78-7.59.63-15.18.06-22.87-.47-6.51.93-13.2-.28-19.83-3.42-18.61-5.58-37.55-12.47-55.34-7.04-18.16-15.09-35.89-24.77-52.85-6.67-11.67-12.82-23.68-21.44-34.12-14.76-17.89-28.17-36.86-45.32-52.84-11.59-10.8-21.96-22.98-33.11-34.53,4.43.66,8.11,2.98,11.46,5.57,10.38,8.07,20.57,16.39,31.4,23.85,19.21,13.23,37.19,28.09,55.15,42.89,16.65,13.72,32.41,28.49,46.28,45.29,9.55,11.58,18.87,23.22,26.94,35.84,4.64,7.25,9.08,14.62,11.99,22.84,2.17,6.15,5.31,11.94,7.52,18.07,2.15,5.94,4.42,11.8,5.67,18.14.9,4.58,4,8.75,5.32,13.62,6.31,23.3,11.54,46.87,15.8,70.58,4.85,26.98,4.49,53.85-5.36,80.16-5.15,13.72-10.69,27.18-17.4,40.19-1.74,3.38-2.98,7.03-4.3,10.61-.83,2.24,2.14,12.86,4.07,13.76,4.18,1.94,8.05.79,11.63-1.88,9.21-6.89,16.87-15.46,21.31-25.84,4.76-11.13,9.51-22.42,11.59-34.63.82-4.79,3.29-9.32,2.75-14.45-.09-.85.34-1.79,1.27-1.87,1.47-.12,2,1.14,2.26,2.25,2.13,9.02,4.78,17.96,6.13,27.1,2.24,15.12,3.91,30.35,3.27,45.72-.5,11.88-2.85,23.39-6.54,34.63-1.51,4.61-2.49,4.79-5.46,1.31-2.12-2.48-4.91-3.39-7.91-3.77-9.61-1.2-18.91-1.33-25.82,7.26-4.9,6.09-9.78,12.13-13.39,19.14-2.97,5.79-3.22,11.85-.77,17.37,6.12,13.79,2.96,26.38-3.31,38.99-5.89,11.84-14.47,21.74-22.13,32.34-11.42,15.81-19.13,33.07-22.95,52.65-2.75,14.05-.31,27.2,1.9,40.33,2.19,12.93,8.49,24.94,19.26,33.38,7.72,6.04,16.36,10.61,26.11,12.94,22.2,5.32,41.32-1.18,59.53-13.76,11.96-8.27,21.73-18.56,29.97-30.09,4.85-6.78,7.28-15.38,10.28-23.35,5.64-14.94,10.08-30.21,12.54-46.07,2.27-14.59,1.06-29.23,1.58-43.85.06-1.84-1.05-5.05,1.11-5.2,2.92-.21,1.69,3.22,2.28,5.09,1.61,5.01,2.29,10.2,4.58,15.14,2.45,5.3,3.13,11.42,4.54,17.19,2.29,9.36,3.27,18.86,3.97,28.49Z"/>
      <path class="cls-1" d="M395.62,927.78c.19.13.38.27.55.44-.17-.16-.36-.3-.55-.44Z"/>
      <path class="cls-1" d="M393.7,930.01c.33.12.67.23,1.02.32-.34-.08-.68-.19-1.02-.32Z"/>
      <path class="cls-1" d="M393.7,926.67c.63.37,1.31.69,1.9,1.1-.6-.4-1.27-.73-1.9-1.1Z"/>
      <path class="cls-1" d="M392.19,929.34c.34.16.67.31,1,.46-.34-.14-.67-.3-1-.46Z"/>
      <path class="cls-1" d="M370.87,478.52c2.38-1.33,4.78-2.65,7.17-3.99-2.39,1.34-4.79,2.66-7.17,3.99Z"/>
      <path class="cls-3" d="M361.02,954.23c11.68,6.34,24.04,11.49,35.43,18.27,25.77,15.35,50.41,32.32,72.71,52.59,20.33,18.48,38.47,38.7,53.01,62.07,11.73,18.85,20.15,38.94,23.56,61,.47,3.03,1.25,6.16,5.48,5.63,4.08-.52,7.95-.39,8.91-6.41,1.6-9.99,3.98-19.91,7.8-29.35,8.76-21.66,21.09-41.23,36.23-58.9,24.44-28.53,53.42-51.93,84.6-72.66,20.12-13.37,41.55-24.43,63.51-34.46,5.44-2.48,10.98-4.78,16.59-6.83,2.2-.8,4.98-1.75,6.78,1.03.9,1.38.9,4.23.29,6.77-1.25,2.61-4.26,3.99-6.5,5.61-3.35,2.43-6.42,5.25-9.69,7.79-6.7,5.18-13.73,9.92-20.23,15.36-1.94,1.62-4.22,3.53-5.42,5.88-27.3,22.16-50.95,47.69-70.75,76.86-14.58,21.47-25.91,44.11-29.23,70.32-1.97,15.53-1.12,30.6,4.73,45.1,7.29,18.09,15.93,19.86,31.29,14.8,12.6-4.15,25.29-8.06,37.83-12.39,30.22-10.46,60.19-21.6,88.79-35.98,17.38-8.74,34.72-17.69,51.34-27.76,22.75-13.8,44.97-28.46,65.63-45.39,16.61-13.6,32.54-27.9,47.39-43.38,11.64-12.14,22.73-24.81,33.05-38.1,15.42-19.86,30.09-40.25,42.18-62.41,11.89-21.77,23.65-43.54,32.63-66.78,7.13-18.48,13.95-37.02,19.29-56.11,6.71-23.96,11.09-48.39,14.08-73.03,3.03-25.01,6.66-49.96,6.03-75.36-.3-11.93-2.77-23.44-3.64-35.2-.68-9.29-.95-18.58-2.36-27.85-2.12-13.99-3.8-28.07-6.67-41.92-6.51-31.34-15.79-61.89-27.4-91.74-9.5-24.4-20.97-47.88-34.48-70.24-16.7-27.65-35.42-53.9-57.11-78-22.13-24.59-45.99-47.22-73-66.33-31.81-22.49-66.17-40.27-102.76-53.67-1.21-.44-2.93-2.19-3.85-.24-.73,1.54,1.15,2.65,2.43,3.3,5.84,2.97,10.69,7.3,15.83,11.22,0,0,.03.04.04.04,27.19,21.95,54.59,43.63,78.52,69.34,13.07,14.04,25.57,28.47,37.04,43.82,12.1,16.2,22.22,33.67,32.68,50.93,11.59,19.12,21.59,39,30.36,59.51,9.03,21.12,17.02,42.62,23.6,64.65,8.85,29.61,15.02,59.77,18.99,90.39.63,4.89-.05,9.95.53,14.85.77,6.45,1.72,12.86,2.07,19.36,1.73,32.76-2.23,65.03-8.03,97.18-2.89,16.01-6.57,31.8-10.4,47.61-8.36,34.41-21.8,66.77-38.16,97.92-18.72,35.63-41.37,68.63-68.41,98.64-29.36,32.58-61.44,61.79-98.99,84.78-22.21,13.6-45.24,25.57-69.11,35.87-13.43,5.8-27.22,10.77-40.86,16.09-5.46,2.14-11.11,3.45-17.01,3.7-5.31.23-5.89-.33-4.03-5.5,2.45-6.84,6.99-12.47,11.4-18.09,28.09-35.78,62.2-65.13,98.55-92.08,10.07-7.46,20.19-14.86,29.59-23.17,3.53-1.26,5.45-4.05,6.77-7.32,2.35-5.85,5.89-11.11,8.5-16.79,3.3-7.15,9.33-12.09,13.61-18.35,7.32-10.7,16.46-19.77,26.57-27.41,10.31-7.79,19-17.38,29.92-24.52,9.51-6.22,17.46-14.78,26.47-21.83,9.16-7.17,18.24-14.28,24.32-24.46.75-1.26,2.19-2.34,1.14-3.95-.69-1.06-1.91-.62-2.65.02-4.56,3.88-9.96,2.86-15.18,2.57-3.06-.17-6.1.03-8.76-2.6-6.75-6.68-9.24-19.8-4.79-28.31,4-7.67,7.79-15.46,11.9-23.09,7.06-13.06,14.24-26.09,18.68-40.41,3.92-12.63,5.08-25.73,7.08-38.69.77-4.98-2.4-9.3-2.54-14.11-.47-16.67-8.24-32.22-7.47-49.08.06-1.21-.38-2.41-1.78-2.63-1.46-.23-2.22.87-2.3,2.06-.35,5.21-4.94,8.1-6.72,12.57-.9,2.26-3.53,3.1-5.99,2.52-2.68-.62-2.92-2.93-2.77-5.19.62-9.97.43-19.79-1.16-29.78-1.97-12.4-5.01-24.4-9.22-36.13-10.4-28.98-26.62-55.35-37.88-83.95-.44-1.1-1.05-2.42-2.47-1.73-1.05.51-.64,1.75-.23,2.69.33.76.97,1.49,1.02,2.26.26,4.58,3.61,9.55-.89,13.59-2.69,2.42-11.63,1.11-15.67-1.78-.81-.58-1.51-1.31-2.26-1.97-.67-.59-1.31-1.19-1.93-1.81-9.28-9.22-13.31-21.14-15.6-33.68-1.84-10.1-1.13-20.17.81-30.51,2.85-15.23,1.32-30.89.88-46.38-.05-1.61-.35-3.83-2.49-3.65-1.99.17-1.29,2.34-1.4,3.73-.6,7.94-1.09,15.89-1.78,23.82-.9,10.26-3.55,20.23-5.12,30.37-2.24,14.49-2.67,29.12-2.11,43.79.83,21.91,6.17,41.73,22.36,58.01,8.46,8.5,16.18,18.29,19.68,30.2,4.08,13.89,6.56,27.93-.85,41.74-3.83,7.13-12.21,8.75-17.78,2.83-2.92-3.1-5.36-6.69-6.9-10.78-.64-1.7-1.4-3.85-3.63-3.41-1.85.37-2.15,2.49-2,4.13.9,10.04-2.46,19.46-4.78,28.88-5.22,21.15-15.32,39.73-31.57,54.74-12.54,11.6-26.18,19.89-44.21,17.83-4.77-.55-7.02-2.8-4.75-7.06,2.12-4,3-8.45,5.34-12.29,9.02-14.8,12.77-30.73,11.5-48.13-.7-9.63-1.68-19.13-3.97-28.49-1.41-5.77-2.09-11.89-4.54-17.19-2.29-4.94-2.97-10.13-4.58-15.14-.59-1.87.64-5.3-2.28-5.09-2.16.15-1.05,3.36-1.11,5.2-.52,14.62.69,29.26-1.58,43.85-2.46,15.86-6.9,31.13-12.54,46.07-3,7.97-5.43,16.57-10.28,23.35-8.24,11.53-18.01,21.82-29.97,30.09-18.21,12.58-37.33,19.08-59.53,13.76-9.75-2.33-18.39-6.9-26.11-12.94-10.77-8.44-17.07-20.45-19.26-33.38-2.21-13.13-4.65-26.28-1.9-40.33,3.82-19.58,11.53-36.84,22.95-52.65,7.66-10.6,16.24-20.5,22.13-32.34,6.27-12.61,9.43-25.2,3.31-38.99-2.45-5.52-2.2-11.58.77-17.37,3.61-7.01,8.49-13.05,13.39-19.14,6.91-8.59,16.21-8.46,25.82-7.26,3,.38,5.79,1.29,7.91,3.77,2.97,3.48,3.95,3.3,5.46-1.31,3.69-11.24,6.04-22.75,6.54-34.63.64-15.37-1.03-30.6-3.27-45.72-1.35-9.14-4-18.08-6.13-27.1-.26-1.11-.79-2.37-2.26-2.25-.93.08-1.36,1.02-1.27,1.87.54,5.13-1.93,9.66-2.75,14.45-2.08,12.21-6.83,23.5-11.59,34.63-4.44,10.38-12.1,18.95-21.31,25.84-3.58,2.67-7.45,3.82-11.63,1.88-1.93-.9-4.9-11.52-4.07-13.76,1.32-3.58,2.56-7.23,4.3-10.61,6.71-13.01,12.25-26.47,17.4-40.19,9.85-26.31,10.21-53.18,5.36-80.16-4.26-23.71-9.49-47.28-15.8-70.58-1.32-4.87-4.42-9.04-5.32-13.62-1.25-6.34-3.52-12.2-5.67-18.14-2.21-6.13-5.35-11.92-7.52-18.07-2.91-8.22-7.35-15.59-11.99-22.84-8.07-12.62-17.39-24.26-26.94-35.84-13.87-16.8-29.63-31.57-46.28-45.29-17.96-14.8-35.94-29.66-55.15-42.89-10.83-7.46-21.02-15.78-31.4-23.85-3.35-2.59-7.03-4.91-11.46-5.57,11.15,11.55,21.52,23.73,33.11,34.53,17.15,15.98,30.56,34.95,45.32,52.84,8.62,10.44,14.77,22.45,21.44,34.12,9.68,16.96,17.73,34.69,24.77,52.85,6.89,17.79,9.05,36.73,12.47,55.34,1.21,6.63-.19,13.32.28,19.83.57,7.69.72,15.28-.06,22.87-1.74,16.72-4.37,33.26-9.66,49.34-2.98,9.03-6.27,17.89-10.65,26.29-5.4,10.33-11.71,20.17-18.88,29.34-11.8,15.08-25.27,28.34-43.36,35.89-3.07,1.29-6.37,2.36-9.68,1.85-2.97-.47-1.67-4.04-3.2-5.73-.23-.25-.43-.51-.66-.76-1.99-2.18-1.51-4.1.44-6.08,3.73-3.8,7.35-7.71,11.01-11.58,12.86-13.59,24.93-27.43,28.93-46.77,3.76-18.14,2.81-35.99-.12-53.97-1.31-8.02-3.82-15.74-5.7-23.61-.77-3.18-1.59-5.9-4.07-8.21-1.28,2.34-1.87,4.66-1.99,7.19-.62,13.2-2.69,26.15-7.48,38.52-7.36,19.04-17.67,36.41-29.15,53.28-13.01,19.13-28.98,35.57-44.6,52.39-16.19,17.43-35.45,31.16-54.96,44.48-4.52,3.08-9.25,5.83-14.03,8.51-2.39,1.34-4.79,2.66-7.17,3.99-2.39,1.33-4.76,2.68-7.1,4.07-11.18,6.65-22.18,13.93-32.92,21.48-16.6,11.67-33.62,22.81-49.28,35.68-16.04,13.18-32.24,26.19-48.01,39.74-20.52,17.64-39.92,36.25-56.58,57.55-12.4,15.84-21.2,33.72-28.3,52.52-4.12,10.93-7.49,22.16-8.5,33.6-1.1,12.49-1.04,25.13,1.62,37.74,3.37,15.96,7.12,31.75,12.89,47.01,4.11,10.86,7.95,21.85,12.75,32.4,3.77,8.3,8.62,16.13,13.33,23.96,9.59,15.97,19.39,31.89,31.17,46.3,12.85,15.72,27.38,30,41.96,44.14,13.5,13.1,28.8,24.08,43.25,36.05,4.22,3.5,9.36,5.35,14.14,7.76,5.12,2.58,9.3-.92,13.54-3.21,4.12,2.02,8.2,4.07,11.94,6.81,9.69,7.1,18.68,15.04,27.73,22.9,22.46,19.5,43.22,40.59,60.64,64.78,2.29,3.18,6.15,7.48,3.74,10.58-2.54,3.27-7.73.74-11.6-.6-11.46-3.99-22.79-8.27-33.85-13.36-13.36-6.15-27.2-11.25-40.09-18.44-33.47-18.66-66.15-38.32-95.12-63.86-19.55-17.24-37.9-35.42-54.23-55.69-5.84-7.27-12.05-14.22-17.57-21.76-19.68-26.88-36.1-55.66-50.83-85.48-3.05-6.18-5.1-12.7-7.83-18.98-6.11-14.04-11.67-28.3-16.03-43-6.44-21.72-12-43.62-15.42-66.07-1.98-12.98-4.16-25.98-4.86-39.03-.91-16.94.34-33.99-.52-50.93-.95-18.8,1.73-37.26,4.25-55.65,2.76-20.08,6.79-40,11.95-59.71,6.2-23.67,14.56-46.55,23.65-69.15,6.22-15.48,13.15-30.73,20.74-45.63,14.17-27.82,30.1-54.54,49.95-78.72,23.51-28.65,49.73-54.59,78.59-77.86,16.39-13.22,32.43-26.87,50.15-38.37,1.88-1.22,3.69-3.05,4.05-5.69-2.1-.69-3.66.15-5.13.76-15.76,6.67-31.82,12.76-47.16,20.29-25.28,12.42-49.43,26.71-71.66,44.3-29.84,23.61-55.87,50.84-79.6,80.4-21.3,26.54-39.37,55.11-54.61,85.58-16.53,33.05-29.98,67.27-39,103.02-8.62,34.12-13.31,69-15.72,104.12-2.42,35.19-.2,70.18,4.49,105.14,5.53,41.27,15.42,81.35,29.7,120.46,10.02,27.46,23.04,53.43,37.76,78.52,14.82,25.27,31.73,49.19,50.94,71.4,23.26,26.89,48.59,51.65,76.79,73.31,18.87,14.49,38.48,27.98,59.12,39.89,25.98,15,52.45,29.06,79.93,41.13,15.24,6.7,30.65,12.98,46.49,18.17,10.55,3.46,21.36,6.42,31.43,10.98,8.79,3.98,17.42,6.45,27.02,5.46,1.52-.15,2.75-.63,4.13-1.32,7.14-3.59,9.91-10.35,11.87-17.16,7.42-25.72,5.34-51.29-4.38-75.85-14.84-37.53-40.93-67.19-69.54-94.71-11.16-10.74-24.28-19.2-36.57-28.62-12.02-9.21-24.43-17.91-35.55-28.24-2.03-1.89-4.18-4.05-2.55-6.85,1.62-2.78,4.79-2.7,7.64-2.03,1.94.45,3.82,1.21,5.66,1.96,8.6,3.53,17.06,7.27,25.26,11.72ZM823.15,227.36c-12.08-9.73-24.58-18.92-37.33-27.77-5.45-3.78-7.55-10.42-5.26-16.75.85-2.35,2.52-4.28,4.98-4.38,5.33-.21,10.39-1.03,15.79,2.26,7.26,4.42,15.73,6.82,23.56,10.37,8.53,3.85,16.92,8,25.35,12.07,2.78,1.34,5.7,2.5,8.51,3.64,7.69,3.14,14.25,8.08,21.25,12.26,9.91,5.91,19.67,12.14,29.12,18.77,7.67,5.38,14.91,11.43,22.16,17.4,17.33,14.28,32.84,30.51,48.44,46.58,14.39,14.83,26.85,31.36,39,48.03,8.42,11.55,16.19,23.62,23.62,35.84,7.13,11.74,14.18,23.63,19.87,36.1,3.91,8.58,8.14,17.09,11.36,26.02,3.79,10.55,8.36,20.82,12.07,31.4,4.71,13.43,9.72,26.85,13.06,40.65,1.29,5.35,2.74,10.67,4.01,16.05.59,6.73,1.93,13.38,3.29,19.99.27,2.49.86,4.97,1.5,7.46l.42,2.25c.2,2.26.45,4.5.67,6.75.7,7.33,1.27,14.68,1.99,22.01.71,7.26,1.5,14.52,2.31,21.78.4,3.6.81,7.19,1.22,10.79.42,3.61.49,7.24.85,10.86.3,3.03.09,6.34.3,9.53.11,14.17.12,28.33.03,42.49-.14.27-.23.59-.23.97,0,7.4-.55,14.76-1.23,22.12-.8,4.6-1.17,9.3-1.65,13.93-.9,8.49-2.13,16.76-3.67,25.15-1.4,7.6-2.54,15.23-3.46,22.9-.06.18-.1.37-.12.57-1.54,16.19-7.25,31.54-10.86,47.33-2.36,6.82-4.72,13.64-7.17,20.43-3.11,8.6-7.68,16.68-10.05,25.37-2.28,8.37-6.9,15.46-9.81,23.36-5.67,15.38-15.22,28.56-22.79,42.85-6.33,11.94-13.54,23.29-20.81,34.57-6.32,9.81-14.13,18.66-21.22,27.98-18.04,23.71-38.93,44.84-60.51,65.2-12.22,11.52-25.72,21.72-39.03,32.04-5.48,4.25-11.02,8.72-16.76,12.25-6.65,4.08-13.46,8.23-19.99,12.44-8.73,5.64-17.95,10.37-26.62,16.04-7.99,5.21-16.49,9.56-24.49,14.79-4.63,3.03-10.33,4.74-15.62,6.82-7.03,2.76-13.39,7.04-20.5,9.4-11.11,3.68-21.34,9.36-32.3,13.34-8.16,2.97-16.03,6.83-24.3,9.42-5.74,1.81-11.26,4.21-17.24,5.6-6.81,1.57-13.84,3.18-20.28,5.86-.38.06-.78.16-1.2.33-6.92,2.82-14.62,4.22-22.14,5.27h-11.03c-1.41-.17-2.81-.35-4.22-.54-.69-.18-1.39-.36-2.08-.54-7.83-6.18-13.04-14.44-16.16-23.65-3.1-9.14-4.59-18.86-4.59-28.65,0-16.15,1.12-32,6.68-47.54,3.38-9.44,7.01-18.71,11.88-27.34,6.29-11.16,13.18-21.97,21.11-32.16,11.29-14.51,22.97-28.67,35.79-41.79,7.14-7.31,15.45-13.48,23.06-20.35,2.32-2.1,5.24-3.82,6.85-8.01-3.92,2.07-6.86,4.04-9.93,5.65-10.96,5.72-21.19,12.72-31.82,18.97-13.66,8.04-25.04,18.89-37.37,28.5-10.88,8.48-21.09,18.07-30.17,28.66-5.15,6.02-10.88,11.64-15.39,18.11-7.69,11.02-14.75,22.39-20.33,34.79-5.15,11.44-11.19,22.27-12.47,35.16-.37,3.76-2.79,7.54-3.24,11.65-.08.72-.83,1.41-1.34,2.05-5.38,6.61-24.08,8.83-28.66-1.23-1.05-2.29-2.15-4.53-2.56-6.96-1.91-11.45-5.66-22.44-9.55-33.23-3.47-9.64-8.61-18.76-13.81-27.65-5.57-9.56-13.02-17.81-19.94-26.46-11.56-14.43-25.15-26.58-38.91-38.73-13.76-12.16-28.74-22.52-44.31-32.08-4.74-2.91-9.41-5.92-14.16-8.78-5.79-3.5-11.24-7.99-19.02-9.36,2.03,2.92,4.03,4.68,6.3,6.33,5.89,4.27,11.71,8.6,17.07,13.58,14.48,13.45,28.99,27.01,41.06,42.6,13.26,17.13,26.17,34.6,34.31,55.23,5.19,13.15,9.58,26.06,9.32,40.3-.13,7.16-.21,14.34.06,21.49.48,12.2-.02,24.24-6.56,34.98-4.06,6.66-7.45,14.2-15.78,17h-8.37c-1.2-.04-2.39-.09-3.59-.15-.59-.03-1.13.02-1.61.15h-5.59c-.66-.16-1.33-.31-2-.48-3.07-.76-6.64-1.22-9.56-2.56-4.68-3.06-10.19-4.33-15.53-6.11-3.71-1.23-7.68-2.01-11.11-3.68-7.76-3.79-16.3-5.18-24.12-8.73-9.48-4.29-19.17-8.1-28.8-12.05-9.09-3.74-17.89-8.11-27.03-11.77-7.68-3.08-14.95-7.24-22.27-11.17-8.07-4.34-16.14-8.69-23.91-13.6-10.42-6.59-21.03-12.88-31.75-18.98-13.39-7.61-25.14-17.49-37.48-26.55-18.97-13.91-36.53-29.44-52.53-46.72-3.71-4.01-7.8-7.67-11.73-11.47-15.03-14.58-27.51-31.31-40.3-47.77-9.3-11.96-17.8-24.52-25.59-37.51-4.11-6.86-7.71-14.12-11.57-21.15-4.58-8.36-9.97-16.28-13.99-24.99-3.14-6.82-6.34-13.57-9.04-20.61-1.53-4.01-2.29-8.54-5.34-12.11-2.44-2.86-2.09-7.05-3.45-10.57-2.44-6.29-4.44-12.86-6.67-19.3-3.33-9.6-6.96-19.16-9.25-29.02-1.31-5.61-2.56-11.3-4.12-16.82-.55-2.66-1.13-5.33-1.7-7.99-.63-2.92-1.2-5.85-1.74-8.78-.04-.26-.09-.52-.14-.78-.7-3.86-1.35-7.72-2.01-11.59-.35-2.07-.71-4.14-1.07-6.21-.54-4.7-1.71-9.34-2.52-14.03-.2-3.57-.47-7.13-.81-10.68.02-.22.02-.45.04-.68.26-3.31-.08-6.57-1.17-9.64-.62-5.15-1.32-10.3-2-15.44-.18-2.86-.4-5.71-.71-8.56-.05-.53-.26-1.03-.58-1.41-.13-.98-.25-1.98-.37-2.97,0-12.65.01-25.31,0-37.95.02-.1.05-.2.06-.3,1.43-12.33,1.91-24.75,2.81-37.12.42-5.74.98-11.45,1.8-17.15.83-5.79,1.74-11.57,2.31-17.39.44-4.49.65-8.98.42-13.46,1.04-5.85,2.21-11.68,3.02-17.56,1.11-8.06,3.2-15.83,4.72-23.74,1.67-8.69,4.56-17.15,6.98-25.69,2.49-8.86,6.49-17.17,9.37-25.91,3.34-10.14,7.28-20.12,11.72-29.91,2.4-5.28,4.13-10.94,6.85-16.16,5.1-9.77,9.61-19.85,15.8-29.06,2.73-4.07,4.52-8.75,6.81-13.12,4.52-8.61,9.82-16.69,15.22-24.73,8.86-13.19,18.72-25.62,28.69-37.96,7.27-9,14.36-18.16,22.59-26.35,12.08-12.01,23.95-24.25,36.23-36.04,7.15-6.86,15.61-12.21,23.39-18.32,7.29-5.73,14.84-11.1,22.45-16.31,11.93-8.17,24.71-15.03,37.39-22.02,7.54-4.16,15.87-6.05,23.46-9.92,9.81-5.01,20.22-8.72,30.15-13.47,8.25-.68,16.43-1.76,24.43-3.68,2.13,1.65,3.5,3.92,3.42,6.54-.2,6.53-3.33,12.26-9.01,15.82-3.53,2.21-6.68,4.72-9.82,7.42-4.59,3.93-10.3,6.25-14.88,10.42-9.77,8.91-20.34,16.94-30.77,25-17.92,13.85-33.52,30.11-49.78,45.66-8.18,7.83-15.65,16.51-22.88,25.34-7.66,9.34-14.97,18.92-21.77,28.89-6.19,9.06-12.02,18.33-17.36,27.97-8.78,15.85-16.97,32.02-24.44,48.44-4.07,8.94-8.66,17.82-11.69,27.4-2.41,7.66-5.35,15.32-8.5,22.83-1.63,3.89-3.15,8.28-3.92,12.78-2.94,6.13-4.71,12.84-6.39,19.49-3.02,11.94-6.99,23.61-9.73,35.62-1.45,6.33-2.43,12.71-3.45,19.12-1,6.24-2.13,12.47-3.19,18.7-2.13,12.56-3.97,25.21-3.99,37.98-.02,7.31-.18,14.65.01,21.96.08,2.75.44,5.42.97,8.06.11,3.96.22,7.92.3,11.88.24,12.43,1.37,25.19,3.47,37.4,1.64,9.62,3.2,19.48,5.25,29.12,2.18,10.28,4.91,20.47,7.18,30.73,1.21,5.48,2.95,11.13,4.95,16.57,2.98,8.1,5.1,16.52,7.71,24.76,1.28,4.04,3.4,7.76,4.9,11.75,1.7,4.53,3.44,9.06,5.13,13.6,2.14,5.77,4.63,11.44,7.41,16.93,4.89,9.65,10,19.21,15.24,28.68,7.7,13.9,15.51,27.69,24.71,40.76,16.89,24.01,35.32,46.59,56.21,67.26,15.43,15.27,31.79,29.28,49.25,42.13,10.88,8.01,22.54,14.65,34.01,21.71,13.17,8.12,26.76,15.43,40.05,23.28,5.21,3.08,10.98,4.87,16.41,7.44,10.46,4.95,21.41,8.9,32.17,13.23.58.23,1.27.2,2.54.39-1.96-5.14-6-8.14-9.07-11.7-12.81-14.84-27.42-27.91-42-40.92-9.1-8.12-18.53-15.98-28.64-22.92-.86-.58-1.49-1.14-2.65-.67-5.96,2.41-12.18.96-18.28,1.02-4.31.04-7.82-3.21-10.78-5.51-14.56-11.32-28.63-23.26-42.42-35.57-7.68-6.86-15.01-14.01-21.93-21.53-9.23-10.04-19.49-19.11-28.24-29.5-4.11-4.87-7.19-10.93-10.96-16.31-6.25-8.91-11.85-18.22-18.41-26.96-4.95-6.6-7.81-14.74-11.89-22.04-3.59-6.43-6.27-13.35-8.83-20.11-2.46-6.49-5.37-12.89-7.39-19.61-2.47-8.24-5.39-16.35-8.17-24.49-3.89-11.39-5.07-23.3-6.68-35.09-3.06-22.34.44-44.09,8.34-64.92,4.82-12.68,11.24-24.76,17.79-36.75,7.87-14.43,18.42-26.44,29.4-38.42,10.52-11.47,21.55-22.41,33.18-32.65,13.38-11.79,27.07-23.27,40.87-34.6,7.12-5.86,14.41-11.65,21.51-17.53,7.79-6.44,16.83-11.57,24.76-17.95,10.18-8.19,21.9-14.14,31.75-22.81,3.45-3.03,8.34-4.41,12.52-6.65,11.6-6.19,23.02-12.74,33.7-20.35,5.04-3.59,10.95-6.29,14.85-11.39,1.87-2.44,4.95-2.42,7.33-3.98,10.29-6.75,19.32-14.8,27.65-23.83,7.29-7.9,15.3-15.13,22.7-22.92,9.11-9.59,17.1-20.03,24.66-30.95,7.24-10.45,14.04-21.14,20.32-32.14,3.62-6.33,6.75-12.91,9-20.07,1.85-5.86,3.36-11.75,4.58-17.68,1.78-5.13,2.97-10.45,3.38-15.8.02-.07.05-.12.06-.19,2.19-8.3,5.86-16.11,8.28-24.3,3.04,2.28,6.15,4.5,9.22,6.76,1.48,1.58,2.97,3.15,4.36,4.8,1.01,1.18,1.98,2.39,2.95,3.61,1.47,6.2,2.89,12.41,4.54,18.57,4.87,18.2,5.82,37.06,4.28,55.75-1.66,20.29-9.16,38.46-23.91,53.14-3.37,3.36-6.45,7.02-9.76,10.65,4.86,1.83,6.97-2.65,9.32-4.77,8.09-7.3,16.47-14.47,22.78-23.46,8.79-12.53,16.01-25.91,21.86-40.15,1.67-3.09,3.14-6.29,4.48-9.53,1.53-3.69,2.9-7.46,4.22-11.23,1.17-3.36,2.06-6.66,2.06-10.13.55-2.11,1.01-4.24,1.42-6.36,1.54-7.87,2.97-15.88,3.41-23.9.28-5.19.19-10.39-.07-15.58.03-.59.06-1.19.08-1.79.08-2.98-.29-5.88-.82-8.75l-.06-.66c-.76-8.88-1.56-17.8-2.77-26.62-.65-4.76-1.48-9.54-3.05-14.09-1.27-3.69-2.88-7.24-4.3-10.87-3.71-11.9-9.42-23.06-14.01-34.62-4.35-10.95-9.74-21.4-14.81-31.9-4.12-8.55-9.66-16.81-15.57-24.53-7.11-9.32-14.22-18.65-21.58-27.76-5.61-6.94-11.45-13.72-17.5-20.28-7.57-8.23-15.11-16.54-23.3-24.14-2.73-2.54-5.46-5.07-8.22-7.57-4.23-5.19-8.5-10.34-12.7-15.54-2.42-4.84-4.98-9.62-7.52-14.41,2.9.92,5.86,1.69,8.75,2.55,4.67,1.39,9.33,2.78,13.98,4.19,4.05,1.22,8.09,2.45,12.13,3.67,8.01,5.84,15.78,11.99,23.82,17.78,8.04,5.78,15.62,12.16,23.91,17.64,6.43,4.24,12.13,9.6,18.14,14.49,5.65,4.59,11.31,9.15,16.89,13.82,6.7,5.62,13.47,11.16,19.92,17.05,16.42,14.97,31.06,31.62,44.83,48.97,4.37,7.32,8.82,14.59,13.07,21.97,3.95,6.85,7.44,13.98,11.6,20.71.77,2.05,1.61,4.07,2.66,5.98.02.05.03.11.06.16,5.5,12.45,11.04,24.92,15,37.97,4.18,13.78,6.99,27.93,9.85,42.02,5.55,27.29,13.73,54.95,11.19,83.09-.7,7.87-2.36,15.65-3.99,23.37l-.15.72c-.13.3-.27.6-.41.93-.08.16-.13.33-.17.51-.08.13-.15.28-.2.44-2.64,8.86-6.54,17.25-10.16,25.73-1.81,4.24-3.5,8.53-5.37,12.75-1.85,4.15-3.76,8.28-5.53,12.47-1.98,4.69-3.81,9.45-5.13,14.36-.02.04-.06.07-.09.11-.05.09-.1.19-.14.28-.38.43-.55,1-.52,1.57v.02c-.09.27-.1.56-.04.83.01.28.1.55.25.79.11.15.22.29.34.43.06.06.11.12.18.17.04.11.09.21.15.3.69,1.06,1.83,1.25,2.92.76,2.48-1.1,4.72-2.94,6.61-4.86,1.05-1.07,2.11-2.3,2.94-3.66.04-.05.08-.11.12-.16.12-.17.25-.34.38-.51l.21-.28c1.05-1.32,2.13-2.6,3.12-3.98.01,0,.01-.01.01-.01.73-.7,1.43-1.41,2.1-2.18,2.18-2.5,4.21-5.08,5.86-7.97,1.68-2.95,3.04-6.09,4.21-9.27,2.3-6.21,3.72-12.65,5.35-19.05,1.83-7.23,4.14-14.32,6.4-21.42.2-.4.36-.86.46-1.39.01-.06.02-.11.03-.16.86-2.73,1.71-5.47,2.52-8.22,4.45,6.17,7.91,13.07,11.02,19.99.66,1.47,1.3,2.95,1.94,4.44-.1.33-.12.7-.03,1.11.88,3.71,2.09,7.34,3.08,11.02,1,3.73,1.51,7.45,1.82,11.29.63,7.86.68,15.76.53,23.65-.27,14.67-.55,29.43-3.35,43.88-.16.83-.33,1.66-.52,2.49-1.53,1.76-2.68,3.7-4.42,5.3-.09.08-.18.16-.27.23-.86.44-1.73.84-2.61,1.24-.01,0-.02.01-.03.01-.27.09-.54.17-.78.24-.57.16-1.15.31-1.73.44-2.45-.31-4.91-.61-7.37-.83-.07-.01-.13-.02-.16-.02h-.02c-.25-.04-.51-.08-.77-.12-.63-.1-1.26-.2-1.9-.3-1.58-.24-3.17-.46-4.77-.56-1.63-.09-3.48-.07-5.07.48-.43.04-.87.11-1.3.21-.89.18-1.78.49-2.62.89-1.56.52-2.97,1.51-4.18,3.38-4.45,6.86-10.03,12.99-13.38,20.55-1.21,2.73-.78,5.41.46,8.16,2.41,5.33,3.65,11.02,3.86,16.85.44,12.19-4.27,22.92-9.88,33.34-6.36,11.84-14.74,22.34-22.48,33.24-11.09,15.62-18.55,32.84-21.13,51.58-1.93,14.07,1.47,27.9,7.86,40.91,3.34,6.8,6.98,13.02,13.39,17.28,2.69,1.78,5.36,3.6,8.16,5.13,5.6,3.6,11.72,6.66,18.31,7.66,4.07.61,7.85.26,11.85-.63,3.62-.81,7.26-1.61,10.77-2.84,3.6-1.26,7.01-2.94,9.96-5.35,6.49-3.08,12.62-6.63,18.12-11.2,12.57-10.45,21.34-23.95,28.17-38.59,3.08-6.61,4.35-14.11,7.11-20.83,2.89-7.04,2.64-14.6,5.38-21.52.71-1.81,1.13-3.92.98-5.84-.73-9.7,1.59-19.14,2.04-28.71.24-5.17,0-10.34-.57-15.56.11-4.51.1-9.04-.09-13.57-.35-8.34-.04-17.06-2.09-25.06,7.14,6.96,14.16,14.05,21.27,21.03,1.13,2.81,2.36,5.59,3.62,8.31,2.02,4.38,1.93,9.71,4.27,14.09,3.48,6.55,4.39,13.87,5.79,20.85,3.99,19.8,7.87,39.8,4.12,60.1-1.96,10.57-6.31,20.4-11.91,29.62-.5.83-.92,1.71-1.47,2.74,5.3,1.45,9.14-1.74,12.96-3.73,13.93-7.28,24.84-17.99,32.69-31.58,3.38-5.87,6.06-12.08,7.9-18.78,1.28-4.7,2.74-9.41,4.13-14.11.61-2.05,1.18-4.1,1.7-6.16.56-.57.97-1.36,1.15-2.4,2.08-11.75,4.93-23.22,9.05-34.38,2.86,1.76,5.74,3.5,8.65,5.17.36.21.72.35,1.07.47,1.03.64,2.05,1.3,3.1,1.92.88.52,1.75.74,2.56.73.23,1.16.43,2.33.59,3.52.43,3.28,2.1,6.26,4.16,8.88.79.99,1.81,2.68,3.08,2.08,1.15-.54,2.07-1.94,2.34-3.6,1.36-8.1,1.45-16.54-.45-24.16-2.11-8.48-5.43-17.01-11.76-23.93-7.48-8.17-15.17-16.35-21.23-25.55-5.26-7.99-7.2-17.57-8.96-27.27-2.76-15.21-2.84-30.34-2.55-45.57.24-12.73,3.36-25.13,5.3-37.67,1.7-10.95,3.69-21.91,4.31-32.93.04-.73.09-1.46.13-2.2,1.67-11.13,2.38-22.39,1.97-33.61,3.01,2.67,6.03,5.33,8.51,8.53,1.28,1.65,2.45,3.37,3.56,5.13,2.74,7.37,5.04,14.89,6.65,22.59.66,5.37,1.57,10.72,2.29,16.09.37,5.1.33,10.23-.41,15.24-.62,4.27-1.53,8.48-2.11,12.75-.47,3.52-.62,7.05-.61,10.59-.16,1.02-.3,2.03-.39,3.06-.58,6.96,1.1,13.79,2.6,20.53.09.39.26.7.47.93.01.04.01.08.02.12,1.05,7.26,3.15,15.18,8.11,20.82,2.47,2.8,5.79,4.62,9.55,4.81,1.25.06,2.01-1.03,2.13-2.13.82-7.1,1.44-14.22,1.94-21.35,4.69,2.26,9.45,4.38,14.19,6.55,3.2,8,6.42,15.98,10.02,23.79,4.85,10.5,10.04,20.91,14.67,31.46,4.25,9.67,8.88,19.19,12.95,28.97.04.22.1.44.21.67.31.61.58,1.24.84,1.87.15.36.28.73.43,1.09,1.02,2.81,1.64,5.77,2.22,8.71.86,4.42,1.82,8.82,2.56,13.27.72,4.3,1.11,8.63,1.7,12.95.12.88.26,1.79.4,2.7.01,1,.04,2,.03,3-.01.68-.03,1.36-.08,2.04-.02.27-.13.63-.1.91v.09c-.04.16-.07.32-.09.48-.74,2.9-1,6.43,1.68,7.87,2.87,1.54,5.39-.73,6.68-3.18,1.44-2.72,2.23-5.82,2.75-8.84.02-.14.04-.27.06-.41.71,1.23,1.37,2.49,2.02,3.73,1.4,2.71,2.98,5.31,4.37,8.02,2.94,5.76,4.93,11.83,6.22,18.15,1.36,6.69,2.26,13.44,3.82,20.08.84,3.63,1.74,7.24,2.59,10.86.01,11.07.3,22.11-.46,33.17-.71,10.34-1.64,20.75-4.29,30.8-2.67,10.12-7.91,19.07-12.62,28.33-4.83,9.53-8.96,19.43-14.27,28.7-1.98,3.46-4.1,6.79-5.62,10.49-1.12,2.74-2.31,6.44-1.25,9.41,0,.04,0,.07-.01.1,0,.38.1.74.29,1.07,0,0,0,.01.01.01v.04c.1.36.29.68.55.94.18.23.38.45.58.66.12.16.25.32.38.45.22.2.45.38.7.54.16.11.35.2.55.27.25.15.52.27.8.37,1.37,1.1,3.03,1.95,4.44,2.62,3.87,1.83,7.79,1.6,11.63-.2,3.65-1.71,6.87-4.44,10.08-6.83,3.82-2.85,7.46-5.92,10.98-9.13,1.85-1.69,3.81-3.23,5.73-4.84.93-.77,1.87-1.55,2.72-2.41.24-.24.47-.49.7-.74.24,1.7.15,3.5-.39,5.51-2.32,8.56-6.37,16.42-9.83,24.42-3.86,8.96-9.42,17.31-17.19,23.84-6.23,5.23-11.21,11.79-17.8,16.71-6.81,5.08-13.12,10.8-19.77,16.1-14.66,11.67-28.95,23.82-43.24,35.95-3,2.55-5.27,5.95-7.99,8.84-6.88,7.32-13.37,14.99-19.11,23.22-4.2,6.02-6.7,13.02-10.72,19.23-3.88,6-8.95,10.72-14.27,15.15-7.98,6.65-15.91,13.58-24.77,18.87-6.58,3.93-12.14,9.02-18.39,13.27-7.06,4.81-13.38,10.76-19.83,16.44-13.19,11.63-26.27,23.43-38.21,36.34-6.81,7.37-14.01,14.51-19.18,23.28-.56.32-1.25.55-1.13,1.42-.19.25-.39.51-.58.77.4,0,.81-.02,1.22-.02l1.95-1.14c11.01-4.17,22.68-7.02,33.11-12.13,13.23-6.49,27.34-11.04,39.9-19.13,14.1-9.08,29.38-16.3,43.48-25.37,15.15-9.74,28.75-21.68,42.52-33.32,10.25-8.66,18.5-19.32,28.45-28.13,7.88-6.98,14.72-14.82,21.34-22.73,6.53-7.8,12.68-16.03,19.02-24.04,10.13-12.83,17.65-27.26,26.46-40.89,7.97-12.34,14.95-25.25,21.25-38.39,4.25-8.86,8.14-18.08,11.49-27.48,2.54-7.15,5.23-14.37,8.23-21.42,3.26-7.65,4.56-16.11,7.16-24.07,2-6.13,3.26-12.45,5.02-18.63,1.83-6.39,3.13-12.99,4.56-19.51,1.05-2.61,1.8-5.36,2.48-8.02.64-2.51,1.25-5.01,2.06-7.47,1.32-4.02,2.89-7.96,3.85-12.09,2.04-8.68,2.16-17.72,2.48-26.58.32-8.93,1.03-17.83,1.25-26.76.23-8.93.19-17.87-.13-26.81-.32-8.88-.93-17.75-1.85-26.59-.85-8.15-1.69-16.31-2.81-24.42-.57-4.1-1.25-8.19-2.13-12.23-.82-3.7-2.08-7.26-2.99-10.92-.09-.39-.17-.78-.27-1.17-.87-3.97-1.16-8.05-1.97-12.03-.78-3.85-2.25-7.5-3.64-11.16-.02-.11-.04-.23-.06-.34-.96-5.29-3.18-10.34-4.74-15.53-1.46-4.87-2.44-9.92-4.27-14.64-1.85-4.76-2.52-9.85-4.41-14.52-3.32-8.18-5.32-16.87-8.86-24.87-2.95-6.69-5.18-13.66-8.35-20.29-2.58-5.38-4.15-11.3-7.1-16.6-6.35-11.38-13.15-22.53-18.89-34.21s-12.86-22.49-19.52-33.6c-7.33-12.22-16.75-22.94-24.91-34.56-11.11-15.82-25.11-29.03-38.36-42.85-8.18-8.53-17.07-16.53-26.42-23.92-8.52-6.72-16.56-14.04-25.01-20.85ZM796.18,191.86c-.05-.1-.07-.23-.15-.29-.05-.03-.12-.03-.2-.02h-.09c-.05.1-.11.2-.16.3.2,0,.4,0,.6.01Z"/>
      <path class="cls-2" d="M343.34,1067.98c12.89,7.19,26.73,12.29,40.09,18.44,11.06,5.09,22.39,9.37,33.85,13.36,3.87,1.34,9.06,3.87,11.6.6,2.41-3.1-1.45-7.4-3.74-10.58-17.42-24.19-38.18-45.28-60.64-64.78-9.05-7.86-18.04-15.8-27.73-22.9-3.74-2.74-7.82-4.79-11.94-6.81-3.96-2.72-8.19-5.13-11.85-8.22-30.15-25.4-56.6-53.91-74.2-89.7-12.6-25.63-20.02-52.43-18.42-81.29.61-11.08,3.01-21.85,7.79-31.72,13.99-28.89,32.64-54.27,58.35-74.01,4.31-3.3,8.61-6.52,14.88-7.94-3.66,8.32-6.2,16.14-7.97,24.23-4.14,19.05-4.91,38.27-3.27,57.63,3.1,36.45,14.5,69.77,37.76,98.45,8.5,10.48,17.06,21.04,28.8,28.16,11.26,6.81,22.99,12.79,34.99,18.21.17.08.33.15.5.23.33.16.66.32,1,.46.17.08.34.15.51.21.34.13.68.24,1.02.32.48.11.96.15,1.46.1.07,0,.14-.01.21-.03.29-.03.59-.11.9-.23,0,.02.01.03.01.05.03.01.05.03.08.04v.09c0,.2.02.36.1.44.02.03.06.04.1.04.1,0,.25-.08.47-.26-.22-.11-.44-.2-.66-.31v-.12s-.07.03-.1.03c-.03-.14-.06-.28-.11-.41-.03-.13-.08-.25-.14-.37-.15-.35-.35-.64-.59-.9-.09-.1-.18-.19-.28-.27-.17-.17-.36-.31-.55-.44,0,0,0-.01-.02-.01-.59-.41-1.27-.73-1.9-1.1-.21-.12-.41-.24-.61-.38-7.09-4.98-14.26-9.78-19.55-16.9-10.28-13.82-16.89-29.35-21.3-45.83-6.46-24.13-8.67-48.79-8.25-73.73.57-33.3,6.13-65.71,19.25-96.36,21.69-50.71,51.49-95.84,94.07-131.73,14.16-11.93,28.54-23.55,45.47-31.44,4.42-2.06,8.95-4.03,13.91-5.1.31,2.64-1.44,3.42-2.54,4.52-3.8,3.77-7.26,7.8-9.99,12.41-11.16,18.83-20.71,38.41-27.15,59.38-8.88,28.92-11.59,58.32-6.58,88.33,5.17,30.97,19.92,56.11,44.69,75.48,15.9,12.44,35.08,19.2,51.63,30.59,9.36,6.44,18.56,12.78,26.21,21.25,8.91,9.88,12.65,20.87,8.54,34.04-1.09,3.47-2.53,6.75-3.81,10.12-8.05,21.17-21.48,38.22-39.06,52.23-3.43,2.73-7.45,4.87-9.93,8.86,1.82.93,2.99-.31,4.28-.84,4.34-1.78,7.63-5.35,11.75-7.35,13.46-6.53,25.58-15.29,38.69-22.44,24.73-13.49,41.89-34.58,55.42-58.88,4.86-8.73,9.5-17.77,16.75-24.75,12.06-11.6,25.82-20.8,41.55-26.88,17.42-6.73,35.17-8.37,53.38-3.85,1.61.4,3.36.67,3.75,2.72.36,1.92-.78,3.16-2.14,4.21-1.46,1.11-3.03,2.06-4.48,3.19-3.3,2.56-6.34,5.38-8.68,8.89-2.43,3.64-1.72,7.63-.12,10.96,1.31,2.75,4.78,1.29,7.36,1.25,3.21-.06,6.2-1.03,9.25-1.94,13.1-3.89,26.4-5.42,39.93-2.61,7.1,1.48,8.46,4.33,4.76,10.53-3.93,6.58-8.56,12.51-15.57,16.45-5.95,3.34-11.47,7.48-17.02,11.5-8.71,6.32-17.35,12.75-25.88,19.29-10.96,8.4-11.41,17.33-1.27,25.09.69.53,1.44,1.06,2.23,1.58,1.24.82,2.6,1.5,3.99,2.05,13.63,5.46,27.8,7.87,42.45,7.27,6.25-.25,6.85.22,4.49,6.16-3.25,8.18-8.86,14.88-14.77,21.19-5.12,5.48-9.55,11.41-13.14,17.91-5.5,9.95,1.39,21.46,12.86,21.82,7.21.23,14.28-.7,21.18-2.92,1.48-.48,3.59-2.27,4.02,1.17-9.4,8.31-19.52,15.71-29.59,23.17-36.35,26.95-70.46,56.3-98.55,92.08-4.41,5.62-8.95,11.25-11.4,18.09-1.86,5.17-1.28,5.73,4.03,5.5,5.9-.25,11.55-1.56,17.01-3.7,13.64-5.32,27.43-10.29,40.86-16.09,23.87-10.3,46.9-22.27,69.11-35.87,37.55-22.99,69.63-52.2,98.99-84.78,27.04-30.01,49.69-63.01,68.41-98.64,16.36-31.15,29.8-63.51,38.16-97.92,3.83-15.81,7.51-31.6,10.4-47.61,5.8-32.15,9.76-64.42,8.03-97.18-.35-6.5-1.3-12.91-2.07-19.36-.58-4.9.1-9.96-.53-14.85-3.97-30.62-10.14-60.78-18.99-90.39-6.58-22.03-14.57-43.53-23.6-64.65-8.77-20.51-18.77-40.39-30.36-59.51-10.46-17.26-20.58-34.73-32.68-50.93-11.47-15.35-23.97-29.78-37.04-43.82-23.93-25.71-51.33-47.39-78.52-69.34.16-.15.25-.24.29-.29-.04.02-.16.11-.33.25-5.14-3.92-9.99-8.25-15.83-11.22-1.28-.65-3.16-1.76-2.43-3.3.92-1.95,2.64-.2,3.85.24,36.59,13.4,70.95,31.18,102.76,53.67,27.01,19.11,50.87,41.74,73,66.33,21.69,24.1,40.41,50.35,57.11,78,13.51,22.36,24.98,45.84,34.48,70.24,11.61,29.85,20.89,60.4,27.4,91.74,2.87,13.85,4.55,27.93,6.67,41.92,1.41,9.27,1.68,18.56,2.36,27.85.87,11.76,3.34,23.27,3.64,35.2.63,25.4-3,50.35-6.03,75.36-2.99,24.64-7.37,49.07-14.08,73.03-5.34,19.09-12.16,37.63-19.29,56.11-8.98,23.24-20.74,45.01-32.63,66.78-12.09,22.16-26.76,42.55-42.18,62.41-10.32,13.29-21.41,25.96-33.05,38.1-14.85,15.48-30.78,29.78-47.39,43.38-20.66,16.93-42.88,31.59-65.63,45.39-16.62,10.07-33.96,19.02-51.34,27.76-28.6,14.38-58.57,25.52-88.79,35.98-12.54,4.33-25.23,8.24-37.83,12.39-15.36,5.06-24,3.29-31.29-14.8-5.85-14.5-6.7-29.57-4.73-45.1,3.32-26.21,14.65-48.85,29.23-70.32,19.8-29.17,43.45-54.7,70.75-76.86-.5.98-.81,2.02-.84,3.16-.05,2.74,4.21,2.74,4.27,0,.02-1.24,1.09-2.36,1.9-3.2,1.12-1.18,2.38-2.24,3.64-3.27,3.15-2.61,6.43-5.04,9.72-7.46,3.34-2.44,6.67-4.9,9.94-7.43,3.12-2.42,6.02-5.17,9.25-7.43,2.78-1.94,6.31-3.76,7.74-7.03.46-1.06.31-2.29-.77-2.92-.9-.53-2.45-.29-2.91.77-.03.06-.07.11-.1.17.61-2.54.61-5.39-.29-6.77-1.8-2.78-4.58-1.83-6.78-1.03-5.61,2.05-11.15,4.35-16.59,6.83-21.96,10.03-43.39,21.09-63.51,34.46-31.18,20.73-60.16,44.13-84.6,72.66-15.14,17.67-27.47,37.24-36.23,58.9-3.82,9.44-6.2,19.36-7.8,29.35-.96,6.02-4.83,5.89-8.91,6.41-4.23.53-5.01-2.6-5.48-5.63-3.41-22.06-11.83-42.15-23.56-61-14.54-23.37-32.68-43.59-53.01-62.07-22.3-20.27-46.94-37.24-72.71-52.59-11.39-6.78-23.75-11.93-35.43-18.27-8.2-4.45-16.66-8.19-25.26-11.72-1.84-.75-3.72-1.51-5.66-1.96-2.85-.67-6.02-.75-7.64,2.03-1.63,2.8.52,4.96,2.55,6.85,11.12,10.33,23.53,19.03,35.55,28.24,12.29,9.42,25.41,17.88,36.57,28.62,28.61,27.52,54.7,57.18,69.54,94.71,9.72,24.56,11.8,50.13,4.38,75.85-1.96,6.81-4.73,13.57-11.87,17.16-1.38.69-2.61,1.17-4.13,1.32-9.6.99-18.23-1.48-27.02-5.46-10.07-4.56-20.88-7.52-31.43-10.98-15.84-5.19-31.25-11.47-46.49-18.17-27.48-12.07-53.95-26.13-79.93-41.13-20.64-11.91-40.25-25.4-59.12-39.89-28.2-21.66-53.53-46.42-76.79-73.31-19.21-22.21-36.12-46.13-50.94-71.4-14.72-25.09-27.74-51.06-37.76-78.52-14.28-39.11-24.17-79.19-29.7-120.46-4.69-34.96-6.91-69.95-4.49-105.14,2.41-35.12,7.1-70,15.72-104.12,9.02-35.75,22.47-69.97,39-103.02,15.24-30.47,33.31-59.04,54.61-85.58,23.73-29.56,49.76-56.79,79.6-80.4,22.23-17.59,46.38-31.88,71.66-44.3,15.34-7.53,31.4-13.62,47.16-20.29,1.47-.61,3.03-1.45,5.13-.76-.36,2.64-2.17,4.47-4.05,5.69-17.72,11.5-33.76,25.15-50.15,38.37-28.86,23.27-55.08,49.21-78.59,77.86-19.85,24.18-35.78,50.9-49.95,78.72-7.59,14.9-14.52,30.15-20.74,45.63-9.09,22.6-17.45,45.48-23.65,69.15-5.16,19.71-9.19,39.63-11.95,59.71-2.52,18.39-5.2,36.85-4.25,55.65.86,16.94-.39,33.99.52,50.93.7,13.05,2.88,26.05,4.86,39.03,3.42,22.45,8.98,44.35,15.42,66.07,4.36,14.7,9.92,28.96,16.03,43,2.73,6.28,4.78,12.8,7.83,18.98,14.73,29.82,31.15,58.6,50.83,85.48,5.52,7.54,11.73,14.49,17.57,21.76,16.33,20.27,34.68,38.45,54.23,55.69,28.97,25.54,61.65,45.2,95.12,63.86Z"/>
    </g>
  </g>
</svg>