<?xml version="1.0" encoding="UTF-8"?>
<svg id="frontron" data-name="frontron" xmlns="http://www.w3.org/2000/svg" viewBox="0 0 1115.09 1205.31">
  <defs>
    <style>
      .cls-1 {
        fill: #3063be;
      }

      .cls-1, .cls-2, .cls-3, .cls-4, .cls-5 {
        stroke-width: 0px;
      }

      .cls-2 {
        fill: #000;
      }

      .cls-3 {
        fill: #fdfdfd;
      }

      .cls-4 {
        fill: #fff;
      }

      .cls-5 {
        fill: #060708;
      }
    </style>
  </defs>
  <g id="frontron">
    <g>
      <path class="cls-5" d="M1114.62,626.2l.02-.06c-.19-4.01-.36-8.01-.47-12.02-.63-5.94-1.4-11.87-2.25-17.78-1.23-8.48-2.99-16.94-3.84-25.47-.17-.97-.35-1.95-.54-2.92-1.24-5.36-2.48-10.72-3.51-16.13-1.47-7.73-2.74-15.49-4.37-23.2-1.54-7.3-3.2-14.58-4.84-21.86-.35-1.19-.72-2.37-1.01-3.58-2.67-8.35-5.65-16.62-8.56-24.89-3.71-10.58-8.27-20.85-12.07-31.4-3.22-8.94-7.45-17.45-11.36-26.02-5.69-12.46-12.74-24.36-19.87-36.1-7.43-12.22-15.19-24.29-23.61-35.84-12.16-16.67-24.61-33.2-39-48.03-15.6-16.07-31.1-32.31-48.44-46.58-7.25-5.97-14.48-12.02-22.16-17.4-9.45-6.63-19.2-12.86-29.11-18.77-7.01-4.18-13.56-9.12-21.26-12.25-2.8-1.14-5.72-2.3-8.5-3.64-8.43-4.07-16.82-8.22-25.35-12.07-7.83-3.54-16.3-5.95-23.57-10.37-5.4-3.29-10.45-2.47-15.78-2.26-2.47.1-4.14,2.03-4.99,4.39-2.29,6.33-.18,12.96,5.26,16.75,12.74,8.85,25.25,18.04,37.33,27.77,8.45,6.81,16.49,14.13,25,20.85,9.36,7.39,18.24,15.39,26.42,23.92,13.26,13.82,27.25,27.03,38.36,42.85,8.16,11.62,17.58,22.34,24.91,34.56,6.66,11.11,13.78,21.92,19.52,33.61,5.74,11.68,12.54,22.83,18.89,34.21,1.87,3.35,3.19,6.95,4.55,10.51.26.45.53.89.79,1.34,1.19,2.02,2.13,4.13,3.17,6.22.92,1.84,1.88,3.67,2.7,5.56.82,1.88,1.47,3.82,2.18,5.74,1.51,4.08,3.11,8.12,4.58,12.21.09.25.17.49.26.74,2.87,6.93,5.24,14.04,7.41,21.22,2.25,7.43,4.79,14.77,7.09,22.18,2.32,7.48,3.83,15.13,5.73,22.72.92,3.69,2.11,7.3,3.03,11,.2.82.39,1.64.58,2.46.52,1.84.94,3.7,1.3,5.61,1.05,5.71,1.95,11.45,3.06,17.15,1.12,5.75,2.28,11.5,3.23,17.28.82,4.97,1.63,10.03,1.92,15.07.07,1.3.09,2.63.02,3.96.69,5.74.56,11.55.41,17.32-.09,3.45-.19,6.89-.12,10.34.02.89.01,1.78-.01,2.66.47,14.44.65,28.93-1.41,43.17-.05.37-.1.73-.15,1.1,0,.67.01,1.35.01,2.02,0,2.05-.07,4.09-.25,6.12.04,1.59-.04,3.15-.14,4.54-.29,4.09-1.02,8.13-1.53,12.2-.85,6.75-1.84,13.49-3.12,20.18-.84,4.41-1.91,8.76-3.46,12.97-.36,1.43-.73,2.87-1.1,4.3-.67,2.6-1.21,5.27-2.05,7.82-.55,2.3-1.12,4.6-1.77,6.86-1.76,6.18-3.02,12.5-5.02,18.63-2.6,7.96-3.9,16.42-7.16,24.07-3.01,7.05-5.69,14.28-8.24,21.43-3.35,9.4-7.24,18.62-11.48,27.48-6.3,13.14-13.28,26.05-21.25,38.39-8.81,13.64-16.33,28.07-26.46,40.89-6.33,8.01-12.48,16.25-19.01,24.05-6.62,7.91-13.47,15.75-21.35,22.73-9.95,8.81-18.2,19.47-28.45,28.13-13.77,11.64-27.37,23.57-42.52,33.32-14.1,9.07-29.38,16.29-43.48,25.36-12.56,8.09-26.68,12.64-39.91,19.13-3.41,1.67-6.95,3.09-10.56,4.4-1.48.82-3.09,1.44-4.69,2.03-.9.4-1.8.79-2.72,1.14-1.05.4-2.1.82-3.14,1.24-.66.36-1.33.71-2.03,1.02-1.83.82-3.67,1.61-5.5,2.43-.03.02-.06.03-.09.05-.07.04-.13.05-.19.07-.5.22-1,.44-1.5.67-1.06.5-2.09,1.06-3.15,1.57-.17.08-.34.15-.51.22-.85.45-1.83.89-2.75.73-1.32-.23-1.4-1.55-.79-2.52,1.04-1.66,2.23-3.22,3.36-4.81,1.18-1.64,2.22-3.36,3.56-4.88.29-.32.6-.62.9-.93.38-.58.79-1.14,1.26-1.65,1.8-2.52,4.39-4.58,6.56-6.68,1.62-1.58,3.17-3.27,4.97-4.65.1-.08.21-.15.32-.23.44-.47.87-.93,1.31-1.4,11.94-12.91,25.02-24.72,38.21-36.35,6.44-5.68,12.77-11.63,19.83-16.44,6.24-4.25,11.8-9.34,18.38-13.27,8.86-5.29,16.79-12.22,24.77-18.87,5.32-4.43,10.39-9.15,14.28-15.16,4.01-6.2,6.52-13.21,10.72-19.22,5.75-8.23,12.23-15.9,19.11-23.22,2.72-2.89,4.99-6.29,7.99-8.84,14.29-12.13,28.58-24.28,43.24-35.95,6.65-5.3,12.96-11.02,19.77-16.1,6.59-4.91,15.44-11.92,19.96-18.68,7-10.49,5.81-7.47,9.33-15.74.53-1.59.31-3.18.01-4.84-.4-1.58-.83-3.14-1.57-4.63-.73-1.48-1.51-2.56-3.04-3.26-1.35-.62-2.81-.95-4.3-.95-.2.04-.41.08-.61.12-.17.03-.33.08-.5.12-.74.52-1.4.97-1.68,1.12-2.99,2.45-10.98,3-15.09,1.3-4.57-1.88-6.68-7.55-4.55-11.96,4.2-8.7,8.84-17.2,13.15-25.85,4.79-9.61,9.01-18.57,12.63-28.62,1.95-5.41,3.02-7.12,4.75-12.63.17-.76,1.92-5.39,2.1-6.15.84-3.61.99-3.28,1.93-6.87.32-1.21.41-3.15.67-4.38.03-.5.45-2.78.48-3.28.09-1.27.48-3.66.63-4.92.14-1.15.34-3.29.52-4.43,0-3.07.6-8.85.73-11.93.41-10.21-.65-15.38-2.31-24.63-1.69-9.39-2.12-13.74-4.55-23.07-1.36-5.25-2.18-13.8-3.02-19.34-1.07-7.05-1.6-6.86-1.68-13.92-.01-.06-.02-.11-.03-.17-.31-.87-.68-1.74-1.23-2.46-1.7-2.19-4.81-1.33-6.76-.03-1.82,1.22-2.32,3.06-3.31,5.13-.71,1.72-.26.62-1,2.32-1.21,2.8-1.45,3.1-3.07,5.69-3.46,5.55-3.31-3.9-3.2-4.81.6-4.73.35-8.66.19-12.63-.16-4.04-.93-7.9-1.74-11.85-.83-4-1.65-8-2.54-11.99-.81-3.62-3.36-11.76-5.56-17.65-4.76-13.12-7.84-18.77-13.42-31.47-4.63-10.56-9.82-20.96-14.67-31.46-3.6-7.8-6.56-14.59-9.75-22.58-.08-.1-1.84-2.8-1.92-2.9-1.93-2.34-2.67-3.18-5.28-4.77-2.41-1.46-5.66-2.59-8.47-1.68-3.47,1.13-4.15,5.38-4.5,8.54-.3,2.68.22,4.3.55,6.91.24.52.34,2.03.54,2.53.35.87.6,1.77.92,2.64.3.81.64,1.59.89,2.41.19.63.52,1.21.55,1.88.05,1.04-.65,1.9-1.71,1.95-.25.01-.52-.03-.79-.1-.17,0-.34-.03-.49-.05-.09-.02-.18-.04-.26-.07-.3-.11-.61-.24-.88-.42s-.54-.38-.78-.6c-.06-.05-.11-.12-.16-.17-.99-.61-1.71-1.47-2.32-2.49-.96-1.61-1.74-3.33-2.62-4.98-.86-1.62-1.97-3.13-2.61-4.86v-.02c-4.14-7.61-5.52-16.21-6.79-24.73-1.18-7.94.11-15.75,1.34-23.57.17-1.4.33-2.8.48-4.2v-.39c0-.68.07-1.37.1-2.05,0-.41-.02-.83-.03-1.24-.2-8.51-.32-17.01-.54-25.52-.08-3.25-.19-6.5-.36-9.74-.16-1.15-.34-2.29-.51-3.43-.56-2.2-1.21-4.37-1.75-6.57-.62-1.72-.32-2.01-2.73-8.57-.05-.11-.11-.22-.16-.33-.13-.28-.27-.57-.39-.86-.04-.07-.08-.14-.11-.22-.06-.13-.14-.26-.21-.38-1.87-2.05-4.31-3.94-7.25-3.65-2.99.29-5.42,2.6-7.02,4.99-.78,1.17-1.45,2.42-2.03,3.71-.11.44-.24.87-.36,1.3-.13.64-.27,1.27-.37,1.9-.08.52-.17,1.04-.25,1.56-.1,2.62-.34,4.31-.58,8.57-.63,11.03-2.61,21.99-4.31,32.93-1.95,12.54-5.06,24.94-5.3,37.67-.29,15.22-.21,30.36,2.55,45.56,1.76,9.71,3.7,19.28,8.96,27.27,6.05,9.19,13.75,17.38,21.22,25.55,6.33,6.92,9.65,15.45,11.76,23.93,1.9,7.62,1.81,16.06.46,24.16-.28,1.66-1.2,3.06-2.34,3.6-1.27.6-2.3-1.09-3.08-2.08-2.07-2.62-2.87-3.58-4.57-6.42-3.28-5.48-1.91-3.75-5.89-9.91-3.19-4.93-4.99-6.12-10.36-4.47-4.79,1.47-6.41,5.09-6.45,10.02-.04,5.99-.02,2.79-.33,9.78-.41,9.13-.6,13.78-3.39,23.21-1.39,4.71-2.93,11.11-4.21,15.8-1.83,6.7-5.48,11.27-8.87,17.14-7.85,13.59-18.13,25.44-32.06,32.72-3.82,1.99-10.2,5.45-14.44,3.37-1.84-1.92,1.37-4.73,1.87-5.56,5.6-9.22,9.19-21.21,11.14-31.78,3.75-20.3,1.09-36.1-2.9-55.89-.4-1.98-.76-3.99-1.15-6.01-1.72-5.25-3.41-10.51-5.08-15.78-.71-1.59-1.18-3.27-1.57-4.98-.95-3.04-2.59-6.78-3.73-9.8-.46-.82-.84-1.44-1.48-2.08-1.06-.99-2.18-1.94-3.33-2.82-1.85-.52-3.72-.87-5.7-.73-1.3.09-2.57.35-3.79.74-2.06,1.64-3.83,3.9-4.85,6.38-.37,1.64-.4,3.31-.41,4.98,0,.03.02.05.02.07,0,1.14.51,3.07.52,4.21.93,4.54.81,9.54,1.01,14.32.39,9.57.45,7.91-.81,19.06-.23,2.04-1.46,13.46-1.66,15.39-.75,7.38-4,15.37-6.89,22.41-2.76,6.72-5.28,14.86-8.01,21.61-6.04,14.91-13.51,27.71-26.09,38.16-7.06,5.86-15.79,11.15-24.34,14.83-6.05,2.61-10.82,4.07-17.74,4.99-3.75.49-10.06,1.33-14.27.33-1.17-.28-7.26-2.08-8.69-2.56-7.07-2.36-10.8-5.1-16.03-9.49-5.9-4.94-9.02-11.09-12.36-17.89-6.39-13.02-9.8-26.84-7.86-40.91,2.58-18.74,10.04-35.96,21.12-51.58,7.74-10.9,16.12-21.4,22.49-33.24,5.6-10.42,10.32-21.15,9.88-33.34-.21-5.83-1.45-11.52-3.86-16.85-1.24-2.75-1.67-5.43-.46-8.16,3.35-7.56,8.93-13.69,13.37-20.55.5-.76,1.02-1.38,1.58-1.88,1.36-1.93,4.51-2.84,6.59-3.02,2.01-.17,4.1-.33,6.11-.11,2.01.22,3.44.91,4.54,2.65,1.27,2,2.42,4.04,4.4,5.44.49.35,1.02.64,1.57.9.08.03.17.06.25.09.3.05.6.1.9.14,1.53.24,3.13.34,4.66.06,2.91-.55,5.21-2.87,7.04-5.07.18-.22.34-.45.51-.68.2-.37.41-.73.61-1.1.25-.66.5-1.33.75-1.98.08-.21.15-.41.22-.62.02-.07.04-.15.06-.22.92-3.54,1.51-7.18,2.15-10.78.69-3.86,1.33-7.73,1.93-11.61.55-3.61,1.08-7.24,1.5-10.88.19-3.63.33-7.26.53-10.9.45-8.37-.41-16.71-.86-25.08-.18-1.22-.32-2.43-.43-3.67-.15-1.61-.34-3.22-.63-4.81-.22-1.19-.42-2.36-.5-3.56-.01-.07-.02-.14-.03-.22-.08-.52-.14-1.04-.21-1.56-.23-1.19-.46-2.38-.65-3.58-.44-2.76-.78-5.53-1.25-8.28-.07-.42-.14-.85-.22-1.28-.66-2.74-1.41-5.46-2.34-8.15-.87-2.5-1.88-4.94-2.59-7.49-.19-.68-.38-1.36-.58-2.04-.43-1.04-.85-2.08-1.29-3.11-1.25-2.93-2.32-6.29-4.31-8.81-.95-1.2-2.17-2.12-3.72-2.28-1.66-.18-3.38.1-4.7,1.17-3.35,2.69-3.71,7.66-4.65,11.53-.03.11-.06.22-.09.34-.02.14-.05.27-.07.41-.13,1.02-.31,2-.55,3s-.41,2.01-.62,3.02c-.63,4.07-1.72,8.07-2.89,12.01-3.21,10.81-5.95,22.12-11.63,31.95-2.63,4.55-5.75,8.79-9.07,12.85-1.51,1.85-3.02,3.71-4.73,5.38-1.52,1.48-3.38,2.56-5.51,3.02-.41.09-.76-.36-.93-.63-.35-.77-.24-.82-.05-1.5.26-.94.68-1.49,1.16-2.38.57-1.06,1-1.59,1.56-2.6.25-.45.86-1.46,1.06-1.9,12.3-23.5,21.8-46.11,26.13-72.79.03-.54.05-1.08.05-1.63v-1.42s.02-.05.02-.08c.07-3.48.14-6.96.21-10.45.12-5.86.57-11.79.48-17.68,0-.07-.01-.14-.02-.22-.19-2.37-.26-4.74-.53-7.1-.55-4.7-1.61-9.32-2-14.03-.43-2.08-.65-4.2-.81-6.34-.17-1.31-.32-2.63-.46-3.95-.24-2.37-.63-4.72-1.07-7.06-.56-2.11-1.13-4.22-1.65-6.33-.74-2.99-1.49-5.98-2.02-9.02-.02-.09-.05-.18-.07-.27-.4-1.79-.76-3.59-1.11-5.4-.35-1.76-.7-3.52-1.1-5.27-.91-2.46-1.6-5.05-2.26-7.56-.87-3.3-1.59-6.64-2.25-9.98-1.17-5.91-2.18-11.84-3.44-17.73-.06-.19-.11-.38-.18-.56-.04-.1-.05-.19-.05-.28-1-3.42-1.71-6.94-2.76-10.34-2.42-7.85-5.62-15.36-8.6-22.97-3.08-7.85-7.32-15.14-11.13-22.64-5.3-10.43-11.04-20.69-18.17-29.85-14.92-19.17-30.8-37.58-48.8-54-6.45-5.89-13.23-11.43-19.92-17.05-5.57-4.67-11.24-9.24-16.89-13.82-6.01-4.88-11.71-10.24-18.14-14.49-8.29-5.48-15.87-11.85-23.91-17.64-9.46-6.81-18.55-14.13-28.08-20.83-2.18-1.53-4.34-3.07-6.51-4.6-.09-.04-.18-.07-.27-.11C462.68,1.13,460,.22,457.09,0h-.07c-1.3.03-2.59.08-3.89.14-1.05.27-2.07.62-3.01,1.13-1.41.77-2.39,1.95-3.11,3.37-.23.45-.47.89-.7,1.34-.41,3.02.6,6.23,1.89,9.02.62.69,1.24,1.39,1.84,2.1,1.26,1.49,2.51,3,3.85,4.44.47.5.93,1.01,1.37,1.53.1.07.2.16.24.25.04.09.11.17.16.26.21.26.43.51.62.78.14.13.28.26.4.41,0,0,.02.02.02.03,4.51,3.95,8.91,8.02,13.29,12.09,8.19,7.6,15.73,15.91,23.3,24.14,6.04,6.57,11.88,13.34,17.49,20.28,7.37,9.12,14.47,18.44,21.59,27.76,5.9,7.73,11.45,15.98,15.57,24.53,5.06,10.5,10.46,20.95,14.81,31.9,4.7,11.83,10.56,23.24,14.27,35.45.91,3,2.4,6.07,3.04,9.04.45,1.23.72,2.5.89,3.78.78,2.95,1.19,6.03,1.7,9,.34,1.96.54,3.94.9,5.89.08.45.17.89.25,1.33.1.53.18,1.05.26,1.58.03.11.06.21.09.32.03.13.05.26.08.39.2.63.4,1.27.54,1.92.32,1.44.6,2.89.87,4.35.54,2.94,1.12,5.88,1.48,8.84.37,2.98.84,5.98.91,8.98v.81c.06.75.09,1.5.1,2.25.72,6.66-.51,13.48-1.4,20.07-.54,4.02-1.13,8.04-1.76,12.05-.35,2.24-.67,4.5-1.07,6.74-.69,6.14-2.57,12.18-3.98,18.12-1.81,7.65-4.52,15.31-7.57,22.79-5.88,14.41-13.16,27.92-22.04,40.58-1.27,1.81-2.66,3.53-4.09,5.21-.18.27-.35.55-.54.82-.32.53-.66,1.04-1.01,1.55-.07.1-.14.18-.23.24-.63.96-1.42,1.84-2.09,2.67-1.39,1.71-2.89,3.32-4.29,5.02-1.35,1.63-2.71,3.26-4.27,4.7-.63.58-1.29,1.11-1.98,1.61-1.4,1.6-2.85,3.16-4.51,4.49-.96.77-1.89,1.74-2.98,2.37-.92.76-1.9,1.44-2.9,2.08-1.19.76-4.38,2.6-4.86.07-.34-1.82,1.3-3.7,2.44-4.87.91-.93,1.97-1.69,2.93-2.57.02-.02.03-.03.05-.05.47-.54.96-1.06,1.49-1.52.65-.57,1.36-1.09,2.03-1.65.81-.88,1.63-1.74,2.48-2.58,14.75-14.68,22.25-32.85,23.91-53.14,1.53-18.69.59-37.55-4.28-55.75-3.12-11.64-5.35-23.49-8.79-35.04-1.69-5.67-5.99-8.82-11.47-8.13-4.7.59-8.55,4.94-8.55,10.1-.02,19.53-2.66,38.57-8.55,57.3-2.26,7.16-5.39,13.75-9,20.08-6.28,11-13.08,21.69-20.32,32.14-7.56,10.91-15.55,21.36-24.66,30.94-4.84,5.09-9.93,9.94-14.91,14.9-2,2.07-3.93,4.19-6.04,6.17-.58.62-1.17,1.23-1.75,1.86-6.4,6.94-13.24,13.28-20.73,18.91-.27.21-.54.41-.81.62-.3.23-.59.46-.89.7-1.29,1.07-2.57,2.16-3.81,3.29-.1.09-.21.15-.32.18-.5.4-1,.82-1.51,1.21-.49.38-.98.8-1.48,1.2-.02.02-.04.03-.06.05-3.5,2.72-7.09,5.35-10.76,7.83-3.74,2.53-7.75,4.59-11.52,7.05-2.34,1.53-4.71,3.03-7.17,4.36-6.99,4.47-14.21,8.6-21.52,12.56-3.58,2.24-7.24,4.35-10.87,6.52-3.11,1.86-6.12,3.87-9.2,5.78-.63.39-1.28.76-1.92,1.14-8.26,6.09-17.23,11.16-25.25,17.61-7.93,6.38-16.97,11.51-24.75,17.95-7.11,5.88-14.39,11.67-21.52,17.52-13.8,11.34-27.49,22.82-40.87,34.6-11.62,10.24-22.66,21.18-33.18,32.65-10.98,11.97-21.53,23.99-29.4,38.42-6.54,11.99-12.97,24.07-17.78,36.76-7.91,20.83-11.4,42.57-8.35,64.91,1.61,11.8,2.8,23.71,6.68,35.09,2.78,8.15,5.71,16.26,8.18,24.5,2.01,6.71,4.92,13.12,7.39,19.61,2.56,6.75,5.24,13.67,8.83,20.11,4.07,7.3,6.93,15.44,11.89,22.04,6.56,8.74,12.16,18.06,18.41,26.97,3.77,5.38,6.85,11.44,10.96,16.31,8.75,10.38,19.01,19.46,28.24,29.5,6.92,7.52,14.25,14.67,21.93,21.53,13.78,12.31,27.06,22.99,41.62,34.31.05.04.11.09.17.13h.02c.27.2.64.52.95.66.15.06.64.44.79.49l.18.1c1,.54,2.01,1.07,3.17,1.63,3.09,1.48,6.61,1.82,10.02,2.14,3.39.32,6.73.13,10.13-.02,1.52-.07,3.11-.2,4.63-.08.87.07,1.64.5,2.15,1.16.09.07.19.13.29.2,10.11,6.93,19.55,14.8,28.64,22.92,14.58,13.01,29.19,26.08,42,40.91,3.08,3.56,7.11,6.57,9.07,11.7-1.27-.18-1.95-.15-2.54-.39-10.76-4.33-21.71-8.28-32.17-13.23-5.43-2.57-11.2-4.36-16.4-7.44-13.3-7.85-26.88-15.16-40.06-23.28-11.46-7.06-23.13-13.7-34.01-21.71-17.46-12.85-33.82-26.86-49.24-42.12-20.89-20.67-39.32-43.25-56.22-67.26-9.2-13.07-17.01-26.86-24.71-40.77-5.24-9.47-10.35-19.02-15.24-28.68-2.78-5.49-5.27-11.16-7.41-16.92-1.69-4.55-3.43-9.07-5.13-13.61-1.5-3.99-3.62-7.7-4.9-11.75-2.61-8.24-4.73-16.65-7.71-24.75-2-5.44-3.74-11.09-4.95-16.57-2.27-10.26-5-20.45-7.18-30.73-2.05-9.64-3.6-19.51-5.25-29.12-2.1-12.22-3.23-24.97-3.47-37.4-.31-15.72-1.27-31.47.45-47.28.03-4.38.16-8.74.54-13.11.81-9.15,2.01-18.24,3.07-27.37.31-2.68.63-5.4,1.25-8.05.05-.65.12-1.31.18-1.96.09-1.66.31-3.31.68-4.93.18-1.04.38-2.07.61-3.1.43-1.91.97-3.79,1.65-5.61.22-1.76.74-3.48,1.3-5.16.3-.89.58-1.79.87-2.68,2.12-11.22,4.92-22.32,8.08-33.29,1.6-5.56,3.21-11.11,5.31-16.51.1-.26.22-.52.33-.77.19-.74.43-1.46.69-2.16,0-.06.02-.12.04-.18.17-.69.4-1.36.67-2.01.83-4.03,2.2-7.92,3.67-11.43,3.15-7.51,6.08-15.17,8.5-22.83,3.02-9.58,7.61-18.46,11.69-27.4,7.47-16.42,15.66-32.59,24.44-48.43,5.34-9.64,11.17-18.91,17.36-27.98,6.8-9.96,14.11-19.54,21.77-28.89,7.24-8.83,14.7-17.51,22.89-25.34,16.26-15.55,31.86-31.8,49.78-45.66,10.43-8.06,21-16.09,30.76-25,4.58-4.18,10.29-6.49,14.88-10.43,3.14-2.69,6.29-5.21,9.82-7.42.25-.16.47-.33.71-.5.16-.17.32-.34.47-.52.15-.19.31-.37.46-.56h.01s0-.02.02-.04c.05-.06.09-.13.14-.19.08-.11.15-.22.23-.33,1.87-5.26,2.17-11.55-2.14-15.46-3.33-3.02-8.11-3.98-12.46-3.19-1.32.24-2.64.59-3.95.99-10.62,5.31-21.9,9.21-32.47,14.6-7.59,3.87-15.93,5.77-23.46,9.92-12.69,6.99-25.46,13.85-37.39,22.03-7.61,5.21-15.16,10.57-22.45,16.3-7.78,6.12-16.24,11.46-23.39,18.32-12.29,11.79-24.15,24.03-36.23,36.04-8.23,8.19-15.32,17.35-22.59,26.35-9.97,12.34-19.83,24.77-28.69,37.96-5.4,8.04-10.7,16.13-15.22,24.74-2.29,4.37-4.08,9.05-6.81,13.12-6.19,9.21-10.7,19.29-15.8,29.07-2.72,5.21-4.45,10.87-6.84,16.15-4.44,9.79-8.39,19.78-11.73,29.91-2.88,8.75-6.87,17.06-9.37,25.91-2.41,8.54-5.3,17-6.97,25.69-1.52,7.91-3.61,15.67-4.72,23.74-1.16,8.37-3.02,16.64-4.25,25.01-.07.91-.26,1.8-.33,2.72-.1,1.16-.09,2.34-.15,3.51-.09,1.74-.22,3.49-.39,5.23,0,1.81-.16,3.61-.38,5.41.02,1.23-.1,2.46-.29,3.69,0,.31-.01.62-.03.93-.04,4.46-.16,8.91-.41,13.36-.29,4.97-.73,9.93-1.29,14.89-.16,4.22-.11,8.43-.2,12.65-.09,4.17-.47,8.31-.97,12.45-.5,4.16-1.07,8.31-1.36,12.49-.09,1.36-.14,2.72-.24,4.07.12,1.64.3,3.27.36,4.91.06,1.7.06,3.41.01,5.11.17,3.22.34,6.44.45,9.67.08,2.4.14,4.8.2,7.21.08.69.18,1.38.28,2.07v.04c.34,1.55.54,3.11.71,4.68.11.8.2,1.6.26,2.4.37,3.51.78,7.01,1.25,10.51.96,7.23,2.08,14.45,2.76,21.72.68,7.26,1.75,14.48,2.84,21.69.82,5.49,1.65,10.97,2.32,16.48,1.07,5.52,2.48,10.96,3.7,16.44.5,2.23.92,4.49,1.18,6.77.85,3.46,1.63,6.96,2.44,10.42,2.29,9.86,5.93,19.42,9.25,29.02,2.23,6.44,4.23,13.01,6.67,19.3.42,1.09.68,2.25.91,3.42.2.46.4.93.61,1.39.64,1.35,1.24,2.71,1.79,4.11.38.98.76,1.96,1.12,2.94,2.25,3.33,3.01,7.27,4.37,10.82,2.7,7.04,5.89,13.8,9.04,20.61,4.02,8.71,9.41,16.64,13.99,24.99,3.86,7.03,7.45,14.28,11.57,21.15,7.79,12.98,16.28,25.54,25.59,37.51,12.79,16.46,25.27,33.18,40.3,47.76,3.93,3.81,8.02,7.47,11.73,11.48,16,17.28,33.56,32.81,52.52,46.72,12.34,9.06,24.1,18.93,37.48,26.55,10.72,6.1,21.33,12.39,31.75,18.97,7.77,4.91,15.83,9.27,23.91,13.6,7.32,3.93,14.59,8.09,22.27,11.17,9.14,3.66,17.94,8.03,27.03,11.77,9.63,3.95,19.32,7.77,28.8,12.06,7.82,3.54,16.36,4.94,24.12,8.73,3.43,1.67,7.4,2.45,11.1,3.68,3.99,1.33,8.08,2.38,11.84,4.09,3.42,1.22,7.02,1.93,10.57,2.65,3.73.75,7.44,1.18,11.25,1.22,3.68.04,7.39.13,11.08-.06,1.29-.07,2.59-.18,3.88-.37.04-.02.08-.03.12-.05.78-.35,1.55-.72,2.3-1.11.35-.18.8-.37,1.21-.6,4.3-3.61,6.88-8.83,9.79-13.61,3.23-5.3,4.98-10.91,5.87-16.7,0-.15.01-.31.02-.46.21-4.65.63-9.28.78-13.93-.02-1.3-.06-2.59-.11-3.9-.28-7.15-.19-14.33-.06-21.49.25-14.24-4.13-27.15-9.32-40.3-8.14-20.63-21.05-38.1-34.32-55.24-12.07-15.59-26.58-29.15-41.06-42.6-5.36-4.97-11.18-9.31-17.06-13.58-2.27-1.65-4.28-3.41-6.31-6.33,7.78,1.37,13.23,5.86,19.03,9.36,4.74,2.86,9.42,5.87,14.15,8.78,15.57,9.56,30.55,19.92,44.31,32.08,13.76,12.15,27.35,24.3,38.91,38.74,6.92,8.64,14.37,16.9,19.95,26.45,5.19,8.89,10.33,18.02,13.8,27.65,3.89,10.8,7.64,21.79,9.56,33.24.41,2.43,1.51,4.67,2.55,6.96,4.41,9.69,21.92,7.98,28,1.93.02-.02.05-.07.07-.09.07-.09.14-.19.21-.28.1-.14.19-.3.27-.45.43-1.02.85-2.05,1.23-3.09,1.53-4.1,2.37-8.38,3.71-12.53,1.68-12,7.34-22.29,12.22-33.12,5.58-12.4,12.64-23.77,20.33-34.79,4.51-6.47,10.24-12.09,15.4-18.11,9.07-10.59,19.29-20.18,30.17-28.66,12.32-9.61,23.7-20.46,37.37-28.49,10.63-6.25,20.87-13.26,31.82-18.98,3.08-1.61,6.01-3.58,9.93-5.65-1.61,4.19-4.53,5.91-6.85,8.01-7.61,6.87-15.92,13.04-23.06,20.35-12.82,13.13-24.5,27.28-35.79,41.79-7.93,10.19-14.82,21-21.11,32.16-4.87,8.63-8.5,17.9-11.88,27.34-5.56,15.54-6.69,31.4-6.69,47.55,0,9.78,1.49,19.5,4.59,28.65,2.81,8.3,7.36,15.79,13.95,21.72.02.01.04.02.05.03.24.14.49.27.74.39.2.1.4.2.6.3.83.21,1.69.36,2.52.52,1.44.29,2.88.57,4.33.84,2.05.37,4.11.69,6.18.9.97.01,1.94.02,2.9.03h2.25c.18-.03.37-.04.55-.05,6.3-1.02,12.57-2.22,18.71-3.93.02-.01.05-.02.07-.04.99-.47,2.04-.76,3.04-1.18.11-.05.23-.12.34-.17,6.06-2.6,12.68-4.2,19.16-5.7,1.52-.49,3.07-.91,4.63-1.25.51-.11,1-.23,1.5-.36.55-.17,1.09-.35,1.63-.53.46-.18.92-.35,1.39-.47,3.28-1.13,6.51-2.36,9.81-3.39,8.27-2.6,16.14-6.45,24.3-9.42,10.96-3.99,21.19-9.67,32.3-13.35,7.11-2.35,13.47-6.63,20.5-9.4,5.29-2.08,10.99-3.79,15.62-6.81,8-5.24,16.5-9.58,24.49-14.79,8.67-5.66,17.9-10.4,26.62-16.04,6.52-4.21,13.33-8.36,19.98-12.44,5.75-3.53,11.28-8,16.76-12.25,13.31-10.32,26.81-20.52,39.03-32.04,21.59-20.36,42.47-41.49,60.51-65.2,7.09-9.32,14.91-18.17,21.23-27.98,7.27-11.28,14.48-22.63,20.8-34.57,7.57-14.29,17.13-27.47,22.79-42.86,2.91-7.89,6.62-15.16,9.81-23.36,3.19-8.2,6.93-16.77,10.04-25.36,3.3-9.12,6.42-18.28,9.6-27.44.77-2.23,1.19-4.76,1.79-7.01.02-.12.04-.23.07-.35.09-.36.19-.72.29-1.07.41-2.4,1.3-4.53,1.68-6.92.66-4.19,1.62-8.3,2.54-12.43.51-3.54,1.02-7.08,1.72-10.58,1.24-6.29,2.74-12.5,3.72-18.85.99-6.42,2.14-12.81,3.09-19.23.97-6.59,1.69-13.21,2.32-19.85.31-3.25.59-6.5.86-9.76.12-1.5.25-2.98.51-4.46.02-.1.25-4.54.27-4.64.34-25.98.04-47.61-.32-73.58ZM795.19,190.95v-.02c.06-.1.11-.2.16-.29,0,0,.02,0,.03,0,0,0-.01,0-.02,0h0c-.05.1-.1.2-.15.3h.59s0,0,0,.01h-.6ZM796.89,193.47c.5.74,1.51,1.31,2.29,1.71,5.84,2.97,10.69,7.3,15.83,11.22,0,0-.01,0-.02.02-5.12-3.91-9.95-8.22-15.77-11.17-.81-.41-1.85-1-2.33-1.77ZM930.64,319.66c-11.47-15.35-23.97-29.78-37.03-43.82-23.93-25.71-51.33-47.39-78.53-69.34l-.03-.04s-.01-.01-.02-.02c.19-.18.29-.27.29-.28.07-.05,0,.03-.28.28,27.2,21.95,54.6,43.63,78.53,69.34,13.06,14.04,25.56,28.47,37.03,43.82,3.04,4.07,5.95,8.21,8.77,12.42-2.81-4.18-5.71-8.31-8.73-12.36ZM793.81,985.47c-36.35,26.95-70.46,56.3-98.55,92.08-4.41,5.62-8.95,11.25-11.4,18.09-.91,2.53-1.23,3.95-.69,4.72-.59-.75-.28-2.18.65-4.78,2.45-6.84,6.99-12.47,11.4-18.09,28.09-35.78,62.2-65.13,98.55-92.08,10.06-7.45,20.17-14.84,29.57-23.14,0,0,0,0,0,0l.04.06c-9.4,8.3-19.51,15.69-29.57,23.14ZM515.13,527.59c-.45.44-.96.8-1.37,1.21,0,0,.02-.02.02-.02.4-.4.9-.76,1.34-1.18ZM513.63,528.93c-2.32,2.32-4.52,4.74-6.5,7.32,1.97-2.59,4.17-5.01,6.5-7.32ZM576.23,895.53c-5.37,6.18-11.38,11.86-17.99,17.12-2.57,2.05-5.46,3.76-7.8,6.16,2.34-2.42,5.25-4.14,7.83-6.19,6.59-5.25,12.6-10.93,17.96-17.09ZM437.89,578.3c-32.65,32.64-56.72,71.45-75.02,114.23-13.11,30.65-18.68,63.06-19.24,96.36-.42,24.94,1.78,49.61,8.24,73.74,4.4,16.48,11.02,32.01,21.3,45.83,5.29,7.12,12.46,11.92,19.55,16.9,1.55,1.08,3.75,1.58,4.19,3.88-.01,0-.02,0-.04.01-.45-2.28-2.66-2.78-4.19-3.86-7.09-4.98-14.26-9.78-19.55-16.9-10.27-13.82-16.89-29.36-21.3-45.83-6.46-24.14-8.66-48.8-8.24-73.74.56-33.29,6.12-65.7,19.24-96.36,18.31-42.79,42.39-81.61,75.05-114.26ZM397.66,929.66l-.65-.3s0-.02,0-.02l.67.31s-.01,0-.02.02ZM312.58,986.2c-30.16-25.4-56.6-53.91-74.21-89.71-12.6-25.62-20.02-52.42-18.42-81.28.62-11.08,3.02-21.85,7.8-31.72,10.5-21.68,23.62-41.38,40.37-58.2-16.74,16.82-29.85,36.5-40.34,58.17-4.78,9.87-7.19,20.64-7.8,31.72-1.6,28.86,5.82,55.65,18.42,81.28,17.61,35.8,44.05,64.31,74.21,89.71,3.66,3.09,7.89,5.5,11.85,8.22,0,0,0,0,0,0-.01,0-.03.02-.04.02-3.97-2.73-8.19-5.14-11.84-8.22ZM772.71,782.6c-.29.29-.62.57-.96.83-1.45,1.11-3.02,2.07-4.47,3.19-2.07,1.61-4.03,3.31-5.78,5.22,1.76-1.92,3.74-3.64,5.81-5.25,1.44-1.12,3.01-2.08,4.47-3.19.33-.25.65-.52.93-.8ZM761.32,860.91c8.52-6.54,17.17-12.97,25.88-19.29,5.54-4.02,11.07-8.16,17.02-11.5,2.62-1.47,4.9-3.22,6.94-5.18-2.05,1.97-4.34,3.73-6.97,5.21-5.95,3.34-11.48,7.48-17.02,11.5-8.71,6.32-17.35,12.75-25.88,19.29-1.82,1.4-3.35,2.81-4.59,4.23,1.25-1.43,2.79-2.85,4.62-4.26ZM789.69,935.09c2.36-3.43,4.98-6.68,7.82-9.8-2.83,3.12-5.46,6.37-7.82,9.8ZM764.48,963.34s.02,0,.04,0l-1.58,1.19s0-.02,0-.02l1.54-1.17ZM761.48,965.64l-4.78,3.6,4.75-3.6s.02,0,.03,0ZM747.11,976.49l-.2.17s0-.01,0-.02l.2-.15ZM745.84,977.46s0,0,0,0c0,0,0,0,0,.01h0s-.04-.02-.04-.02c.02,0,.02,0,.04,0ZM737.9,983.36s0,0,.02,0c0,0,.02-.01.03-.02h.02c0,.17-.04.32-.09.44l.02-.42h0s0,0,0,0c0,0,0,0,0,0h0ZM838.68,938.19c-2.62,5.68-6.16,10.94-8.51,16.79-.83,2.05-1.89,3.91-3.43,5.32,1.52-1.41,2.58-3.25,3.4-5.29,2.35-5.85,5.89-11.11,8.51-16.79,3.3-7.15,9.32-12.08,13.61-18.35,3.67-5.36,7.79-10.31,12.27-14.88-4.46,4.56-8.58,9.5-12.24,14.85-4.29,6.27-10.31,11.2-13.61,18.35ZM959.9,725.84c-4.44,14.32-11.63,27.35-18.68,40.42-4.12,7.63-7.9,15.41-11.91,23.09-4.44,8.51-1.96,21.63,4.79,28.31,2.67,2.64,5.7,2.43,8.77,2.6,5.22.29,10.61,1.31,15.18-2.58.74-.63,1.96-1.07,2.65-.01,1.05,1.61-.39,2.69-1.14,3.95-2.66,4.46-5.91,8.33-9.48,11.88,3.56-3.54,6.79-7.4,9.45-11.85.75-1.26,2.19-2.34,1.14-3.95-.69-1.06-1.91-.62-2.65.01-4.56,3.89-9.96,2.87-15.18,2.58-3.07-.17-6.1.04-8.77-2.6-6.75-6.68-9.23-19.8-4.79-28.31,4.01-7.68,7.79-15.46,11.91-23.09,7.05-13.07,14.24-26.1,18.68-40.42,3.92-12.63,5.08-25.73,7.08-38.69.07-.44.1-.89.14-1.34-.01.43-.04.87-.11,1.31-2,12.96-3.16,26.06-7.08,38.69ZM955.19,621.34c1.4.22,1.83,1.42,1.78,2.63-.46,10.05,2.12,19.64,4.37,29.28-2.48-9.25-4.85-19.51-4.4-29.25.05-1.21-.38-2.41-1.78-2.63-.72-.12-1.27.09-1.66.48.38-.4.94-.63,1.69-.51ZM886.67,481.7c1.43-.69,2.04.63,2.47,1.73,11.27,28.6,27.49,54.97,37.88,83.95,4.21,11.73,7.25,23.73,9.22,36.13,1.59,10,1.78,19.81,1.15,29.78-.14,2.26.1,4.57,2.77,5.2,1.85.43,3.78.07,5.01-1.09-1.24,1.18-3.18,1.55-5.04,1.12-2.67-.62-2.91-2.94-2.77-5.2.63-9.97.44-19.78-1.15-29.78-1.97-12.4-5.01-24.4-9.22-36.13-10.39-28.98-26.61-55.35-37.88-83.95-.43-1.1-1.04-2.42-2.47-1.73-.12.06-.22.13-.31.2.09-.09.2-.17.34-.23ZM850.33,380.45c2.14-.18,2.44,2.04,2.48,3.65.44,15.48,1.97,31.14-.88,46.37-1.93,10.34-2.65,20.41-.81,30.52,2.44,13.37,6.87,26.04,17.53,35.48.75.66,1.45,1.39,2.25,1.97,4.05,2.89,12.98,4.2,15.68,1.78,2.73-2.45,2.57-5.24,1.96-8.07.75,2.84.81,5.59-1.99,8.11-2.7,2.42-11.63,1.11-15.68-1.78-.8-.58-1.5-1.31-2.25-1.97-10.66-9.44-15.09-22.11-17.53-35.48-1.84-10.11-1.12-20.18.81-30.52,2.85-15.23,1.32-30.89.88-46.37-.04-1.61-.34-3.83-2.48-3.65-.5.04-.82.21-1.04.45.22-.27.55-.45,1.07-.49ZM852.8,600.75c2.23-.44,2.99,1.71,3.63,3.4,1.54,4.1,3.98,7.69,6.9,10.79,5.21,5.53,12.88,4.47,16.98-1.52-4.1,6.03-11.79,7.1-17.01,1.56-2.92-3.1-5.36-6.69-6.9-10.79-.64-1.69-1.4-3.84-3.63-3.4-.68.14-1.14.51-1.46,1,.32-.52.8-.9,1.49-1.04ZM814.44,688.5c5.07-4.68,9.53-9.71,13.44-15.05-3.92,5.36-8.39,10.4-13.47,15.09-12.55,11.59-26.18,19.89-44.21,17.82-4.78-.55-7.03-2.79-4.76-7.06.03-.06.06-.11.09-.17-.02.04-.04.09-.06.13-2.27,4.27-.02,6.51,4.76,7.06,18.03,2.07,31.66-6.23,44.21-17.82ZM773.81,593.17c2.45,5.3,3.13,11.42,4.54,17.19,2.29,9.36,3.27,18.86,3.97,28.49.14,1.95.22,3.9.24,5.86-.05-1.93-.14-3.87-.28-5.83-.7-9.63-1.68-19.13-3.97-28.49-1.41-5.77-2.09-11.89-4.54-17.19-2.29-4.94-2.96-10.13-4.57-15.14-.33-1.03-.28-2.97-.68-4.45.47,1.35.36,3.3.72,4.42,1.61,5.01,2.28,10.2,4.57,15.14ZM667.18,488.11c-4.89,6.08-9.78,12.12-13.38,19.14-2.98,5.79-3.22,11.85-.77,17.37,6.12,13.79,2.96,26.38-3.31,38.99-5.88,11.84-14.46,21.74-22.12,32.34-11.43,15.81-19.13,33.07-22.95,52.64-2.75,14.05-.31,27.2,1.91,40.33,2.18,12.93,8.49,24.94,19.26,33.38,7.71,6.04,16.36,10.61,26.11,12.95,22.2,5.31,41.32-1.18,59.53-13.76,1.48-1.03,2.93-2.08,4.35-3.17-1.43,1.1-2.89,2.16-4.39,3.2-18.21,12.58-37.33,19.07-59.53,13.76-9.75-2.34-18.4-6.91-26.11-12.95-10.77-8.44-17.08-20.45-19.26-33.38-2.22-13.13-4.66-26.28-1.91-40.33,3.82-19.57,11.52-36.83,22.95-52.64,7.66-10.6,16.24-20.5,22.12-32.34,6.27-12.61,9.43-25.2,3.31-38.99-2.45-5.52-2.21-11.58.77-17.37,3.6-7.02,8.49-13.06,13.38-19.14,1.3-1.62,2.69-2.92,4.14-3.97-1.44,1.04-2.81,2.34-4.1,3.94ZM675.21,807.25c-7.24,6.98-11.87,16-16.72,24.72-5.75,10.32-12.17,20.06-19.53,28.88,7.35-8.82,13.75-18.54,19.5-28.85,4.86-8.73,9.5-17.78,16.75-24.75h0ZM701.25,373.61c1.46-.12,1.99,1.14,2.26,2.25,2.13,9.02,4.78,17.96,6.13,27.09,2.24,15.13,3.91,30.35,3.27,45.73-.5,11.88-2.85,23.38-6.54,34.63-.66,2.02-1.22,3.19-1.89,3.57.65-.41,1.2-1.56,1.85-3.54,3.69-11.25,6.04-22.75,6.54-34.63.64-15.38-1.03-30.6-3.27-45.73-1.35-9.13-4-18.07-6.13-27.09-.27-1.11-.8-2.37-2.26-2.25-.45.04-.87.57-1.2,1.2.13-.63.54-1.17,1.24-1.23ZM664.31,450.41s-.01.01-.02.02c-3.58,2.67-7.45,3.82-11.63,1.88-.95-.44-2.37-2.67-3.38-5.35,1.16,2.59,2.52,4.91,3.42,5.32,4.17,1.94,8.04.79,11.61-1.87ZM675.68,307.56c4.85,26.98,4.49,53.84-5.36,80.15-5.14,13.73-10.69,27.18-17.39,40.2-.21.4-.44.82-.68,1.24.21-.4.43-.8.64-1.21,6.7-13.02,12.25-26.47,17.39-40.2,9.85-26.31,10.21-53.17,5.36-80.15-4.26-23.71-9.49-47.28-15.8-70.58-.37-1.35-.81-3.1-1.3-4.99.51,1.88.97,3.61,1.34,4.97,6.31,23.3,11.54,46.87,15.8,70.58ZM654.74,218.95c-.12-.3-.23-.58-.34-.84-.96-2.58-1.78-4.45-2.56-6.14.76,1.54,1.56,3.23,2.6,6.11.1.27.2.56.3.87ZM649.59,207.07c-.44-1.03-.89-2.15-1.36-3.48-.17-.46-.32-.89-.48-1.33.4.98.79,1.97,1.15,2.97.24.68.47,1.28.69,1.84ZM469.61,16.44c10.38,8.06,20.57,16.39,31.4,23.85,19.21,13.23,37.19,28.09,55.15,42.89,16.65,13.72,32.41,28.49,46.28,45.29,9.55,11.57,18.88,23.22,26.95,35.84,4.64,7.25,9.08,14.62,11.98,22.85.05.14.11.28.16.43-.07-.14-.13-.26-.2-.4-2.9-8.23-7.34-15.6-11.98-22.85-8.07-12.62-17.4-24.27-26.95-35.84-13.87-16.8-29.63-31.57-46.28-45.29-17.96-14.8-35.94-29.66-55.15-42.89-10.83-7.46-21.02-15.79-31.4-23.85-3.32-2.58-6.98-4.88-11.38-5.55-.01-.02-.03-.03-.04-.05,4.43.66,8.12,2.97,11.46,5.57ZM531.46,413.44c-5.64,4.24-11.78,7.88-18.57,10.71-.02,0-.04,0-.06,0,.03-.01.07-.03.1-.04,6.77-2.83,12.9-6.45,18.53-10.68ZM533.94,277.46c1.88,7.87,4.4,15.59,5.71,23.61,2.93,17.98,3.88,35.83.12,53.97-4.01,19.34-16.08,33.18-28.93,46.77-.43.45-.85.9-1.28,1.35.37-.41.78-.84,1.24-1.32,12.85-13.59,24.92-27.43,28.93-46.77,3.76-18.14,2.81-35.99-.12-53.97-1.31-8.02-3.83-15.74-5.71-23.61-.76-3.18-1.59-5.9-4.05-8.19,0-.02.02-.03.02-.05,2.48,2.3,3.31,5.02,4.07,8.21ZM330.47,503.16c10.74-7.55,21.74-14.83,32.92-21.49,9.35-5.56,19.27-10.41,28.3-16.57,7.31-4.99,14.58-10.03,21.67-15.31-7.1,5.29-14.39,10.34-21.71,15.34-9.03,6.16-18.95,11.01-28.3,16.57-11.18,6.66-22.18,13.94-32.92,21.49-12.44,8.75-25.12,17.19-37.28,26.29,12.17-9.11,24.86-17.56,37.32-26.32ZM323.88,191.48c-.36,2.63-2.17,4.47-4.05,5.69-17.72,11.49-33.76,25.15-50.15,38.37-28.86,23.27-55.08,49.21-78.59,77.86-19.85,24.19-35.78,50.9-49.95,78.72-7.59,14.91-14.52,30.15-20.74,45.64-9.08,22.6-17.45,45.48-23.64,69.15-5.16,19.71-9.19,39.63-11.95,59.71-2.53,18.39-5.2,36.85-4.25,55.65.86,16.94-.39,33.99.52,50.93.7,13.05,2.88,26.05,4.86,39.03,3.42,22.45,8.98,44.35,15.42,66.07,4.36,14.7,9.92,28.96,16.03,43,2.73,6.28,4.78,12.81,7.83,18.98,14.73,29.82,31.15,58.6,50.83,85.47,5.52,7.54,11.73,14.5,17.58,21.76,16.33,20.28,34.68,38.46,54.23,55.69,28.97,25.54,61.66,45.2,95.12,63.86,12.89,7.19,26.73,12.29,40.09,18.44,11.05,5.08,22.38,9.37,33.85,13.36,2.42.84,5.35,2.14,7.83,2.2-2.48-.06-5.41-1.36-7.84-2.2-11.47-3.99-22.8-8.28-33.85-13.36-13.36-6.15-27.2-11.25-40.09-18.44-33.46-18.66-66.15-38.32-95.12-63.86-19.55-17.23-37.9-35.41-54.23-55.69-5.85-7.26-12.06-14.22-17.58-21.76-19.68-26.87-36.1-55.65-50.83-85.47-3.05-6.17-5.1-12.7-7.83-18.98-6.11-14.04-11.67-28.3-16.03-43-6.44-21.72-12-43.62-15.42-66.07-1.98-12.98-4.16-25.98-4.86-39.03-.91-16.94.34-33.99-.52-50.93-.95-18.8,1.72-37.26,4.25-55.65,2.76-20.08,6.79-40,11.95-59.71,6.19-23.67,14.56-46.55,23.64-69.15,6.22-15.49,13.15-30.73,20.74-45.64,14.17-27.82,30.1-54.54,49.95-78.72,23.51-28.65,49.73-54.59,78.59-77.86,16.39-13.22,32.43-26.88,50.15-38.37,1.88-1.22,3.69-3.06,4.05-5.69-.52-.17-1.01-.25-1.48-.26.47,0,.96.09,1.49.26ZM396.73,1005.37c28.61,27.52,54.7,57.18,69.54,94.71,9.72,24.57,11.8,50.13,4.38,75.86-1.96,6.81-4.73,13.57-11.87,17.16-1.38.69-2.61,1.17-4.13,1.32-1.8.19-3.57.25-5.31.2,1.74.04,3.5-.02,5.3-.2,1.52-.15,2.75-.63,4.13-1.32,7.14-3.59,9.91-10.35,11.87-17.16,7.42-25.73,5.34-51.29-4.38-75.86-14.84-37.53-40.93-67.19-69.54-94.71-11.16-10.74-24.29-19.2-36.58-28.62-12.01-9.21-24.42-17.91-35.54-28.24-2.03-1.89-4.18-4.05-2.55-6.85,1.11-1.91,2.96-2.47,4.93-2.42-1.97-.05-3.81.51-4.92,2.42-1.63,2.8.52,4.96,2.55,6.85,11.12,10.33,23.53,19.03,35.54,28.24,12.29,9.42,25.42,17.88,36.58,28.62ZM688.36,985.55c-31.18,20.73-60.15,44.13-84.6,72.66-15.14,17.67-27.47,37.24-36.23,58.9-3.82,9.44-6.21,19.36-7.8,29.35-.96,6.02-4.83,5.89-8.91,6.41-.27.03-.52.05-.76.06.24,0,.49-.02.75-.06,4.08-.52,7.95-.39,8.91-6.41,1.59-9.99,3.98-19.91,7.8-29.35,8.76-21.66,21.09-41.23,36.23-58.9,24.45-28.53,53.42-51.93,84.6-72.66,20.13-13.38,41.56-24.44,63.52-34.46,5.44-2.48,10.98-4.79,16.59-6.83,1.1-.4,2.34-.84,3.54-.83-1.19,0-2.43.43-3.53.83-5.61,2.04-11.15,4.35-16.59,6.83-21.96,10.02-43.39,21.08-63.52,34.46ZM796.37,1145.41c-28.6,14.38-58.57,25.52-88.79,35.97-12.54,4.34-25.23,8.25-37.82,12.39-15.37,5.06-24,3.29-31.29-14.79-5.85-14.5-6.7-29.58-4.73-45.1,3.32-26.21,14.65-48.85,29.23-70.32,20.56-30.27,45.24-56.64,73.86-79.37h0c-28.6,22.73-53.27,49.08-73.82,79.34-14.58,21.47-25.91,44.11-29.23,70.32-1.97,15.52-1.12,30.6,4.73,45.1,7.29,18.08,15.92,19.85,31.29,14.79,12.59-4.14,25.28-8.05,37.82-12.39,30.22-10.45,60.19-21.59,88.79-35.97,17.36-8.72,34.69-17.66,51.29-27.73h0c-16.62,10.08-33.96,19.03-51.34,27.76ZM1102.04,732.48l-.05-.02s0-.03,0-.04c3.03-25.01,6.66-49.96,6.02-75.36-.3-11.93-2.76-23.44-3.63-35.2-.69-9.29-.95-18.58-2.36-27.85-2.13-13.98-3.81-28.07-6.68-41.91-6.51-31.34-15.78-61.89-27.4-91.74-9.5-24.4-20.97-47.88-34.48-70.24-4.17-6.9-8.46-13.72-12.9-20.44,4.45,6.74,8.76,13.57,12.94,20.5,13.51,22.36,24.98,45.84,34.48,70.24,11.62,29.85,20.89,60.4,27.4,91.74,2.87,13.84,4.55,27.93,6.68,41.91,1.41,9.27,1.67,18.56,2.36,27.85.87,11.76,3.33,23.27,3.63,35.2.64,25.4-2.99,50.35-6.02,75.36Z"/>
      <g>
        <path class="cls-5" d="M1114.64,626.14c-.19-4.01-.36-8.01-.47-12.02-.63-5.94-1.4-11.87-2.25-17.78-1.23-8.48-2.99-16.94-3.84-25.47-.17-.97-.35-1.95-.54-2.92-1.24-5.36-2.48-10.72-3.51-16.13-1.47-7.73-2.74-15.49-4.37-23.2-1.54-7.3-3.2-14.58-4.84-21.86-.35-1.19-.72-2.37-1.01-3.58-2.67-8.35-5.65-16.62-8.56-24.89-3.71-10.58-8.27-20.85-12.07-31.4-3.22-8.94-7.45-17.45-11.36-26.02-5.69-12.46-12.74-24.36-19.87-36.1-7.43-12.22-15.19-24.29-23.61-35.84-12.16-16.67-24.61-33.2-39-48.03-15.6-16.07-31.1-32.31-48.44-46.58-7.25-5.97-14.48-12.02-22.16-17.4-9.45-6.63-19.2-12.86-29.11-18.77-7.01-4.18-13.56-9.12-21.26-12.25-2.8-1.14-5.72-2.3-8.5-3.64-8.43-4.07-16.82-8.22-25.35-12.07-7.83-3.54-16.3-5.95-23.57-10.37-5.4-3.29-10.45-2.47-15.78-2.26-2.47.1-4.14,2.03-4.99,4.39-2.29,6.33-.18,12.96,5.26,16.75,12.74,8.85,25.25,18.04,37.33,27.77,8.45,6.81,16.49,14.13,25,20.85,9.36,7.39,18.24,15.39,26.42,23.92,13.26,13.82,27.25,27.03,38.36,42.85,8.16,11.62,17.58,22.34,24.91,34.56,6.66,11.11,13.78,21.92,19.52,33.61,5.74,11.68,12.54,22.83,18.89,34.21,1.87,3.35,3.19,6.95,4.55,10.51.26.45.53.89.79,1.34,1.19,2.02,2.13,4.13,3.17,6.22.92,1.84,1.88,3.67,2.7,5.56.82,1.88,1.47,3.82,2.18,5.74,1.51,4.08,3.11,8.12,4.58,12.21.09.25.17.49.26.74,2.87,6.93,5.24,14.04,7.41,21.22,2.25,7.43,4.79,14.77,7.09,22.18,2.32,7.48,3.83,15.13,5.73,22.72.92,3.69,2.11,7.3,3.03,11,.2.82.39,1.64.58,2.46.52,1.84.94,3.7,1.3,5.61,1.05,5.71,1.95,11.45,3.06,17.15,1.12,5.75,2.28,11.5,3.23,17.28.82,4.97,1.63,10.03,1.92,15.07.07,1.3.09,2.63.02,3.96.69,5.74.56,11.55.41,17.32-.09,3.45-.19,6.89-.12,10.34.02.89.01,1.78-.01,2.66.47,14.44.65,28.93-1.41,43.17-.05.37-.1.73-.15,1.1,0,.67.01,1.35.01,2.02,0,2.05-.07,4.09-.25,6.12.04,1.59-.04,3.15-.14,4.54-.29,4.09-1.02,8.13-1.53,12.2-.85,6.75-1.84,13.49-3.12,20.18-.84,4.41-1.91,8.76-3.46,12.97-.36,1.43-.73,2.87-1.1,4.3-.67,2.6-1.21,5.27-2.05,7.82-.55,2.3-1.12,4.6-1.77,6.86-1.76,6.18-3.02,12.5-5.02,18.63-2.6,7.96-3.9,16.42-7.16,24.07-3.01,7.05-5.69,14.28-8.24,21.43-3.35,9.4-7.24,18.62-11.48,27.48-6.3,13.14-13.28,26.05-21.25,38.39-8.81,13.64-16.33,28.07-26.46,40.89-6.33,8.01-12.48,16.25-19.01,24.05-6.62,7.91-13.47,15.75-21.35,22.73-9.95,8.81-18.2,19.47-28.45,28.13-13.77,11.64-27.37,23.57-42.52,33.32-14.1,9.07-29.38,16.29-43.48,25.36-12.56,8.09-26.68,12.64-39.91,19.13-3.41,1.67-6.95,3.09-10.56,4.4-1.48.82-3.09,1.44-4.69,2.03-.9.4-1.8.79-2.72,1.14-1.05.4-2.1.82-3.14,1.24-.66.36-1.33.71-2.03,1.02-1.83.82-3.67,1.61-5.5,2.43-.03.02-.06.03-.09.05-.07.04-.13.05-.19.07-.5.22-1,.44-1.5.67-1.06.5-2.09,1.06-3.15,1.57-.17.08-.34.15-.51.22-.85.45-1.83.89-2.75.73-1.32-.23-1.4-1.55-.79-2.52,1.04-1.66,2.23-3.22,3.36-4.81,1.18-1.64,2.22-3.36,3.56-4.88.29-.32.6-.62.9-.93.38-.58.79-1.14,1.26-1.65,1.8-2.52,4.39-4.58,6.56-6.68,1.62-1.58,3.17-3.27,4.97-4.65.1-.08.21-.15.32-.23.44-.47.87-.93,1.31-1.4,11.94-12.91,25.02-24.72,38.21-36.35,6.44-5.68,12.77-11.63,19.83-16.44,6.24-4.25,11.8-9.34,18.38-13.27,8.86-5.29,16.79-12.22,24.77-18.87,5.32-4.43,10.39-9.15,14.28-15.16,4.01-6.2,6.52-13.21,10.72-19.22,5.75-8.23,12.23-15.9,19.11-23.22,2.72-2.89,4.99-6.29,7.99-8.84,14.29-12.13,28.58-24.28,43.24-35.95,6.65-5.3,12.96-11.02,19.77-16.1,6.59-4.91,15.44-11.92,19.96-18.68,7-10.49,5.81-7.47,9.33-15.74.53-1.59.31-3.18.01-4.84-.4-1.58-.83-3.14-1.57-4.63-.73-1.48-1.51-2.56-3.04-3.26-1.35-.62-2.81-.95-4.3-.95-.2.04-.41.08-.61.12-.17.03-.33.08-.5.12-.74.52-1.4.97-1.68,1.12-2.99,2.45-10.98,3-15.09,1.3-4.57-1.88-6.68-7.55-4.55-11.96,4.2-8.7,8.84-17.2,13.15-25.85,4.79-9.61,9.01-18.57,12.63-28.62,1.95-5.41,3.02-7.12,4.75-12.63.17-.76,1.92-5.39,2.1-6.15.84-3.61.99-3.28,1.93-6.87.32-1.21.41-3.15.67-4.38.03-.5.45-2.78.48-3.28.09-1.27.48-3.66.63-4.92.14-1.15.34-3.29.52-4.43,0-3.07.6-8.85.73-11.93.41-10.21-.65-15.38-2.31-24.63-1.69-9.39-2.12-13.74-4.55-23.07-1.36-5.25-2.18-13.8-3.02-19.34-1.07-7.05-1.6-6.86-1.68-13.92-.01-.06-.02-.11-.03-.17-.31-.87-.68-1.74-1.23-2.46-1.7-2.19-4.81-1.33-6.76-.03-1.82,1.22-2.32,3.06-3.31,5.13-.71,1.72-.26.62-1,2.32-1.21,2.8-1.45,3.1-3.07,5.69-3.46,5.55-3.31-3.9-3.2-4.81.6-4.73.35-8.66.19-12.63-.16-4.04-.93-7.9-1.74-11.85-.83-4-1.65-8-2.54-11.99-.81-3.62-3.36-11.76-5.56-17.65-4.76-13.12-7.84-18.77-13.42-31.47-4.63-10.56-9.82-20.96-14.67-31.46-3.6-7.8-6.56-14.59-9.75-22.58-.08-.1-1.84-2.8-1.92-2.9-1.93-2.34-2.67-3.18-5.28-4.77-2.41-1.46-5.66-2.59-8.47-1.68-3.47,1.13-4.15,5.38-4.5,8.54-.3,2.68.22,4.3.55,6.91.24.52.34,2.03.54,2.53.35.87.6,1.77.92,2.64.3.81.64,1.59.89,2.41.19.63.52,1.21.55,1.88.05,1.04-.65,1.9-1.71,1.95-.25.01-.52-.03-.79-.1-.17,0-.34-.03-.49-.05-.09-.02-.18-.04-.26-.07-.3-.11-.61-.24-.88-.42-.27-.18-.54-.38-.78-.6-.06-.05-.11-.12-.16-.17-.99-.61-1.71-1.47-2.32-2.49-.96-1.61-1.74-3.33-2.62-4.98-.86-1.62-1.97-3.13-2.61-4.86v-.02c-4.14-7.61-5.52-16.21-6.79-24.73-1.18-7.94.11-15.75,1.34-23.57.17-1.4.33-2.8.48-4.2v-.39c0-.68.07-1.37.1-2.05,0-.41-.02-.83-.03-1.24-.2-8.51-.32-17.01-.54-25.52-.08-3.25-.19-6.5-.36-9.74-.16-1.15-.34-2.29-.51-3.43-.56-2.2-1.21-4.37-1.75-6.57-.62-1.72-.32-2.01-2.73-8.57-.05-.11-.11-.22-.16-.33-.13-.28-.27-.57-.39-.86-.04-.07-.08-.14-.11-.22-.06-.13-.14-.26-.21-.38-1.87-2.05-4.31-3.94-7.25-3.65-2.99.29-5.42,2.6-7.02,4.99-.78,1.17-1.45,2.42-2.03,3.71-.11.44-.24.87-.36,1.3-.13.64-.27,1.27-.37,1.9-.08.52-.17,1.04-.25,1.56-.1,2.62-.34,4.31-.58,8.57-.63,11.03-2.61,21.99-4.31,32.93-1.95,12.54-5.06,24.94-5.3,37.67-.29,15.22-.21,30.36,2.55,45.56,1.76,9.71,3.7,19.28,8.96,27.27,6.05,9.19,13.75,17.38,21.22,25.55,6.33,6.92,9.65,15.45,11.76,23.93,1.9,7.62,1.81,16.06.46,24.16-.28,1.66-1.2,3.06-2.34,3.6-1.27.6-2.3-1.09-3.08-2.08-2.07-2.62-2.87-3.58-4.57-6.42-3.28-5.48-1.91-3.75-5.89-9.91-3.19-4.93-4.99-6.12-10.36-4.47-4.79,1.47-6.41,5.09-6.45,10.02-.04,5.99-.02,2.79-.33,9.78-.41,9.13-.6,13.78-3.39,23.21-1.39,4.71-2.93,11.11-4.21,15.8-1.83,6.7-5.48,11.27-8.87,17.14-7.85,13.59-18.13,25.44-32.06,32.72-3.82,1.99-10.2,5.45-14.44,3.37-1.84-1.92,1.37-4.73,1.87-5.56,5.6-9.22,9.19-21.21,11.14-31.78,3.75-20.3,1.09-36.1-2.9-55.89-.4-1.98-.76-3.99-1.15-6.01-1.72-5.25-3.41-10.51-5.08-15.78-.71-1.59-1.18-3.27-1.57-4.98-.95-3.04-2.59-6.78-3.73-9.8-.46-.82-.84-1.44-1.48-2.08-1.06-.99-2.18-1.94-3.33-2.82-1.85-.52-3.72-.87-5.7-.73-1.3.09-2.57.35-3.79.74-2.06,1.64-3.83,3.9-4.85,6.38-.37,1.64-.4,3.31-.41,4.98,0,.03.02.05.02.07,0,1.14.51,3.07.52,4.21.93,4.54.81,9.54,1.01,14.32.39,9.57.45,7.91-.81,19.06-.23,2.04-1.46,13.46-1.66,15.39-.75,7.38-4,15.37-6.89,22.41-2.76,6.72-5.28,14.86-8.01,21.61-6.04,14.91-13.51,27.71-26.09,38.16-7.06,5.86-15.79,11.15-24.34,14.83-6.05,2.61-10.82,4.07-17.74,4.99-3.75.49-10.06,1.33-14.27.33-1.17-.28-7.26-2.08-8.69-2.56-7.07-2.36-10.8-5.1-16.03-9.49-5.9-4.94-9.02-11.09-12.36-17.89-6.39-13.02-9.8-26.84-7.86-40.91,2.58-18.74,10.04-35.96,21.12-51.58,7.74-10.9,16.12-21.4,22.49-33.24,5.6-10.42,10.32-21.15,9.88-33.34-.21-5.83-1.45-11.52-3.86-16.85-1.24-2.75-1.67-5.43-.46-8.16,3.35-7.56,8.93-13.69,13.37-20.55.5-.76,1.02-1.38,1.58-1.88,1.36-1.93,4.51-2.84,6.59-3.02,2.01-.17,4.1-.33,6.11-.11s3.44.91,4.54,2.65c1.27,2,2.42,4.04,4.4,5.44.49.35,1.02.64,1.57.9.08.03.17.06.25.09.3.05.6.1.9.14,1.53.24,3.13.34,4.66.06,2.91-.55,5.21-2.87,7.04-5.07.18-.22.34-.45.51-.68.2-.37.41-.73.61-1.1.25-.66.5-1.33.75-1.98.08-.21.15-.41.22-.62.02-.07.04-.15.06-.22.92-3.54,1.51-7.18,2.15-10.78.69-3.86,1.33-7.73,1.93-11.61.55-3.61,1.08-7.24,1.5-10.88.19-3.63.33-7.26.53-10.9.45-8.37-.41-16.71-.86-25.08-.18-1.22-.32-2.43-.43-3.67-.15-1.61-.34-3.22-.63-4.81-.22-1.19-.42-2.36-.5-3.56-.01-.07-.02-.14-.03-.22-.08-.52-.14-1.04-.21-1.56-.23-1.19-.46-2.38-.65-3.58-.44-2.76-.78-5.53-1.25-8.28-.07-.42-.14-.85-.22-1.28-.66-2.74-1.41-5.46-2.34-8.15-.87-2.5-1.88-4.94-2.59-7.49-.19-.68-.38-1.36-.58-2.04-.43-1.04-.85-2.08-1.29-3.11-1.25-2.93-2.32-6.29-4.31-8.81-.95-1.2-2.17-2.12-3.72-2.28-1.66-.18-3.38.1-4.7,1.17-3.35,2.69-3.71,7.66-4.65,11.53-.03.11-.06.22-.09.34-.02.14-.05.27-.07.41-.13,1.02-.31,2-.55,3s-.41,2.01-.62,3.02c-.63,4.07-1.72,8.07-2.89,12.01-3.21,10.81-5.95,22.12-11.63,31.95-2.63,4.55-5.75,8.79-9.07,12.85-1.51,1.85-3.02,3.71-4.73,5.38-1.52,1.48-3.38,2.56-5.51,3.02-.41.09-.76-.36-.93-.63-.35-.77-.24-.82-.05-1.5.26-.94.68-1.49,1.16-2.38.57-1.06,1-1.59,1.56-2.6.25-.45.86-1.46,1.06-1.9,12.3-23.5,21.8-46.11,26.13-72.79.03-.54.05-1.08.05-1.63v-1.42s.02-.05.02-.08c.07-3.48.14-6.96.21-10.45.12-5.86.57-11.79.48-17.68,0-.07-.01-.14-.02-.22-.19-2.37-.26-4.74-.53-7.1-.55-4.7-1.61-9.32-2-14.03-.43-2.08-.65-4.2-.81-6.34-.17-1.31-.32-2.63-.46-3.95-.24-2.37-.63-4.72-1.07-7.06-.56-2.11-1.13-4.22-1.65-6.33-.74-2.99-1.49-5.98-2.02-9.02-.02-.09-.05-.18-.07-.27-.4-1.79-.76-3.59-1.11-5.4-.35-1.76-.7-3.52-1.1-5.27-.91-2.46-1.6-5.05-2.26-7.56-.87-3.3-1.59-6.64-2.25-9.98-1.17-5.91-2.18-11.84-3.44-17.73-.06-.19-.11-.38-.18-.56-.04-.1-.05-.19-.05-.28-1-3.42-1.71-6.94-2.76-10.34-2.42-7.85-5.62-15.36-8.6-22.97-3.08-7.85-7.32-15.14-11.13-22.64-5.3-10.43-11.04-20.69-18.17-29.85-14.92-19.17-30.8-37.58-48.8-54-6.45-5.89-13.23-11.43-19.92-17.05-5.57-4.67-11.24-9.24-16.89-13.82-6.01-4.88-11.71-10.24-18.14-14.49-8.29-5.48-15.87-11.85-23.91-17.64-9.46-6.81-18.55-14.13-28.08-20.83-2.18-1.53-4.34-3.07-6.51-4.6-.09-.04-.18-.07-.27-.11-2.71-.87-5.39-1.78-8.3-2h-.07c-1.3.03-2.59.08-3.89.14-1.05.27-2.07.62-3.01,1.13-1.41.77-2.39,1.95-3.11,3.37-.23.45-.47.89-.7,1.34-.41,3.02.6,6.23,1.89,9.02.62.69,1.24,1.39,1.84,2.1,1.26,1.49,2.51,3,3.85,4.44.47.5.93,1.01,1.37,1.53.1.07.2.16.24.25.04.09.11.17.16.26.21.26.43.51.62.78.14.13.28.26.4.41,0,0,.02.02.02.03,4.51,3.95,8.91,8.02,13.29,12.09,8.19,7.6,15.73,15.91,23.3,24.14,6.04,6.57,11.88,13.34,17.49,20.28,7.37,9.12,14.47,18.44,21.59,27.76,5.9,7.73,11.45,15.98,15.57,24.53,5.06,10.5,10.46,20.95,14.81,31.9,4.7,11.83,10.56,23.24,14.27,35.45.91,3,2.4,6.07,3.04,9.04.45,1.23.72,2.5.89,3.78.78,2.95,1.19,6.03,1.7,9,.34,1.96.54,3.94.9,5.89.08.45.17.89.25,1.33.1.53.18,1.05.26,1.58.03.11.06.21.09.32.03.13.05.26.08.39.2.63.4,1.27.54,1.92.32,1.44.6,2.89.87,4.35.54,2.94,1.12,5.88,1.48,8.84.37,2.98.84,5.98.91,8.98v.81c.06.75.09,1.5.1,2.25.72,6.66-.51,13.48-1.4,20.07-.54,4.02-1.13,8.04-1.76,12.05-.35,2.24-.67,4.5-1.07,6.74-.69,6.14-2.57,12.18-3.98,18.12-1.81,7.65-4.52,15.31-7.57,22.79-5.88,14.41-13.16,27.92-22.04,40.58-1.27,1.81-2.66,3.53-4.09,5.21-.18.27-.35.55-.54.82-.32.53-.66,1.04-1.01,1.55-.07.1-.14.18-.23.24-.63.96-1.42,1.84-2.09,2.67-1.39,1.71-2.89,3.32-4.29,5.02-1.35,1.63-2.71,3.26-4.27,4.7-.63.58-1.29,1.11-1.98,1.61-1.4,1.6-2.85,3.16-4.51,4.49-.96.77-1.89,1.74-2.98,2.37-.92.76-1.9,1.44-2.9,2.08-1.19.76-4.38,2.6-4.86.07-.34-1.82,1.3-3.7,2.44-4.87.91-.93,1.97-1.69,2.93-2.57.02-.02.03-.03.05-.05.47-.54.96-1.06,1.49-1.52.65-.57,1.36-1.09,2.03-1.65.81-.88,1.63-1.74,2.48-2.58,14.75-14.68,22.25-32.85,23.91-53.14,1.53-18.69.59-37.55-4.28-55.75-3.12-11.64-5.35-23.49-8.79-35.04-1.69-5.67-5.99-8.82-11.47-8.13-4.7.59-8.55,4.94-8.55,10.1-.02,19.53-2.66,38.57-8.55,57.3-2.26,7.16-5.39,13.75-9,20.08-6.28,11-13.08,21.69-20.32,32.14-7.56,10.91-15.55,21.36-24.66,30.94-4.84,5.09-9.93,9.94-14.91,14.9-2,2.07-3.93,4.19-6.04,6.17-.58.62-1.17,1.23-1.75,1.86-6.4,6.94-13.24,13.28-20.73,18.91-.27.21-.54.41-.81.62-.3.23-.59.46-.89.7-1.29,1.07-2.57,2.16-3.81,3.29-.1.09-.21.15-.32.18-.5.4-1,.82-1.51,1.21-.49.38-.98.8-1.48,1.2-.02.02-.04.03-.06.05-3.5,2.72-7.09,5.35-10.76,7.83-3.74,2.53-7.75,4.59-11.52,7.05-2.34,1.53-4.71,3.03-7.17,4.36-6.99,4.47-14.21,8.6-21.52,12.56-3.58,2.24-7.24,4.35-10.87,6.52-3.11,1.86-6.12,3.87-9.2,5.78-.63.39-1.28.76-1.92,1.14-8.26,6.09-17.23,11.16-25.25,17.61-7.93,6.38-16.97,11.51-24.75,17.95-7.11,5.88-14.39,11.67-21.52,17.52-13.8,11.34-27.49,22.82-40.87,34.6-11.62,10.24-22.66,21.18-33.18,32.65-10.98,11.97-21.53,23.99-29.4,38.42-6.54,11.99-12.97,24.07-17.78,36.76-7.91,20.83-11.4,42.57-8.35,64.91,1.61,11.8,2.8,23.71,6.68,35.09,2.78,8.15,5.71,16.26,8.18,24.5,2.01,6.71,4.92,13.12,7.39,19.61,2.56,6.75,5.24,13.67,8.83,20.11,4.07,7.3,6.93,15.44,11.89,22.04,6.56,8.74,12.16,18.06,18.41,26.97,3.77,5.38,6.85,11.44,10.96,16.31,8.75,10.38,19.01,19.46,28.24,29.5,6.92,7.52,14.25,14.67,21.93,21.53,13.78,12.31,27.06,22.99,41.62,34.31.05.04.11.09.17.13h.02c.27.2.64.52.95.66.15.06.64.44.79.49l.18.1c1,.54,2.01,1.07,3.17,1.63,3.09,1.48,6.61,1.82,10.02,2.14,3.39.32,6.73.13,10.13-.02,1.52-.07,3.11-.2,4.63-.08.87.07,1.64.5,2.15,1.16.09.07.19.13.29.2,10.11,6.93,19.55,14.8,28.64,22.92,14.58,13.01,29.19,26.08,42,40.91,3.08,3.56,7.11,6.57,9.07,11.7-1.27-.18-1.95-.15-2.54-.39-10.76-4.33-21.71-8.28-32.17-13.23-5.43-2.57-11.2-4.36-16.4-7.44-13.3-7.85-26.88-15.16-40.06-23.28-11.46-7.06-23.13-13.7-34.01-21.71-17.46-12.85-33.82-26.86-49.24-42.12-20.89-20.67-39.32-43.25-56.22-67.26-9.2-13.07-17.01-26.86-24.71-40.77-5.24-9.47-10.35-19.02-15.24-28.68-2.78-5.49-5.27-11.16-7.41-16.92-1.69-4.55-3.43-9.07-5.13-13.61-1.5-3.99-3.62-7.7-4.9-11.75-2.61-8.24-4.73-16.65-7.71-24.75-2-5.44-3.74-11.09-4.95-16.57-2.27-10.26-5-20.45-7.18-30.73-2.05-9.64-3.6-19.51-5.25-29.12-2.1-12.22-3.23-24.97-3.47-37.4-.31-15.72-1.27-31.47.45-47.28.03-4.38.16-8.74.54-13.11.81-9.15,2.01-18.24,3.07-27.37.31-2.68.63-5.4,1.25-8.05.05-.65.12-1.31.18-1.96.09-1.66.31-3.31.68-4.93.18-1.04.38-2.07.61-3.1.43-1.91.97-3.79,1.65-5.61.22-1.76.74-3.48,1.3-5.16.3-.89.58-1.79.87-2.68,2.12-11.22,4.92-22.32,8.08-33.29,1.6-5.56,3.21-11.11,5.31-16.51.1-.26.22-.52.33-.77.19-.74.43-1.46.69-2.16.01-.06.02-.12.04-.18.17-.69.4-1.36.67-2.01.83-4.03,2.2-7.92,3.67-11.43,3.15-7.51,6.08-15.17,8.5-22.83,3.02-9.58,7.61-18.46,11.69-27.4,7.47-16.42,15.66-32.59,24.44-48.43,5.34-9.64,11.17-18.91,17.36-27.98,6.8-9.96,14.11-19.54,21.77-28.89,7.24-8.83,14.7-17.51,22.89-25.34,16.26-15.55,31.86-31.8,49.78-45.66,10.43-8.06,21-16.09,30.76-25,4.58-4.18,10.29-6.49,14.88-10.43,3.14-2.69,6.29-5.21,9.82-7.42.25-.16.47-.33.71-.5.16-.17.32-.34.47-.52.15-.19.31-.37.46-.56h.01s0-.02.02-.04c.05-.06.09-.13.14-.19.08-.11.15-.22.23-.33h0c1.87-5.26,2.17-11.55-2.14-15.46-3.33-3.02-8.11-3.98-12.46-3.19-1.32.24-2.64.59-3.95.99-10.62,5.31-21.9,9.21-32.47,14.6-7.59,3.87-15.93,5.77-23.46,9.92-12.69,6.99-25.46,13.85-37.39,22.03-7.61,5.21-15.16,10.57-22.45,16.3-7.78,6.12-16.24,11.46-23.39,18.32-12.29,11.79-24.15,24.03-36.23,36.04-8.23,8.19-15.32,17.35-22.59,26.35-9.97,12.34-19.83,24.77-28.69,37.96-5.4,8.04-10.7,16.13-15.22,24.74-2.29,4.37-4.08,9.05-6.81,13.12-6.19,9.21-10.7,19.29-15.8,29.07-2.72,5.21-4.45,10.87-6.84,16.15-4.44,9.79-8.39,19.78-11.73,29.91-2.88,8.75-6.87,17.06-9.37,25.91-2.41,8.54-5.3,17-6.97,25.69-1.52,7.91-3.61,15.67-4.72,23.74-1.16,8.37-3.02,16.64-4.25,25.01-.07.91-.26,1.8-.33,2.72-.1,1.16-.09,2.34-.15,3.51-.09,1.74-.22,3.49-.39,5.23,0,1.81-.16,3.61-.38,5.41.02,1.23-.1,2.46-.29,3.69,0,.31-.01.62-.03.93-.04,4.46-.16,8.91-.41,13.36-.29,4.97-.73,9.93-1.29,14.89-.16,4.22-.11,8.43-.2,12.65-.09,4.17-.47,8.31-.97,12.45-.5,4.16-1.07,8.31-1.36,12.49-.09,1.36-.14,2.72-.24,4.07.12,1.64.3,3.27.36,4.91.06,1.7.06,3.41,0,5.11.17,3.22.34,6.44.45,9.67.08,2.4.14,4.8.2,7.21.08.69.18,1.38.28,2.07v.04c.34,1.55.54,3.11.71,4.68.11.8.2,1.6.26,2.4.37,3.51.78,7.01,1.25,10.51.96,7.23,2.08,14.45,2.76,21.72.68,7.26,1.75,14.48,2.84,21.69.82,5.49,1.65,10.97,2.32,16.48,1.07,5.52,2.48,10.96,3.7,16.44.5,2.23.92,4.49,1.18,6.77.85,3.46,1.63,6.96,2.44,10.42,2.29,9.86,5.93,19.42,9.25,29.02,2.23,6.44,4.23,13.01,6.67,19.3.42,1.09.68,2.25.91,3.42.2.46.4.93.61,1.39.64,1.35,1.24,2.71,1.79,4.11.38.98.76,1.96,1.12,2.94,2.25,3.33,3.01,7.27,4.37,10.82,2.7,7.04,5.89,13.8,9.04,20.61,4.02,8.71,9.41,16.64,13.99,24.99,3.86,7.03,7.45,14.28,11.57,21.15,7.79,12.98,16.28,25.54,25.59,37.51,12.79,16.46,25.27,33.18,40.3,47.76,3.93,3.81,8.02,7.47,11.73,11.48,16,17.28,33.56,32.81,52.52,46.72,12.34,9.06,24.1,18.93,37.48,26.55,10.72,6.1,21.33,12.39,31.75,18.97,7.77,4.91,15.83,9.27,23.91,13.6,7.32,3.93,14.59,8.09,22.27,11.17,9.14,3.66,17.94,8.03,27.03,11.77,9.63,3.95,19.32,7.77,28.8,12.06,7.82,3.54,16.36,4.94,24.12,8.73,3.43,1.67,7.4,2.45,11.1,3.68,3.99,1.33,8.08,2.38,11.84,4.09,3.42,1.22,7.02,1.93,10.57,2.65,3.73.75,7.44,1.18,11.25,1.22,3.68.04,7.39.13,11.08-.06,1.29-.07,2.59-.18,3.88-.37.04-.02.08-.03.12-.05.78-.35,1.55-.72,2.3-1.11.35-.18.8-.37,1.21-.6,4.3-3.61,6.88-8.83,9.79-13.61,3.23-5.3,4.98-10.91,5.87-16.7,0-.15.01-.31.02-.46.21-4.65.63-9.28.78-13.93-.02-1.3-.06-2.59-.11-3.9-.28-7.15-.19-14.33-.06-21.49.25-14.24-4.13-27.15-9.32-40.3-8.14-20.63-21.05-38.1-34.32-55.24-12.07-15.59-26.58-29.15-41.06-42.6-5.36-4.97-11.18-9.31-17.06-13.58-2.27-1.65-4.28-3.41-6.31-6.33,7.78,1.37,13.23,5.86,19.03,9.36,4.74,2.86,9.42,5.87,14.15,8.78,15.57,9.56,30.55,19.92,44.31,32.08,13.76,12.15,27.35,24.3,38.91,38.74,6.92,8.64,14.37,16.9,19.95,26.45,5.19,8.89,10.33,18.02,13.8,27.65,3.89,10.8,7.64,21.79,9.56,33.24.41,2.43,1.51,4.67,2.55,6.96,4.41,9.69,21.92,7.98,28,1.93.02-.02.05-.07.07-.09.07-.09.14-.19.21-.28.1-.14.19-.3.27-.45.43-1.02.85-2.05,1.23-3.09,1.53-4.1,2.37-8.38,3.71-12.53,1.68-12,7.34-22.29,12.22-33.12,5.58-12.4,12.64-23.77,20.33-34.79,4.51-6.47,10.24-12.09,15.4-18.11,9.07-10.59,19.29-20.18,30.17-28.66,12.32-9.61,23.7-20.46,37.37-28.49,10.63-6.25,20.87-13.26,31.82-18.98,3.08-1.61,6.01-3.58,9.93-5.65-1.61,4.19-4.53,5.91-6.85,8.01-7.61,6.87-15.92,13.04-23.06,20.35-12.82,13.13-24.5,27.28-35.79,41.79-7.93,10.19-14.82,21-21.11,32.16-4.87,8.63-8.5,17.9-11.88,27.34-5.56,15.54-6.69,31.4-6.69,47.55,0,9.78,1.49,19.5,4.59,28.65,2.81,8.3,7.36,15.79,13.95,21.72.02.01.04.02.05.03.24.14.49.27.74.39.2.1.4.2.6.3.83.21,1.69.36,2.52.52,1.44.29,2.88.57,4.33.84,2.05.37,4.11.69,6.18.9.97.01,1.94.02,2.9.03h2.25c.18-.03.37-.04.55-.05,6.3-1.02,12.57-2.22,18.71-3.93.02-.01.05-.02.07-.04.99-.47,2.04-.76,3.04-1.18.11-.05.23-.12.34-.17,6.06-2.6,12.68-4.2,19.16-5.7,1.52-.49,3.07-.91,4.63-1.25.51-.11,1-.23,1.5-.36.55-.17,1.09-.35,1.63-.53.46-.18.92-.35,1.39-.47,3.28-1.13,6.51-2.36,9.81-3.39,8.27-2.6,16.14-6.45,24.3-9.42,10.96-3.99,21.19-9.67,32.3-13.35,7.11-2.35,13.47-6.63,20.5-9.4,5.29-2.08,10.99-3.79,15.62-6.81,8-5.24,16.5-9.58,24.49-14.79,8.67-5.66,17.9-10.4,26.62-16.04,6.52-4.21,13.33-8.36,19.98-12.44,5.75-3.53,11.28-8,16.76-12.25,13.31-10.32,26.81-20.52,39.03-32.04,21.59-20.36,42.47-41.49,60.51-65.2,7.09-9.32,14.91-18.17,21.23-27.98,7.27-11.28,14.48-22.63,20.8-34.57,7.57-14.29,17.13-27.47,22.79-42.86,2.91-7.89,6.62-15.16,9.81-23.36s6.93-16.77,10.04-25.36c3.3-9.12,6.42-18.28,9.6-27.44.77-2.23,1.19-4.76,1.79-7.01.02-.12.04-.23.07-.35.09-.36.19-.72.29-1.07.41-2.4,1.3-4.53,1.68-6.92.66-4.19,1.62-8.3,2.54-12.43.51-3.54,1.02-7.08,1.72-10.58,1.24-6.29,2.74-12.5,3.72-18.85.99-6.42,2.14-12.81,3.09-19.23.97-6.59,1.69-13.21,2.32-19.85.31-3.25.59-6.5.86-9.76.12-1.5.25-2.98.51-4.46.02-.1.25-4.54.27-4.64.34-25.98.04-47.61-.32-73.58l.02-.06ZM795.2,190.93c.05-.1.1-.2.15-.29.1,0,.23-.03.29.02.08.06.1.19.15.29h-.6v-.02ZM1101.95,732.45c-2.99,24.64-7.37,49.08-14.08,73.04-5.34,19.08-12.16,37.63-19.29,56.11-8.97,23.23-20.74,45-32.62,66.78-12.09,22.16-26.76,42.55-42.18,62.41-10.32,13.29-21.41,25.96-33.05,38.1-14.84,15.48-30.77,29.78-47.38,43.38-20.67,16.93-42.89,31.59-65.64,45.38-16.62,10.08-33.96,19.03-51.34,27.76-28.6,14.38-58.57,25.52-88.79,35.97-12.54,4.34-25.23,8.25-37.82,12.39-15.37,5.06-24,3.29-31.29-14.79-5.85-14.5-6.7-29.58-4.73-45.1,3.32-26.21,14.65-48.85,29.23-70.32,20.57-30.29,45.27-56.67,73.91-79.41.04-.67.36-.96,1.04-.79,2.38-1.74,4.77-3.48,7.15-5.23-.13-.69.14-.9.79-.67.35-.26.69-.52,1.04-.79.3-1.47.99-2.48,2.7-2.25.81-.56,1.62-1.11,2.43-1.67-.07-1.27.55-1.57,1.66-1.2.79-.6,1.57-1.19,2.35-1.79.88-2.88,2.75-4.36,5.84-4.12.36-.29.72-.59,1.08-.88-.19-1.27.43-1.63,1.57-1.41,2.94-2.28,5.93-4.49,8.79-6.86,2.33-1.93,3.5-8.79,1.93-11.2-1.81-2.78-4.59-1.83-6.78-1.03-5.61,2.04-11.15,4.35-16.59,6.83-21.96,10.02-43.39,21.08-63.52,34.46-31.18,20.73-60.15,44.13-84.6,72.66-15.14,17.67-27.47,37.24-36.23,58.9-3.82,9.44-6.21,19.36-7.8,29.35-.96,6.02-4.83,5.89-8.91,6.41-4.23.53-5.01-2.6-5.48-5.63-3.41-22.06-11.84-42.15-23.57-60.99-14.54-23.37-32.68-43.6-53.01-62.07-22.3-20.27-46.94-37.24-72.71-52.59-11.4-6.79-23.76-11.93-35.44-18.27-8.19-4.45-16.66-8.19-25.25-11.72-1.85-.76-3.73-1.51-5.66-1.97-2.85-.67-6.02-.75-7.64,2.03-1.63,2.8.52,4.96,2.55,6.85,11.12,10.33,23.53,19.03,35.54,28.24,12.29,9.42,25.42,17.88,36.58,28.62,28.61,27.52,54.7,57.18,69.54,94.71,9.72,24.57,11.8,50.13,4.38,75.86-1.96,6.81-4.73,13.57-11.87,17.16-1.38.69-2.61,1.17-4.13,1.32-9.6.99-18.23-1.48-27.02-5.47-10.07-4.56-20.88-7.52-31.43-10.98-15.84-5.19-31.24-11.47-46.48-18.17-27.48-12.07-53.95-26.14-79.93-41.13-20.64-11.91-40.25-25.41-59.12-39.9-28.2-21.66-53.53-46.41-76.79-73.3-19.21-22.22-36.12-46.13-50.94-71.41-14.72-25.09-27.74-51.06-37.76-78.52-14.28-39.11-24.16-79.19-29.7-120.46-4.69-34.95-6.91-69.95-4.49-105.14,2.41-35.12,7.11-70,15.72-104.12,9.02-35.75,22.48-69.97,39-103.02,15.24-30.47,33.31-59.05,54.61-85.58,23.73-29.56,49.76-56.79,79.61-80.4,22.23-17.59,46.38-31.88,71.66-44.29,15.34-7.54,31.4-13.63,47.16-20.29,1.46-.62,3.03-1.46,5.13-.76-.36,2.63-2.17,4.47-4.05,5.69-17.72,11.49-33.76,25.15-50.15,38.37-28.86,23.27-55.08,49.21-78.59,77.86-19.85,24.19-35.78,50.9-49.95,78.72-7.59,14.91-14.52,30.15-20.74,45.64-9.08,22.6-17.45,45.48-23.64,69.15-5.16,19.71-9.19,39.63-11.95,59.71-2.53,18.39-5.2,36.85-4.25,55.65.86,16.94-.39,33.99.52,50.93.7,13.05,2.88,26.05,4.86,39.03,3.42,22.45,8.98,44.35,15.42,66.07,4.36,14.7,9.92,28.96,16.03,43,2.73,6.28,4.78,12.81,7.83,18.98,14.73,29.82,31.15,58.6,50.83,85.47,5.52,7.54,11.73,14.5,17.58,21.76,16.33,20.28,34.68,38.46,54.23,55.69,28.97,25.54,61.66,45.2,95.12,63.86,12.89,7.19,26.73,12.29,40.09,18.44,11.05,5.08,22.38,9.37,33.85,13.36,3.87,1.35,9.05,3.87,11.6.6,2.41-3.1-1.45-7.4-3.74-10.58-17.42-24.2-38.18-45.29-60.64-64.78-9.06-7.86-18.04-15.8-27.73-22.9-3.74-2.74-7.81-4.79-11.94-6.81-4.24,2.29-8.42,5.79-13.54,3.21-4.79-2.41-9.92-4.26-14.14-7.76-14.45-11.98-29.76-22.95-43.26-36.05-14.58-14.14-29.1-28.43-41.95-44.14-11.78-14.41-21.58-30.34-31.18-46.3-4.71-7.83-9.56-15.66-13.33-23.96-4.8-10.55-8.64-21.54-12.75-32.4-5.77-15.26-9.52-31.05-12.89-47.01-2.66-12.61-2.72-25.25-1.62-37.74,1.01-11.45,4.38-22.68,8.5-33.6,7.1-18.81,15.9-36.68,28.29-52.52,16.66-21.3,36.07-39.91,56.59-57.55,15.76-13.55,31.96-26.56,48-39.74,15.66-12.87,32.68-24,49.28-35.67,10.74-7.55,21.74-14.83,32.92-21.49,9.35-5.56,19.27-10.41,28.3-16.57,19.51-13.32,38.78-27.05,54.96-44.48,15.61-16.81,31.59-33.26,44.6-52.39,11.48-16.87,21.79-34.24,29.15-53.28,4.78-12.37,6.86-25.33,7.48-38.52.12-2.53.7-4.84,1.99-7.18,2.48,2.3,3.31,5.02,4.07,8.21,1.88,7.87,4.4,15.59,5.71,23.61,2.93,17.98,3.88,35.83.12,53.97-4.01,19.34-16.08,33.18-28.93,46.77-3.66,3.87-7.28,7.77-11.01,11.57-1.95,1.98-2.43,3.9-.44,6.09.22.25.43.51.65.76,1.53,1.69.23,5.26,3.21,5.73,3.31.52,6.61-.56,9.68-1.84,18.09-7.55,31.56-20.81,43.36-35.89,7.17-9.17,13.48-19.01,18.88-29.34,4.39-8.39,7.68-17.26,10.65-26.29,5.29-16.08,7.92-32.62,9.66-49.34.79-7.59,1.83-15.28,1.27-22.97-.48-6.51-.28-13.1-1.49-19.73-3.41-18.62-5.58-37.56-12.47-55.34-7.04-18.16-15.09-35.9-24.77-52.85-6.67-11.68-12.82-23.68-21.43-34.12-14.77-17.9-28.18-36.86-45.33-52.85-11.59-10.8-21.95-22.98-33.11-34.53,4.43.66,8.12,2.97,11.46,5.57,10.38,8.06,20.57,16.39,31.4,23.85,19.21,13.23,37.19,28.09,55.15,42.89,16.65,13.72,32.41,28.49,46.28,45.29,9.55,11.57,18.88,23.22,26.95,35.84,4.64,7.25,9.08,14.62,11.98,22.85,2.17,6.14,5.32,11.94,7.53,18.07,2.14,5.94,3.24,6.52,5.54,12.85,1.59,4.39,4.12,14.03,5.44,18.9,6.31,23.3,11.54,46.87,15.8,70.58,4.85,26.98,4.49,53.84-5.36,80.15-5.14,13.73-10.69,27.18-17.39,40.2-1.74,3.38-4.85,7.47-5.75,11.47-.53,2.33,3.59,12,5.52,12.9,4.18,1.94,8.05.79,11.63-1.88,9.21-6.88,16.87-15.45,21.31-25.83,4.76-11.13,9.5-22.43,11.59-34.64.82-4.79,3.28-9.32,2.75-14.44-.09-.85.33-1.8,1.27-1.88,1.46-.12,1.99,1.14,2.26,2.25,2.13,9.02,4.78,17.96,6.13,27.09,2.24,15.13,3.91,30.35,3.27,45.73-.5,11.88-2.85,23.38-6.54,34.63-1.51,4.61-2.49,4.78-5.45,1.31-2.12-2.48-4.91-3.39-7.92-3.77-9.6-1.2-18.91-1.33-25.82,7.26-4.89,6.08-9.78,12.12-13.38,19.14-2.98,5.79-3.22,11.85-.77,17.37,6.12,13.79,2.96,26.38-3.31,38.99-5.88,11.84-14.46,21.74-22.12,32.34-11.43,15.81-19.13,33.07-22.95,52.64-2.75,14.05-.31,27.2,1.91,40.33,2.18,12.93,8.49,24.94,19.26,33.38,7.71,6.04,16.36,10.61,26.11,12.95,22.2,5.31,41.32-1.18,59.53-13.76,11.96-8.27,21.73-18.56,29.98-30.09,4.84-6.77,7.27-15.37,10.28-23.34,5.63-14.94,10.08-30.21,12.54-46.07,2.26-14.6,1.06-29.24,1.58-43.85.07-1.84-1.55-5.84.61-6,2.92-.21,2.19,4.02,2.79,5.89,1.61,5.01,2.28,10.2,4.57,15.14,2.45,5.3,3.13,11.42,4.54,17.19,2.29,9.36,3.27,18.86,3.97,28.49,1.27,17.4-2.11,35.52-11.51,48.13-2.69,3.6-3.21,8.28-5.34,12.28-2.27,4.27-.02,6.51,4.76,7.06,18.03,2.07,31.66-6.23,44.21-17.82,16.25-15.01,26.35-33.59,31.57-54.75,2.32-9.41,5.68-18.83,4.78-28.87-.15-1.64.16-3.76,2.01-4.13,2.23-.44,2.99,1.71,3.63,3.4,1.54,4.1,3.98,7.69,6.9,10.79,5.57,5.91,13.95,4.3,17.78-2.83,7.41-13.82,4.94-27.85.85-41.74-3.5-11.91-11.22-21.7-19.68-30.21-16.19-16.28-21.53-36.1-22.37-58-.56-14.67-.13-29.3,2.11-43.79,1.57-10.14,4.22-20.11,5.12-30.37.7-7.93,1.18-15.88,1.79-23.82.11-1.39-.6-3.56,1.4-3.73,2.14-.18,2.44,2.04,2.48,3.65.44,15.48,1.97,31.14-.88,46.37-1.93,10.34-2.65,20.41-.81,30.52,2.44,13.37,6.87,26.04,17.53,35.48.75.66,1.45,1.39,2.25,1.97,4.05,2.89,12.98,4.2,15.68,1.78,4.5-4.04,1.15-9.01.88-13.58-.04-.77-.69-1.5-1.02-2.26-.4-.94-.82-2.18.23-2.68,1.43-.69,2.04.63,2.47,1.73,11.27,28.6,27.49,54.97,37.88,83.95,4.21,11.73,7.25,23.73,9.22,36.13,1.59,10,1.78,19.81,1.15,29.78-.14,2.26.1,4.57,2.77,5.2,2.47.57,5.09-.26,6-2.53,1.78-4.46,6.37-7.36,6.72-12.56.08-1.19.84-2.3,2.31-2.06,1.4.22,1.83,1.42,1.78,2.63-.77,16.86,7,32.41,7.47,49.08.13,4.81,3.31,9.12,2.54,14.1-2,12.96-3.16,26.06-7.08,38.69-4.44,14.32-11.63,27.35-18.68,40.42-4.12,7.63-7.9,15.41-11.91,23.09-4.44,8.51-1.96,21.63,4.79,28.31,2.67,2.64,5.7,2.43,8.77,2.6,5.22.29,10.61,1.31,15.18-2.58.74-.63,1.96-1.07,2.65-.01,1.05,1.61-.39,2.69-1.14,3.95-6.08,10.18-15.16,17.29-24.32,24.46-9.01,7.05-16.95,15.61-26.46,21.83-10.92,7.14-19.61,16.73-29.92,24.52-10.11,7.64-19.25,16.71-26.57,27.41-4.29,6.27-10.31,11.2-13.61,18.35-2.62,5.68-6.16,10.94-8.51,16.79-1.32,3.28-3.24,6.06-6.76,7.32-9.41,8.31-19.53,15.71-29.6,23.17-36.35,26.95-70.46,56.3-98.55,92.08-4.41,5.62-8.95,11.25-11.4,18.09-1.85,5.16-1.28,5.72,4.04,5.5,5.89-.25,11.54-1.56,17.01-3.7,13.64-5.32,27.42-10.3,40.86-16.09,23.87-10.3,46.9-22.27,69.11-35.87,37.55-22.99,69.63-52.2,98.99-84.78,27.04-30.01,49.69-63,68.41-98.64,16.36-31.15,29.81-63.51,38.16-97.92,3.84-15.81,7.52-31.6,10.4-47.61,5.8-32.15,9.76-64.42,8.03-97.19-.34-6.49-1.3-12.91-2.07-19.35-.58-4.9.1-9.96-.53-14.86-3.96-30.62-10.13-60.77-18.99-90.38-6.59-22.03-14.58-43.53-23.6-64.65-8.77-20.51-18.77-40.39-30.36-59.51-10.47-17.27-20.58-34.73-32.68-50.93-11.47-15.35-23.97-29.78-37.03-43.82-23.93-25.71-51.33-47.39-78.53-69.34l-.03-.04c-5.14-3.92-9.99-8.25-15.83-11.22-1.28-.65-3.16-1.76-2.43-3.3.92-1.95,2.64-.2,3.85.24,36.59,13.4,70.95,31.18,102.76,53.67,27.02,19.1,50.87,41.74,73,66.33,21.69,24.1,40.41,50.35,57.11,78,13.51,22.36,24.98,45.84,34.48,70.24,11.62,29.85,20.89,60.4,27.4,91.74,2.87,13.84,4.55,27.93,6.68,41.91,1.41,9.27,1.67,18.56,2.36,27.85.87,11.76,3.33,23.27,3.63,35.2.64,25.4-2.99,50.35-6.02,75.36l-.09-.03Z"/>
        <path class="cls-3" d="M737.9,983.36c2.38-1.74,4.77-3.48,7.15-5.23.63.22.9,0,.79-.67.35-.26.69-.52,1.04-.78,1.55.04,2.58-.56,2.7-2.25.81-.56,1.62-1.11,2.43-1.67,1.07.32,1.58-.15,1.66-1.21.78-.6,1.57-1.19,2.35-1.78,2.3-.87,4.76-1.52,5.85-4.12.36-.29.72-.59,1.07-.88,1.19.27,1.64-.29,1.58-1.42,2.94-2.28,5.93-4.49,8.79-6.86,2.33-1.93,3.5-8.79,1.93-11.2-1.81-2.78-4.59-1.83-6.78-1.03-5.61,2.04-11.15,4.35-16.59,6.83-21.96,10.02-43.39,21.08-63.52,34.46-31.18,20.73-60.15,44.13-84.6,72.66-15.14,17.67-27.47,37.24-36.23,58.9-3.82,9.44-6.21,19.36-7.8,29.35-.96,6.02-4.83,5.89-8.91,6.41-4.23.53-5.01-2.6-5.48-5.63-3.41-22.06-11.84-42.15-23.57-60.99-14.54-23.37-32.68-43.6-53.01-62.07-22.3-20.27-46.94-37.24-72.71-52.59-11.4-6.79-23.76-11.93-35.44-18.27-8.19-4.45-16.66-8.19-25.25-11.72-1.85-.76-3.73-1.51-5.66-1.97-2.85-.67-6.02-.75-7.64,2.03-1.63,2.8.52,4.96,2.55,6.85,11.12,10.33,23.53,19.03,35.54,28.24,12.29,9.42,25.42,17.88,36.58,28.62,28.61,27.52,54.7,57.18,69.54,94.71,9.72,24.57,11.8,50.13,4.38,75.86-1.96,6.81-4.73,13.57-11.87,17.16-1.38.69-2.61,1.17-4.13,1.32-9.6.99-18.23-1.48-27.02-5.47-10.07-4.56-20.88-7.52-31.43-10.98-15.84-5.19-31.24-11.47-46.48-18.17-27.48-12.07-53.95-26.14-79.93-41.13-20.64-11.91-40.25-25.41-59.12-39.9-28.2-21.66-53.53-46.41-76.79-73.3-19.21-22.22-36.12-46.13-50.94-71.41-14.72-25.09-27.74-51.06-37.76-78.52-14.28-39.11-24.16-79.19-29.7-120.46-4.69-34.95-6.91-69.95-4.49-105.14,2.41-35.12,7.11-70,15.72-104.12,9.02-35.75,22.48-69.97,39-103.02,15.24-30.47,33.31-59.05,54.61-85.58,23.73-29.56,49.76-56.79,79.61-80.4,22.23-17.59,46.38-31.88,71.66-44.29,15.34-7.54,31.4-13.63,47.16-20.29,1.46-.62,3.03-1.46,5.13-.76-.36,2.63-2.17,4.47-4.05,5.69-17.72,11.49-33.76,25.15-50.15,38.37-28.86,23.27-55.08,49.21-78.59,77.86-19.85,24.18-35.78,50.9-49.95,78.72-7.59,14.91-14.52,30.15-20.74,45.64-9.08,22.6-17.45,45.48-23.64,69.15-5.16,19.71-9.19,39.63-11.95,59.71-2.53,18.39-5.2,36.85-4.25,55.65.86,16.94-.39,33.99.52,50.93.7,13.05,2.88,26.05,4.86,39.03,3.42,22.45,8.98,44.35,15.42,66.07,4.36,14.7,9.92,28.96,16.03,43,2.73,6.28,4.78,12.81,7.83,18.98,14.73,29.82,31.15,58.6,50.83,85.47,5.52,7.54,11.73,14.5,17.58,21.76,16.33,20.28,34.68,38.46,54.23,55.69,28.97,25.54,61.66,45.2,95.12,63.86,12.89,7.19,26.73,12.29,40.09,18.44,11.05,5.08,22.38,9.37,33.85,13.36,3.87,1.35,9.05,3.87,11.6.6,2.41-3.1-1.45-7.4-3.74-10.58-17.42-24.2-38.18-45.29-60.64-64.78-9.06-7.86-18.04-15.8-27.73-22.9-3.74-2.74-7.81-4.79-11.94-6.81-3.96-2.72-8.19-5.13-11.85-8.22-30.16-25.4-56.6-53.91-74.21-89.71-12.6-25.63-20.02-52.42-18.42-81.28.61-11.08,3.02-21.85,7.8-31.72,13.99-28.9,32.64-54.27,58.35-74.01,4.3-3.3,8.6-6.52,14.88-7.94-3.66,8.32-6.21,16.14-7.97,24.23-4.15,19.05-4.91,38.27-3.27,57.63,3.09,36.45,14.49,69.77,37.76,98.45,8.49,10.47,17.06,21.04,28.8,28.15,11.25,6.82,22.98,12.79,34.98,18.21,1.81.82,3.58,1.88,5.7,1.03-.02.52-.01,1,.67.43l-.75-.35c-.42-2.35-2.65-2.84-4.21-3.93-7.09-4.98-14.26-9.78-19.55-16.9-10.28-13.82-16.9-29.35-21.3-45.83-6.46-24.13-8.66-48.8-8.24-73.74.56-33.3,6.13-65.71,19.24-96.36,21.7-50.71,51.49-95.84,94.08-131.73,14.16-11.93,28.54-23.55,45.47-31.44,4.42-2.06,8.95-4.03,13.91-5.1.32,2.64-1.44,3.42-2.54,4.51-3.8,3.77-7.26,7.8-9.99,12.42-11.16,18.83-20.71,38.41-27.15,59.38-8.88,28.93-11.59,58.32-6.58,88.33,5.17,30.97,19.92,56.11,44.69,75.49,15.9,12.43,35.08,19.2,51.63,30.59,9.36,6.44,18.56,12.78,26.21,21.25,8.92,9.88,12.65,20.87,8.54,34.04-1.08,3.47-2.53,6.75-3.81,10.12-8.04,21.16-21.48,38.22-39.06,52.23-3.43,2.73-7.45,4.87-9.93,8.86,1.83.94,2.99-.31,4.28-.84,4.34-1.78,7.64-5.35,11.76-7.35,13.45-6.53,25.58-15.29,38.68-22.44,24.73-13.5,41.89-34.58,55.43-58.88,4.86-8.73,9.49-17.77,16.75-24.75,12.06-11.6,25.82-20.8,41.56-26.88,17.42-6.73,35.16-8.38,53.37-3.86,1.62.4,3.37.67,3.75,2.72.36,1.92-.78,3.16-2.14,4.2-1.46,1.11-3.03,2.07-4.47,3.19-3.3,2.56-6.35,5.38-8.69,8.9-2.42,3.63-1.71,7.63-.12,10.96,1.31,2.74,4.78,1.29,7.36,1.24,3.21-.06,6.2-1.03,9.24-1.94,13.1-3.89,26.41-5.43,39.93-2.61,7.1,1.48,8.46,4.33,4.76,10.53-3.93,6.59-8.56,12.51-15.57,16.45-5.95,3.34-11.48,7.48-17.02,11.5-8.71,6.32-17.36,12.75-25.88,19.29-11.71,8.98-11.43,18.55.96,26.67,1.24.82,2.61,1.5,3.99,2.05,13.63,5.46,27.81,7.87,42.46,7.27,6.25-.26,6.85.22,4.49,6.16-3.25,8.18-8.87,14.88-14.77,21.19-5.13,5.48-9.56,11.41-13.14,17.91-5.49,9.95,1.39,21.46,12.86,21.83,7.21.23,14.29-.71,21.18-2.93,1.48-.48,3.59-2.27,4.02,1.18-9.41,8.31-19.53,15.71-29.6,23.17-36.35,26.95-70.46,56.3-98.55,92.08-4.41,5.62-8.95,11.25-11.4,18.09-1.85,5.16-1.28,5.72,4.04,5.5,5.89-.25,11.54-1.56,17.01-3.7,13.64-5.32,27.42-10.3,40.86-16.09,23.87-10.3,46.9-22.27,69.11-35.87,37.55-22.99,69.63-52.2,98.99-84.78,27.04-30.01,49.69-63,68.41-98.64,16.36-31.15,29.81-63.51,38.16-97.92,3.84-15.81,7.52-31.6,10.4-47.61,5.8-32.15,9.76-64.42,8.03-97.19-.34-6.49-1.3-12.91-2.07-19.35-.58-4.9.1-9.96-.53-14.86-3.96-30.62-10.13-60.77-18.99-90.38-6.59-22.03-14.58-43.53-23.6-64.65-8.77-20.51-18.77-40.39-30.36-59.51-10.47-17.27-20.58-34.73-32.68-50.93-11.47-15.35-23.97-29.78-37.03-43.82-23.93-25.71-51.33-47.39-78.53-69.34.45-.41.41-.4-.03-.04-5.14-3.92-9.99-8.25-15.83-11.22-1.28-.65-3.16-1.76-2.43-3.3.92-1.95,2.64-.2,3.85.24,36.59,13.4,70.95,31.18,102.76,53.67,27.02,19.1,50.87,41.74,73,66.33,21.69,24.1,40.41,50.35,57.11,78,13.51,22.36,24.98,45.84,34.48,70.24,11.62,29.85,20.89,60.4,27.4,91.74,2.87,13.84,4.55,27.93,6.68,41.91,1.41,9.27,1.67,18.56,2.36,27.85.87,11.76,3.33,23.27,3.63,35.2.64,25.4-2.99,50.35-6.02,75.36-2.99,24.64-7.37,49.08-14.08,73.04-5.34,19.08-12.16,37.63-19.29,56.11-8.97,23.23-20.74,45-32.62,66.78-12.09,22.16-26.76,42.55-42.18,62.41-10.32,13.29-21.41,25.96-33.05,38.1-14.84,15.48-30.77,29.78-47.38,43.38-20.67,16.93-42.89,31.59-65.64,45.38-16.62,10.08-33.96,19.03-51.34,27.76-28.6,14.38-58.57,25.52-88.79,35.97-12.54,4.34-25.23,8.25-37.82,12.39-15.37,5.06-24,3.29-31.29-14.79-5.85-14.5-6.7-29.58-4.73-45.1,3.32-26.21,14.65-48.85,29.23-70.32,20.57-30.29,45.27-56.67,73.91-79.41.64.13,1.02-.1,1.04-.79l-.07.03Z"/>
        <path class="cls-1" d="M823.34,962.27c-.43-3.44-2.54-1.65-4.02-1.18-6.9,2.22-13.97,3.15-21.18,2.93-11.47-.36-18.36-11.88-12.86-21.83,3.59-6.5,8.02-12.42,13.14-17.91,5.9-6.31,11.52-13.01,14.77-21.19,2.36-5.94,1.76-6.41-4.49-6.16-14.65.6-28.83-1.82-42.46-7.27-1.38-.55-2.75-1.24-3.99-2.05-12.38-8.12-12.66-17.69-.96-26.67,8.53-6.54,17.17-12.97,25.88-19.29,5.54-4.02,11.07-8.16,17.02-11.5,7.01-3.94,11.63-9.86,15.57-16.45,3.7-6.2,2.34-9.05-4.76-10.53-13.53-2.82-26.84-1.28-39.93,2.61-3.05.91-6.04,1.88-9.24,1.94-2.59.05-6.05,1.5-7.36-1.24-1.59-3.33-2.3-7.33.12-10.96,2.34-3.51,5.38-6.33,8.69-8.9,1.45-1.12,3.02-2.08,4.47-3.19,1.36-1.04,2.5-2.29,2.14-4.2-.39-2.05-2.13-2.32-3.75-2.72-18.21-4.52-35.95-2.87-53.37,3.86-15.73,6.08-29.49,15.28-41.56,26.88-7.25,6.97-11.89,16.02-16.75,24.75-13.54,24.3-30.69,45.39-55.43,58.88-13.1,7.15-25.23,15.9-38.68,22.44-4.12,2-7.42,5.57-11.76,7.35-1.29.53-2.45,1.77-4.28.84,2.48-3.99,6.5-6.12,9.93-8.86,17.59-14.01,31.02-31.07,39.06-52.23,1.28-3.37,2.73-6.65,3.81-10.12,4.11-13.17.38-24.16-8.54-34.04-7.65-8.47-16.85-14.81-26.21-21.25-16.55-11.39-35.73-18.15-51.63-30.59-24.77-19.37-39.52-44.51-44.69-75.49-5.01-30.01-2.3-59.4,6.58-88.33,6.44-20.97,15.99-40.55,27.15-59.38,2.73-4.61,6.2-8.64,9.99-12.42,1.1-1.09,2.86-1.88,2.54-4.51-4.95,1.07-9.48,3.04-13.91,5.1-16.93,7.88-31.31,19.51-45.47,31.44-42.59,35.89-72.38,81.02-94.08,131.73-13.12,30.66-18.68,63.07-19.24,96.36-.42,24.94,1.78,49.6,8.24,73.74,4.41,16.47,11.03,32.01,21.3,45.83,5.29,7.12,12.46,11.92,19.55,16.9,1.55,1.09,3.79,1.58,4.21,3.93l.08-.08c-2.11.85-3.89-.21-5.7-1.03-12-5.42-23.73-11.4-34.98-18.21-11.74-7.11-20.31-17.68-28.8-28.15-23.27-28.68-34.67-62-37.76-98.45-1.64-19.36-.87-38.58,3.27-57.63,1.76-8.09,4.31-15.91,7.97-24.23-6.27,1.42-10.58,4.64-14.88,7.94-25.71,19.74-44.36,45.11-58.35,74.01-4.78,9.87-7.18,20.64-7.8,31.72-1.6,28.86,5.82,55.66,18.42,81.28,17.61,35.8,44.05,64.31,74.21,89.71,3.66,3.08,7.88,5.49,11.85,8.22-4.24,2.29-8.42,5.79-13.54,3.21-4.79-2.41-9.92-4.26-14.14-7.76-14.45-11.98-29.76-22.95-43.26-36.05-14.58-14.14-29.1-28.43-41.95-44.14-11.78-14.41-21.58-30.34-31.18-46.3-4.71-7.83-9.56-15.66-13.33-23.96-4.8-10.55-8.64-21.54-12.75-32.4-5.77-15.26-9.52-31.05-12.89-47.01-2.66-12.61-2.72-25.25-1.62-37.74,1.01-11.45,4.38-22.68,8.5-33.6,7.1-18.81,15.9-36.68,28.29-52.52,16.67-21.3,36.07-39.91,56.59-57.55,15.76-13.55,31.96-26.56,48-39.74,15.66-12.87,32.68-24,49.28-35.67,10.74-7.55,21.74-14.83,32.92-21.49,9.35-5.56,19.27-10.41,28.3-16.57,19.51-13.32,38.78-27.05,54.96-44.48,15.61-16.81,31.59-33.26,44.6-52.39,11.48-16.87,21.79-34.24,29.15-53.28,4.78-12.37,6.86-25.33,7.48-38.52.12-2.53.7-4.84,1.99-7.18,2.48,2.3,3.31,5.02,4.07,8.21,1.88,7.87,4.4,15.59,5.71,23.61,2.93,17.98,3.88,35.83.12,53.97-4.01,19.34-16.08,33.18-28.93,46.77-3.66,3.87-4.41,5-7.74,9.89-1.57,2.3-1.26,1.36-2.67,4.91-.12.31-.63,2.26-.19,3.55,1.3,1.82,1.7,2.44,4.5,3.7,3.31.52,5,.87,8.19.26,18.09-7.55,31.56-20.81,43.36-35.89,7.17-9.17,13.48-19.01,18.88-29.34,4.39-8.39,7.68-17.26,10.65-26.29,5.29-16.08,7.92-32.62,9.66-49.34.79-7.59,1.83-15.28,1.27-22.97-.48-6.51-.28-13.1-1.49-19.73-3.41-18.62-5.58-37.56-12.47-55.34-7.04-18.16-15.09-35.9-24.77-52.85-6.67-11.68-12.82-23.68-21.43-34.12-14.77-17.9-28.18-36.86-45.33-52.85-11.59-10.8-21.95-22.98-33.11-34.53,4.43.66,8.12,2.97,11.46,5.57,10.38,8.06,20.57,16.39,31.4,23.85,19.21,13.23,37.19,28.09,55.15,42.89,16.65,13.72,32.41,28.49,46.28,45.29,9.55,11.57,18.88,23.22,26.95,35.84,4.64,7.25,9.08,14.62,11.98,22.85,3.06,5.93,4.69,10.27,6.9,16.4,2.14,5.94,3.73,7.94,6.17,14.52,1.81,4.14,4.12,14.03,5.44,18.9,6.31,23.3,11.54,46.87,15.8,70.58,4.85,26.98,4.49,53.84-5.36,80.15-5.14,13.73-10.69,27.18-17.39,40.2-1.74,3.38-3.52,6.05-4.44,10.58-1.67,4.48,2.27,12.89,4.21,13.79,4.18,1.94,8.05.79,11.63-1.88,9.21-6.88,16.87-15.45,21.31-25.83,4.76-11.13,9.5-22.43,11.59-34.64.82-4.79,1.53-8.05,2.15-13.16.1-.85.93-3.08,1.87-3.16,1.46-.12,1.99,1.14,2.26,2.25,2.13,9.02,4.78,17.96,6.13,27.09,2.24,15.13,3.91,30.35,3.27,45.73-.5,11.88-2.85,23.38-6.54,34.63-1.51,4.61-2.49,4.78-5.45,1.31-2.12-2.48-4.91-3.39-7.92-3.77-9.6-1.2-18.91-1.33-25.82,7.26-4.89,6.08-9.78,12.12-13.38,19.14-2.98,5.79-3.22,11.85-.77,17.37,6.12,13.79,2.96,26.38-3.31,38.99-5.88,11.84-14.46,21.74-22.12,32.34-11.43,15.81-19.13,33.07-22.95,52.64-2.75,14.05-.31,27.2,1.91,40.33,2.18,12.93,8.49,24.94,19.26,33.38,7.71,6.04,16.36,10.61,26.11,12.95,22.2,5.31,41.32-1.18,59.53-13.76,11.96-8.27,21.73-18.56,29.98-30.09,4.84-6.77,7.27-15.37,10.28-23.34,5.63-14.94,10.08-30.21,12.54-46.07,2.27-14.6,1.06-29.24,1.58-43.85.07-1.84-1.56-6.25.46-6.53,2.99-.29,2.34,4.55,2.94,6.42,1.61,5.01,2.28,10.2,4.57,15.14,2.45,5.3,3.13,11.42,4.54,17.19,2.29,9.36,3.27,18.86,3.97,28.49,1.27,17.4-1.06,33.28-10.21,48.47-2.27,4.55-4.51,7.95-6.63,11.95-2.27,4.27-.02,6.51,4.76,7.06,18.03,2.07,31.66-6.23,44.21-17.82,16.25-15.01,26.35-33.59,31.57-54.75,2.32-9.41,5.68-18.83,4.78-28.87-.15-1.64.16-3.76,2.01-4.13,2.23-.44,2.99,1.71,3.63,3.4,1.54,4.1,3.98,7.69,6.9,10.79,5.57,5.91,13.95,4.3,17.78-2.83,7.41-13.82,4.94-27.85.85-41.74-3.5-11.91-11.22-21.7-19.68-30.21-16.19-16.28-21.53-36.1-22.37-58-.56-14.67-.13-29.3,2.11-43.79,1.57-10.14,4.22-20.11,5.12-30.37.7-7.93,1.18-15.88,1.79-23.82.11-1.39-.6-3.56,1.4-3.73,2.14-.18,2.44,2.04,2.48,3.65.44,15.48,1.97,31.14-.88,46.37-1.93,10.34-2.65,20.41-.81,30.52,2.44,13.37,6.87,26.04,17.53,35.48.75.66,1.45,1.39,2.25,1.97,4.05,2.89,12.98,4.2,15.68,1.78,4.5-4.04,1.62-8.69.36-13.32-.23-.92-.63-1.65-.78-2.56-.17-1.01-.53-2.15.51-2.65,1.43-.69,2.04.63,2.47,1.73,11.27,28.6,27.49,54.97,37.88,83.95,4.21,11.73,7.25,23.73,9.22,36.13,1.59,10,1.78,19.81,1.15,29.78-.14,2.26.1,4.58,2.77,5.2,2.47.57,5.09-.26,6-2.53,1.78-4.46,6.37-7.36,6.72-12.56.08-1.19.84-2.3,2.31-2.06,1.4.22,1.83,1.42,1.78,2.63-.77,16.86,6.88,35.33,8.99,47.3.5,5.17,1.78,10.9,1.02,15.88-2,12.96-3.16,26.06-7.08,38.69-4.44,14.32-11.63,27.35-18.68,40.42-4.12,7.63-7.9,15.41-11.91,23.09-4.44,8.51-1.96,21.63,4.79,28.31,2.67,2.64,5.7,2.43,8.77,2.6,5.22.29,10.62,1.31,15.18-2.58.74-.63,1.96-1.07,2.65-.01,1.05,1.61-.39,2.69-1.14,3.95-6.08,10.18-15.16,17.29-24.32,24.46-9.01,7.05-16.95,15.61-26.46,21.83-10.92,7.14-19.61,16.73-29.92,24.52-10.11,7.64-19.25,16.71-26.57,27.41-4.29,6.27-10.31,11.2-13.61,18.35-2.62,5.68-6.16,10.94-8.51,16.79-1.32,3.28-3.24,6.06-6.76,7.32l-.04-.06Z"/>
        <path class="cls-2" d="M795.36,190.64c.1,0,.23-.04.29,0,.08.06.1.19.15.29h-.6c.05-.1.1-.2.15-.29h0Z"/>
        <path class="cls-1" d="M814.97,206.43c.44-.37.48-.37.03.04l-.03-.04Z"/>
        <path class="cls-1" d="M396.92,929.31l.75.35c-.68.57-.69.09-.67-.43l-.08.08Z"/>
        <polyline class="cls-2" points="736.58 982.89 737.9 983.36 736.86 984.15"/>
        <polyline class="cls-5" points="745.05 978.14 745.84 977.47 744.25 976.49"/>
        <polyline class="cls-3" points="746.88 976.68 749.58 974.44 749.94 977.44"/>
        <polyline class="cls-4" points="736.81 984.18 737.9 983.36 737.83 984.74"/>
        <polyline class="cls-4" points="745 978.18 745.84 977.47 746.04 978.67"/>
        <polyline class="cls-4" points="751.88 972.86 765.38 962.7 769.83 994.48"/>
        <polyline class="cls-5" points="746.66 976.83 768.61 960.22 739.7 962.7"/>
      </g>
    </g>
  </g>
</svg>