<?xml version="1.0" encoding="UTF-8"?>
<svg xmlns="http://www.w3.org/2000/svg" viewBox="0 0 1161.88 1161.88">
  <defs>
    <style>
      .cls-1 {
        fill: #0652d6;
      }

      .cls-2 {
        fill: #eff5fb;
      }

      .cls-3 {
        fill: #d3e7f5;
      }

      .cls-4 {
        fill: #d3e6f7;
      }

      .cls-5 {
        fill: #f8fafb;
      }

      .cls-6 {
        fill: #d2e4f4;
      }

      .cls-7 {
        fill: #fafbfc;
      }

      .cls-8 {
        fill: #dbe9f6;
      }

      .cls-9 {
        fill: #f1f5f8;
      }

      .cls-10 {
        fill: #eff5fa;
      }

      .cls-11 {
        fill: #eef5f9;
      }

      .cls-12 {
        fill: #dcedf8;
      }

      .cls-13 {
        fill: #f0f7fb;
      }

      .cls-14 {
        fill: #f5f8fa;
      }

      .cls-15 {
        fill: #f3f7fa;
      }

      .cls-16 {
        fill: #d8e8f6;
      }

      .cls-17 {
        fill: #e9f1f8;
      }

      .cls-18 {
        fill: #f9fbfc;
      }

      .cls-19 {
        fill: #cee7f5;
      }

      .cls-20 {
        fill: #d6e4f2;
      }

      .cls-21 {
        fill: #125fd4;
      }

      .cls-22 {
        fill: #e1ecf6;
      }

      .cls-23 {
        fill: #e4f0f8;
      }

      .cls-24 {
        fill: #f5f9fb;
      }

      .cls-25 {
        fill: #1461d6;
      }

      .cls-26 {
        fill: #f7f9fb;
      }

      .cls-27 {
        fill: #c8dff4;
      }

      .cls-28 {
        fill: #fbfcfc;
      }

      .cls-29 {
        fill: #fcfcfd;
      }

      .cls-30 {
        fill: #1460d6;
      }

      .cls-31 {
        fill: #eff5f9;
      }

      .cls-32 {
        fill: #fafcfc;
      }

      .cls-33 {
        fill: #105fd6;
      }

      .cls-34 {
        fill: #0958d1;
      }

      .cls-35 {
        fill: #fdfdfe;
      }

      .cls-36 {
        fill: #f8fbfc;
      }

      .cls-37 {
        fill: #f2f7fa;
      }

      .cls-38 {
        fill: #ebf3f9;
      }

      .cls-39 {
        fill: #1360d7;
      }

      .cls-40 {
        fill: #ebf3f8;
      }

      .cls-41 {
        fill: #dcebf9;
      }

      .cls-42 {
        fill: #f3f8fb;
      }

      .cls-43 {
        fill: #edf3f9;
      }

      .cls-44 {
        fill: #1360d6;
      }

      .cls-45 {
        fill: #eef7fb;
      }

      .cls-46 {
        fill: #fdfefe;
      }

      .cls-47 {
        fill: #fcfdfd;
      }

      .cls-48 {
        fill: #f1f5fa;
      }
    </style>
  </defs>
  <g>
    <g>
      <circle class="cls-30" cx="580.94" cy="580.94" r="580.94"/>
      <path class="cls-35" d="M430.94,619.18c1.96-3.8,5.28-6.28,8.67-8.55,7.47-4.99,15.05-9.81,22.64-14.61,4.08-2.58,6.07-8.95,3.55-13.05-1.37-2.23-1.38-4.18-.8-6.59,2.84-11.73,3.57-23.67,3.07-35.69-.1-2.3-.23-4.48-3.58-2.58-1.07.6-2.58.61-3.88.56-10.67-.35-17.94,4.7-22.53,14.08-2.35-7.79,9.87-26.91,20.83-32.52.92,1.64-1.55,1.95-1.21,3.51,2.61-.31,4.83-3.35,8.3-1.46-7-25.48-12.27-51.43-29.36-73.71,12.07,7.66,39.63,46.41,50.83,81.68,9.92,31.24,11.51,62.95,10.66,95.2.55.03.99-.64,1.4-1.4,10.97-20.3,18.59-41.95,25.67-63.82.35-1.07.98-2.34-.35-3.16-3.2-1.98-2.4-4.62-.83-6.89,11.03-15.89,8.4-33.48,6.9-51.09-2.06-24.31-13.31-45.17-24.38-66.01-6.08-11.44-13.38-22.23-20.79-32.93-16.14-23.3-23.09-49.53-23.51-77.68-.01-.81.14-1.63.65-2.59.91,14.77,7.9,26.94,15.78,40.06,2.2-5.55,2.02-10.21,2.56-14.68,2.96-24.57,9.31-47.97,22.32-69.3,12.96-21.26,30.58-36.61,54.63-43.98,1.85-.57,2.7-1.48,3.25-3.26,3.41-11.15,6.74-22.3,8.57-33.85,1.36-8.6-1.5-16.19-5.61-23.32-3.16-5.48-12.56-6.13-17.09-1.61-1.23,1.23-2.25,2.67-3.94,4.7-.69-14.01.11-27.06,2.22-40,4.97-30.5,15.39-58.72,33.88-83.89,11.71-15.94,27.67-25.03,45.52-31.65,5.83-2.16,12.01-1.57,18.48-.88-3.84,2.44-3.82,2.39-8.03.66-1.88-.77-3.66.03-5.19,1.03-5.76,3.75-10.87,8.17-14.47,14.19-17.43,29.2-24.99,60.74-22.61,94.66,1.4,19.93,5.61,38.91,18.78,54.79.8.96,1.14,2.45,2.81,2.66,3.75-15.76.08-30.11-8.07-43.76,6.09,5.08,12.01,10.28,15.61,17.21,11.28,21.68,22.58,43.32,29.25,67.11,7.38,26.31,5.41,52.41.2,78.61-.72,3.6-2.74,6.7-5.06,10.43-.66-2.56-1.13-4.53-1.67-6.47-3.34-11.99-9.3-13.74-18.57-5.47-24.12,21.49-31.72,48.84-27.29,79.89,1.47,10.28,7.57,18.65,16.22,24.88,12.28,8.85,24.41,17.92,36.72,26.71,16.37,11.69,28.18,27.66,40.95,42.81,26.39,31.32,39.57,68.07,46,107.88,2.46,15.22,4.2,30.48,5.67,46.15,3.37-12.48,13.48-19.84,20.95-29.22,12.64-15.88,20.85-33.95,24.51-54.01.1-.57-.09-1.38.81-1.56,4.11,10.53,5.72,21.52,5.83,32.73.05,5.22,1.53,9.47,6.16,12.28,1.13.69,2.46,1.15.92,2.89-3.96,4.47-7.77,9.07-12.01,14.04-1.86-4.43-3.72-8.57-6.72-12.02-4.44-5.1-8.49-5.28-12.75.26-7.44,9.69-10.32,21.16-11.42,33.07-2.68,29.17,3.87,57.28,10.44,85.32,3.04,12.96,6.86,25.76,11.62,38.19,4.62,12.05,10.16,23.74,15.58,36.24,1.55-2.15,2.69-3.95,5.3-3.39,1.53.32,2.12-1.37,2.65-2.57,2.08-4.69,4.1-9.41,6.16-14.15-6.61-1.9-7.68-4.5-2.55-8.19,12.67-9.13,12.01-23.44,14.49-36.21,2.98-15.33,4.01-31.03,6.18-46.53.8-5.75,2.46-11.38,3.67-17.07.3-1.43,1.54-3.12-1.4-3.65-2.08-.37-1.46-2.4-.97-3.73,1.31-3.57,2.47-7.23,5.81-9.66,2.57-1.87,3.02-5.07,4.09-7.83,4.27-11.08,9.27-21.75,16.8-31.05,4.56-5.63,9.93-10.12,17.36-11.96-13.75,9.82-19.36,24.09-22.16,39.84-1.25,7.04-1.93,14.19-3.22,21.22-5.28,28.78-.11,56.88,6.75,84.52,5.83,23.5,10.67,47.07,12.77,71.12,1.72,19.69-1.09,39.18-4.4,58.62-5.73,33.71-17.61,64.85-37.8,92.55-40.15,55.06-92.44,92.59-158.89,109.45-.79.2-1.53.59-2.29.88-5.97,3.07-12.77,3.24-19,5.52-14.84,5.42-30.58,6.08-46.06,7.36-10.52.87-21.08,1.9-31.83.94-12.22-1.1-24.54-1.52-36.81-2.15-13.47-.7-25.91-5.31-38.81-8.14-9.1-2-17.69-5.63-26.64-8.1-.69-.19-1.02-.78-1.21-1.45-7.58-2.9-15.29-5.51-22.73-8.75-49.74-21.63-91.5-53.18-122.36-98.43-20.17-29.57-30.1-62.84-35.84-97.61-8.69-52.62,2.3-101.98,25.98-148.92,7.38-14.64,17.74-27.47,29.68-38.66,5.72-5.36,8.66-11.45,8.88-18.67.46-15.11,1.24-30.29-2.25-45.24-1.24-5.32-3.34-10.27-5.52-15.23,14.1,16.14,20.48,35.52,23.57,56.76,12.87-7.91,25.33-16.09,40.54-20.74-1.2,2.72-3.03,3.2-4.44,4.1-12.74,8.09-23.96,17.9-33.82,29.33-2.19,2.54-3.33,5.22-3.68,8.47-1.12,10.32-3.86,20.25-7.38,29.98-1.31,3.61-2.99,7.03-5.27,10.15-11.8,16.11-18.52,34.24-20.22,54.02-1.64,19.09,5.22,35.95,15.57,51.56,2.8,4.23,6.04,8.14,10.03,11.5-3.56-34.92,2.11-68.63,12.31-101.5,9.73-31.36,21.87-61.85,41.78-88.51,5.75-7.7,11.44-15.51,19.53-21.06-2.76,5.82-5.33,11.8-8.85,17.17-10.85,16.55-16.65,34.7-17.83,54.36-.33,5.53,1.87,10.47,5.05,14.85,2.34,3.23,5.46,2.81,8.37.73,3.55-2.56,6.25-5.93,8.6-9.61,17.42-27.3,27.78-57.38,35.01-88.7.31-1.36,1.48-3.06-.19-4.1-1.23-.76-2.48.49-3.67,1.01-4.92,2.14-8.72,5.29-10.52,10.65-.9,2.68-2.62,5.23-5.26,6.45-4.46,2.07-7.38,5.56-9.98,9.49-1.28,1.94-2.74,4.7-5.31,3.17-2.8-1.68-.98-4.35.11-6.62,1.43-2.97,3.48-5.63,4.46-8.83Z"/>
      <path class="cls-46" d="M717.93,1096.78c4,1.58,8.06,3.03,11.98,4.8,2.09.94,4.35,2.25,4.3,5-.05,2.72-2.36,3.95-4.4,4.96-9.35,4.63-19.51,6.54-29.68,8.1-50.14,7.69-100.65,8.81-151.23,7.98-35.92-.59-71.76-2.63-107.22-8.95-7.84-1.4-15.69-3.02-22.96-6.48-2.5-1.19-5.51-2.39-5.45-5.81.06-3.18,3.01-4.16,5.32-5.36,6.24-3.28,13.3-4.01,19.9-6.21,6.18-2.69,12.88-3.12,19.4-3.97,15.45-2,31.23-1.96,46.45-4.69,12.6-2.26,24.38-.18,36.52.89,18.74,1.65,37.47,1.66,56.27.75,11.49-.56,22.73-3.11,34.2-3.38,8.32-.19,16.36,1.78,24.52,2.93,5.22.73,10.56.88,15.83,1.43,14.48,1.51,28.96,3.08,43.13,6.57,1.11.27,2.3.48,3.11,1.45Z"/>
      <path class="cls-47" d="M646.62,332.12c7.36,15.86,18.5,28.96,28.84,42.72,11.94,15.88,16.91,34.81,19.56,54.3,1.78,13.09-.6,25.86-3.2,38.6-.22,1.07-.72,2.07-1.29,3.66-2.61-3.15-4.31-5.26-4.42-9.66-.18-6.8.93-13.84-1.23-20.58-5.36-16.77-9.65-33.96-19.18-49.09-1.27-2.02-1.66-3.5-.13-5.7,2.53-3.63,1.74-7.75.19-11.5-3.87-9.39-7.81-18.81-16.46-25.09-1.94-1.41-2.58-3.48-2.65-5.68-.12-3.93-.03-7.86-.03-11.99Z"/>
      <path class="cls-1" d="M717.93,1096.78c-11.01-1.87-21.88-4.46-33.05-5.44-7.55-.66-15.06-1.83-22.61-2.52-8.23-.76-16.47-1.3-24.72-1.81-5.14-.32-10.23-.19-15.39.55-32.79,4.71-65.58,4.68-98.36-.39-9.95-1.54-19.89.37-29.8,1-11.52.74-22.99,2.26-34.47,3.62-7.04.83-14.04,2-21.05,3.01-1.37-.3-3.19-.68-.13-1.28,6.83-1.34,13.65-2.98,20.55-3.72,15.31-1.63,30.68-2.8,46.02-4.13,2.13-.18,4.29-.73,4.49-3.06.21-2.34-2.11-2.66-3.88-3.03-12.71-2.62-25.04-6.54-37.26-10.84-1.59-.56-1.61-.52-1.7-2.16,17.19,6.31,34.81,11.64,52.89,13.78,34.16,4.05,68.44,5.98,102.79.58,15-2.35,29.72-5.96,44.68-8.34.02.51,3.11-.04.6,1.09-2.97,1.34-6.33,2.09-9.6,2.47-3.76.44-6.4,3.49-10.13,3.8-.94.08-1.58,1.05-1.08,1.81.97,1.48,2.04,2.96,4.03,3.39,9.68,2.09,19.59,2.27,29.37,3.52,12.48,1.59,24.99,2.96,37.16,6.32,1.89.52,1.87.58.61,1.77Z"/>
      <path class="cls-28" d="M452.95,283.25c-2.07-3.48-6.48-2.78-7.49-6.8-1.22-4.87-.79-9.44.6-14.21,4.48-15.4,14.84-25.58,28.48-32.99,1.21-.66,2.13-.73,2.92.58.57.95.84,1.84-.07,2.68-12.3,11.44-15.25,27.61-21.36,42.19-1.02,2.44-1.81,4.98-3.08,8.54Z"/>
      <path class="cls-28" d="M795.97,680.55c2.14-4.2.65-9.35,2.86-14.12,3.92-8.45,12.76-10.04,19.06-15.1.72-.58,1.56-.43,2.13.42.53.79.47,1.62-.09,2.31-7.37,9.03-9.27,20.46-13.53,30.85-.37.91-.86,1.81-1.45,2.6-2.93,3.97-4.88,3.83-6.85-.53-.88-1.94-2.15-3.78-2.12-6.43Z"/>
      <path class="cls-32" d="M775.82,516.03c-.18.25-.35.52-.55.75-5.29,6.14-3.44,13.04-2.05,19.87.32,1.54,1.75,3.28-.67,4.15-1.84.66-2.73-.96-3.32-2.29-3.02-6.7-7.69-12.68-7.55-20.7.07-4.02-.59-8.31-2.97-11.94-.56-.86-1.06-1.88-.07-2.65.91-.71,2.12-.37,2.63.49,3.06,5.14,8.81,6.87,13.04,10.5.59.51,1.53.77,1.5,1.82Z"/>
      <path class="cls-7" d="M435.78,373.55c-.97,2.78.48,4.16,1.34,5.71,1.7,3.05,3.29,6.15,3.56,9.69.24,3.17-1.71,4.53-4.34,3.49-10.63-4.22-14.09-10.33-5.28-20.07.94-1.04,1.96-2.74,3.59-2.01,1.59.71,1.5,2.4,1.12,3.2Z"/>
      <path class="cls-5" d="M464.24,299.7c-.07-.19-.13-.97-.55-1.36-4.46-4.1-2.09-8.41-.56-12.76.89-2.55,2.09-2.6,4.42-1.48,6.88,3.3,6.92,3.16,4.03,10.36-.99,2.47-2.16,4.81-3.88,6.87-1.24,1.48-2.53,2.83-1.76,5.27.65,2.06-1.34,3.15-2.93,4.06-.84.47-1.6.23-2.01-.69-.75-1.66-.54-3.35.54-4.68,1.26-1.55,2.72-2.91,2.7-5.57Z"/>
      <path class="cls-14" d="M517.71,230.64c-.08-6.92,2.43-13.36,3.73-20,.5-2.53,1.78-4.89,4.89-4.68,2.22.15,2.84,2.03,2.87,4,.03,2.6.6,5.17-3.41,5.92-4.91.92-6.43,7.4-3.03,11.39,2.74,3.22,1.69,9.7-1.89,11.81-1.81,1.06-2.95.45-3.11-1.48-.2-2.3-.05-4.63-.05-6.95Z"/>
      <path class="cls-24" d="M417.53,593.82c.12-6.32,9.09-13.75,15.47-12.8,1.65.24,2.62,1.13,1.44,2.66-1.75,2.28-2.57,5.44-6.06,6.16-3.12.65-4.02,3.71-5.68,5.91-.85,1.13-1.58,3-3.27,2.35-1.67-.64-1.87-2.57-1.9-4.28Z"/>
      <path class="cls-36" d="M408.58,505.82c.14,3.77-1.4,7.21-2.56,10.56-.96,2.77-4.53,1.95-6.98,2.58-1.18.3-2.37.02-2.67-1.46-.45-2.23.76-3.8,2.23-5.21,3.09-2.98,4.5-6.84,5.71-10.81.3-.98-.55-2.65,1.22-2.75,1.67-.1,2.06,1.47,2.37,2.72.36,1.43.47,2.92.68,4.39Z"/>
      <path class="cls-2" d="M747.27,480.42c-1.84,8.73.38,17.11-.16,25.58-7.6-3.64-7.71-20.08.16-25.58Z"/>
      <path class="cls-42" d="M511.47,592.84c-.28,1.27-.37,2.63-.88,3.8-.86,1.99-2,4.25-4.65,3.41-2.55-.81-1.8-3.31-1.47-5.14.52-2.91,1.38-5.78,2.23-8.62.27-.89.73-2.11,1.88-2.01,1.05.09,1.38,1.23,1.65,2.19.58,2.07,1.25,4.12,1.24,6.37Z"/>
      <path class="cls-43" d="M663.92,154.81c-2.31-1.35-4.47-.7-6.39,1.55-.5.58-1.63.65-2.19-.16-.55-.81-.08-1.9.66-2.04,3.27-.63,4.46-3.65,6.67-5.48,1.68-1.38,3.61-2.6,5.87-1.39,1.48.8,1.95,2.28,1.22,3.85-1.06,2.29-2.92,3.52-5.85,3.67Z"/>
      <path class="cls-40" d="M812.26,630.75c1.32.05,2.36.74,2.57,2.27.2,1.4-4.61,6.69-6.02,6.74-1.72.06-1.71-1.18-1.72-2.36-.02-2.73,2.89-6.58,5.17-6.65Z"/>
      <path class="cls-10" d="M782.88,708.67c-.59,2.14-1.47,4.18-4.14,4-2.19-.15-3.1-1.82-2.79-3.85.31-2.05,1.36-3.9,3.73-3.82,2.06.07,3.15,1.51,3.2,3.67Z"/>
      <path class="cls-4" d="M440.54,348.23c-3.54-3.82-2.7-11.36.73-13.11.49-.25,1.36-.28,1.81,0,.67.42,1.26,1.31.61,2.09-1.24,1.5-3.08,2.59-3.14,4.83-.05,1.79,0,3.57,0,6.19Z"/>
      <path class="cls-38" d="M405.24,368.91c.13,2.02-.7,3.1-2.19,3.04-2.74-.09-3.35-2.26-3.49-4.47-.11-1.75.82-3.86,2.43-3.65,2.77.37,1.97,3.73,3.24,5.07Z"/>
      <path class="cls-20" d="M556.31,174.81c1.98-.16,2.31,1.25,2.43,2.56.15,1.65-.53,3.03-2.35,3.21-1.44.14-2.79-.52-2.79-2.14,0-1.77,1.01-3.1,2.72-3.64Z"/>
      <path class="cls-48" d="M377.65,630.59c-.04,1.9-.97,3.14-2.85,3.35-1.55.17-2.47-.73-2.43-2.33.04-1.86,1.07-3.16,2.85-3.43,1.56-.24,2.28.92,2.43,2.41Z"/>
      <path class="cls-6" d="M342.48,750.8c-.3,1.66-1.06,3.22-2.9,3.5-1.49.23-1.96-1.01-1.68-2.33.35-1.67.95-3.41,2.84-3.68,1.56-.23,1.62,1.26,1.74,2.52Z"/>
      <path class="cls-3" d="M345.74,738.44c1.28.17,1.8.98,1.63,2.06-.32,1.93-1.53,3.34-3.35,3.86-.74.21-1.41-.92-1.17-1.77.48-1.7.9-3.54,2.89-4.15Z"/>
      <path class="cls-23" d="M649.14,108.54c-.06,1.38-.19,2.98-1.91,2.93-1.62-.04-1.88-1.63-1.96-3-.07-1.26.29-2.5,1.69-2.63,1.81-.17,2,1.35,2.18,2.69Z"/>
      <path class="cls-45" d="M813.38,691.25c1.22.31,2.24,1.05,2.38,2.27.2,1.76-1.1,2.26-2.58,2.2-1.34-.05-2.25-.79-2.15-2.19.09-1.35,1.2-1.89,2.35-2.28Z"/>
      <path class="cls-27" d="M506.39,252.55c-1.35-.12-1.95-.99-1.98-2.28-.02-1.22.42-2.41,1.73-2.57,1.44-.18,1.91.99,1.99,2.23.08,1.25-.37,2.23-1.74,2.62Z"/>
      <path class="cls-25" d="M484.43,933.41c-8.41-7.83-10.46-17.86-5.73-27.91,1.42-3.03,2.5-5.93,2.95-9.24,1.68-12.45,8.47-22.61,15.1-32.82,2.16-3.33,4.4-6.63,6.16-10.45-2.19,1.7-4.31,3.51-6.61,5.05-1.61,1.08-3.57,2.82-5.42,1.7-2.09-1.27-1.22-3.91-1.13-6.01.3-6.95,4.15-11.8,9.58-15.55,3.33-2.3,6.87-4.29,11.38-7.08-1.8,3.23-3.13,5.41-4.24,7.7-.56,1.15-1.13,2.72.34,3.58,1.34.78,2.01-.7,2.79-1.48,16.05-16.19,29.21-34.71,40.77-54.14,7.94-13.35,10.59-28.97,12.61-44.42,2.31-17.68,4.27-35.4,3.97-53.26-.38-22.81-4.24-44.8-17.96-63.83-4.39-6.09-8.58-12.56-15.51-16.64,8.27,1.06,16.19,3.13,23.63,6.57,23.83,11.02,40.77,29.48,54.35,51.39,14.49,23.38,20.61,49.3,22.51,76.39,1.46,20.79-.21,41.51-.98,62.3-1.08,29.22-11.78,55.08-21.28,81.63-2.46,6.88-5.06,13.69-6.51,22.28,8.09-14.44,12.51-29.1,19.32-42.99,5.09,11.74,7.13,23.16,7.08,35.24-.05,13.52,4.05,23.18,13.84,38.43-7.59.96-11.64-4.59-16.64-8.9-4.42,12.37,1.52,21.97,6.91,31.67.27.49.99.84,1.58,1.03,13.74,4.49,27.35,3.92,40.72-1.4,6.46-2.57,13.03-5.72,19.48-7.31,12.35-3.04,19.07-11.67,26.1-20.56,2.16-2.74,5.26-4.51,6.96-7.75,6.24-11.91,8.36-23.78.66-35.92-.48-.76-1.47-1.41-.89-3.13,4.55,4.56,8.86,8.59,10.86,14.97,5.2,16.56,1.95,31.47-7.26,45.64-3.81,5.86-7.73,11.73-10.61,18.05-1.02,2.24-1.27,5.23-2.17,7.88-5.32,15.7-14.91,28.82-24.74,41.81-.45.59-1.34,1.07-.71,2.48,5.68-3.75,11.3-7.45,16.92-11.16-5.99,6.49-6.96,15.01-9.32,23.15,8.64-9.84,23.12-10.49,31.72-21.24-3.99,1.57-7.26,4.01-11.92,4.57,17.41-14.65,34.49-28.59,47.59-46.66-.94,4.78-3.24,8.98-5.34,13.22-11.73,23.75-30.99,40.39-51.97,55.57-25.35,18.35-53.85,27.92-84.6,31.39-3.17.36-7.13,3.23-10.04-1.05-.09-.13-.78-.1-.83,0-1.91,4.42-6.12,2.76-9.17,3.01-25.12,2.09-50.2,2.45-74.99-3.34-1.79-.42-3.61-.5-4.28-2.75-.59-1.96-2.34-1.57-3.78-1.39-10.62,1.34-17.79-2.33-22.75-11.72-.76-1.45-1.57-2.87-2.37-4.34-6.76,5.07-10.37,4.57-17.24-3.73-2.77-3.35-5.04-3.5-8.3-1.76-.29.16-.66.22-.89.44-7,6.5-13.63,3.1-20.41-.58-21.75-11.82-38.44-29.09-52.05-49.33-9.56-14.21-18.25-29.02-20.82-46.56-2.19-14.9-4.14-30.04-1.31-44.74,3.59-18.62,5.65-37.78,14.86-55.07,8.78-16.48,20.67-30.12,34.91-41.91.32-.26.81-.32,1.84-.7-2.97,4.5-5.64,8.44-8.21,12.45-13.08,20.45-20.05,43.02-19.85,67.11.18,22.1,7.09,42.9,17.54,62.37,2.36,4.39,5.3,8.47,7.96,12.69,10.79,17.14,27.46,24.88,47.64,29.61-7.35-6.93-12.41-14.08-17.31-21.39-4.14-6.18-6.32-13.04-8.69-20.01-3.12-9.15-4.57-18.2-3.87-27.81.72-9.99,8.22-32.87,14.12-40.18-5.05,20.08,1.19,37.04,14,52.1,2.42,2.84,5.55,4.64,9.96,4.72Z"/>
      <path class="cls-44" d="M677.61,706.33c6.25,9.46,10.13,19.87,13.19,30.54,3.16,11.05,4.88,22.41,6.49,33.8,4.65,32.87-14.31,62.52-41.63,75.61-5.75,2.76-12.27,4.3-16.66,9.88.71-4.71,1.25-9.44,2.15-14.11,2.83-14.75,2.17-29.88,4.93-44.62.76-4.08,1.82-8.12,3.05-12.09,1.13-3.66,3.33-6.43,6.22-9.25,3.53-3.44,5.56-8.44,9.21-12.08,8.63-8.64,12.52-19.33,13.81-31.31.95-8.85.65-17.58-.74-26.38Z"/>
      <path class="cls-39" d="M430.94,619.18c-.26,5.24-3.61,9.58-3.81,15.04,1.13-1.78,2.18-3.63,3.41-5.34,2.63-3.64,5.2-7.33,9.88-8.74,2.28-.69,3.38-2.84,3.96-4.87,2.11-7.31,7.54-11.02,14.07-13.74,2.11-.88,4.1-2.05,6.76-3.4-.08,5.85-1.64,10.71-2.83,15.58-7.53,30.7-18.12,60.16-35.77,86.7-1.96,2.94-4.17,5.63-7,7.73-5.22,3.87-9.34,3.08-13.1-2.23-5.79-8.19-5.17-17.28-3.66-26.41,3.74-22.72,14.08-42.4,28.1-60.35,0,0,0,.02,0,.02Z"/>
      <path class="cls-21" d="M641.87,512.02c10.27,4.49,20.24,10.44,24.16,21.3,2.3,6.36,7.05,11.58,7.6,18.89.55,7.37.28,14.58-.38,21.86-.64,7.14-1.83,14.18-3.64,21.1-1.55,5.94-3.34,11.82-5.08,17.72-.43,1.46-1.19,3.08-2.68,3.39-1.92.4-2.13-1.74-2.8-2.9-11.69-20.27-17.27-42.37-18.83-65.52-.8-11.87-2.42-23.85,1.65-35.83Z"/>
      <path class="cls-33" d="M559.43,235.05c-7.8,17.33-15.42,33.83-24.8,49.53-5.67,9.49-12.88,17.24-21.75,23.72-3.41,2.49-4.21,1.13-4.59-1.99-.58-4.67-.19-9.32.85-13.9,2.88-12.7,6.3-25.1,14.6-35.69,9.06-11.55,21.14-17.69,35.69-21.68Z"/>
      <path class="cls-34" d="M725,870.18c-1.09-7.76-2.69-14.84-5.6-21.55-.42-.96-.21-1.92.16-2.9,2.26-6.05,3.75-12.31,4.55-18.87,9.5,8.82,10.01,28.33.9,43.31Z"/>
      <path class="cls-29" d="M486.72,1004.47c.88-4.97,2.35-10.48.85-16.16-.28-1.05.26-2.16,1.4-2.21,1.76-.08,2.03,1.53,2.21,2.78,1.1,7.62,5.14,13.69,10.52,18.74,3.46,3.25,7.85,5.49,11.66,8.39,1.64,1.25,5.14,1.98,3.46,4.98-1.67,2.98-4.65,5.09-8.38,3.6-3.37-1.34-6.68-3-9.69-5.02-2.72-1.83-5.13-3.94-8.25-5.35-3.63-1.64-3.41-5.71-3.8-9.77Z"/>
      <path class="cls-18" d="M591.85,930.71c.45,2.65-1.06,4.2-1.93,5.88-7.57,14.65-15.78,28.92-24.89,42.68-3.02,4.56-6.16,9.1-7.95,14.38-.89,2.64-3.07,3.78-5.65,4.37-1.81.41-3.28-.05-4.46-1.46-1.24-1.48-.41-2.82.36-4.12,2.45-4.15,4.92-8.28,6.97-12.67,1.43-3.05,5.08-3.96,7.16-6.67,9.65-12.54,19.31-25.05,27.71-38.49.77-1.23,1.63-2.4,2.66-3.91Z"/>
      <path class="cls-26" d="M414.43,992.79c-.39,1.31.86,4.03-1.18,4.05-2,.03-4.46-1.38-5.95-2.9-2.83-2.89-4.12-6.76-4.62-10.78-.18-1.42.27-2.65,2.22-2.4,4.27.55,9.71,7.28,9.52,12.03Z"/>
      <path class="cls-16" d="M624.53,1041.47c5.66-5.86,12.67-10.1,18.31-16.06,1.92-2.03,4.84-1.58,8.76-1.24-9.64,6.16-18.35,11.73-27.07,17.3Z"/>
      <path class="cls-31" d="M486.86,981.52c-2.43-2.19-2.62-4.92-3.22-7.45-.37-1.57.13-2.97,1.6-3.83,1.3-.76,2.57-.52,3.65.46,1.22,1.11,1.56,2.39.81,4.01-.97,2.08-1.77,4.25-2.83,6.82Z"/>
      <path class="cls-13" d="M457.5,1022.24c1.35-4.03,4.42-5.44,7.8-6.3,1.76-.45,2.77.74,3.19,2.34.46,1.74-.21,3.08-2,3.25-2.86.27-5.7,1.34-8.99.71Z"/>
      <path class="cls-37" d="M509.98,963.46c2.21.82,4.58,2.67,4.7,4.43.19,2.69-3.12,2.7-5.18,3.3-1.8.52-3.44-.1-3.35-2.31.09-2.46,1.46-4.26,3.83-5.41Z"/>
      <path class="cls-15" d="M694.38,1032.5c-1.22,4.19-3.7,5.87-5.99,7.68-.94.74-2.08,1.12-3.19.3-1.21-.9-1.32-2.23-1.09-3.59.22-1.29,1.11-2.3,2.35-2.07,2.62.47,4.74-.72,7.91-2.33Z"/>
      <path class="cls-11" d="M549.46,1051.27c-1.39-.15-2.87-.69-2.22-2.01,1.46-2.99,4.58-4.05,7.48-5.1,1.05-.38,2.07.79,1.71,1.76-1.2,3.22-4.11,4.4-6.97,5.35Z"/>
      <path class="cls-8" d="M519.35,953.87c1.67-3.34,3.28-6.72,5.04-10.01.51-.95,1.33-2.21,2.69-1.4,1.39.82.56,2.13.05,3.05-1.82,3.35-4.19,6.28-7.79,8.36Z"/>
      <path class="cls-9" d="M654.99,1053.86c-1.9.08-3.95-.15-3.54-2.35.6-3.3,3.77-1.61,5.76-2.2,1.45-.43,3.63-.15,3.27,1.7-.53,2.76-3.5,2.32-5.48,2.84Z"/>
      <path class="cls-12" d="M468.72,1015.69c.13-2.08,1.14-2.63,2.17-3.12,2.17-1.02,4.39-1.24,6.58-.11.78.4,1.39,1.28.81,1.97-1.46,1.71-3.65.97-5.53,1.23-1.26.18-2.57.03-4.03.03Z"/>
      <path class="cls-17" d="M511.26,1036.57c-.47,2.45-2.25,2.91-4.03,3.26-1.58.31-2.03-.73-1.95-2.04.13-2.01,1.17-3.55,3.17-3.8,1.78-.22,2.41,1.3,2.81,2.59Z"/>
      <path class="cls-41" d="M693.25,1040.76c1.34-.16,1.88.54,1.94,1.67.06,1.12-.54,1.88-1.58,2.16-1.18.31-1.96-.39-2.13-1.44-.21-1.31.58-2.1,1.77-2.39Z"/>
      <path class="cls-19" d="M564.08,1013.47c.18-2.99,1.74-3.88,4.13-5.43-.55,3.07-1.49,4.53-4.13,5.43Z"/>
      <path class="cls-22" d="M660.2,593.05c-.06,1.54-.4,3.24-2.08,3.41-2.24.23-2.32-1.9-2.54-3.42-.2-1.43.59-2.62,2.11-2.77,1.92-.19,2.48,1.12,2.5,2.78Z"/>
    </g>
  </g>
</svg>